G04 #@! TF.FileFunction,Legend,Bot*
%FSLAX46Y46*%
G04 Gerber Fmt 4.6, Leading zero omitted, Abs format (unit mm)*
G04 Created by KiCad (PCBNEW 4.0.2+dfsg1-2~bpo8+1-stable) date jue 23 mar 2017 16:55:10 ART*
%MOMM*%
G01*
G04 APERTURE LIST*
%ADD10C,0.100000*%
%ADD11C,0.175000*%
%ADD12C,0.101600*%
%ADD13C,0.150000*%
%ADD14C,0.127000*%
%ADD15C,0.198120*%
G04 APERTURE END LIST*
D10*
D11*
X88916666Y-73916667D02*
X88683333Y-74616667D01*
X88450000Y-73916667D01*
X87850000Y-74616667D02*
X88250000Y-74616667D01*
X88050000Y-74616667D02*
X88050000Y-73916667D01*
X88116666Y-74016667D01*
X88183333Y-74083333D01*
X88250000Y-74116667D01*
X87549999Y-74550000D02*
X87516666Y-74583333D01*
X87549999Y-74616667D01*
X87583333Y-74583333D01*
X87549999Y-74550000D01*
X87549999Y-74616667D01*
X87083333Y-73916667D02*
X87016666Y-73916667D01*
X86950000Y-73950000D01*
X86916666Y-73983333D01*
X86883333Y-74050000D01*
X86850000Y-74183333D01*
X86850000Y-74350000D01*
X86883333Y-74483333D01*
X86916666Y-74550000D01*
X86950000Y-74583333D01*
X87016666Y-74616667D01*
X87083333Y-74616667D01*
X87150000Y-74583333D01*
X87183333Y-74550000D01*
X87216666Y-74483333D01*
X87250000Y-74350000D01*
X87250000Y-74183333D01*
X87216666Y-74050000D01*
X87183333Y-73983333D01*
X87150000Y-73950000D01*
X87083333Y-73916667D01*
D12*
X89330000Y-68400000D02*
X89330000Y-68800000D01*
X89770000Y-68400000D02*
X89330000Y-68400000D01*
X89770000Y-68800000D02*
X89770000Y-68400000D01*
X89770000Y-69000000D02*
X89770000Y-69400000D01*
X89330000Y-69000000D02*
X89330000Y-69400000D01*
X89770000Y-69400000D02*
X89330000Y-69400000D01*
D13*
X78775843Y-67390400D02*
G75*
G03X78775843Y-67390400I-80322J0D01*
G01*
D14*
X78462800Y-67187200D02*
X77878600Y-67187200D01*
X76837200Y-68203200D02*
X76837200Y-68838200D01*
X76862600Y-68838200D02*
X77421400Y-68838200D01*
X78462800Y-67771400D02*
X78462800Y-67187200D01*
D12*
X77580000Y-65900000D02*
X77580000Y-66300000D01*
X78020000Y-65900000D02*
X77580000Y-65900000D01*
X78020000Y-66300000D02*
X78020000Y-65900000D01*
X78020000Y-66500000D02*
X78020000Y-66900000D01*
X77580000Y-66500000D02*
X77580000Y-66900000D01*
X78020000Y-66900000D02*
X77580000Y-66900000D01*
D10*
X89620368Y-57605369D02*
X90091655Y-58076656D01*
X88255369Y-58970368D02*
X88726656Y-59441655D01*
X91083796Y-61798795D02*
X90621490Y-61336489D01*
X92448795Y-60433796D02*
X91968528Y-59953529D01*
D12*
X87830000Y-57000000D02*
X87830000Y-57400000D01*
X88270000Y-57000000D02*
X87830000Y-57000000D01*
X88270000Y-57400000D02*
X88270000Y-57000000D01*
X88270000Y-57600000D02*
X88270000Y-58000000D01*
X87830000Y-57600000D02*
X87830000Y-58000000D01*
X88270000Y-58000000D02*
X87830000Y-58000000D01*
X87500000Y-57500000D02*
X87200000Y-57500000D01*
X87000000Y-65200000D02*
X87300000Y-65200000D01*
X86500000Y-65200000D02*
X86800000Y-65200000D01*
X88490000Y-70150000D02*
X88490000Y-70450000D01*
X88490000Y-70750000D02*
X88490000Y-71050000D01*
X90320000Y-72900000D02*
X90320000Y-72500000D01*
X89880000Y-72900000D02*
X90320000Y-72900000D01*
X89880000Y-72500000D02*
X89880000Y-72900000D01*
X89880000Y-72300000D02*
X89880000Y-71900000D01*
X90320000Y-72300000D02*
X90320000Y-71900000D01*
X89880000Y-71900000D02*
X90320000Y-71900000D01*
X78970000Y-70000000D02*
X78970000Y-69600000D01*
X78530000Y-70000000D02*
X78970000Y-70000000D01*
X78530000Y-69600000D02*
X78530000Y-70000000D01*
X78530000Y-69400000D02*
X78530000Y-69000000D01*
X78970000Y-69400000D02*
X78970000Y-69000000D01*
X78530000Y-69000000D02*
X78970000Y-69000000D01*
D13*
X89587842Y-73038200D02*
G75*
G03X89587842Y-73038200I-71842J0D01*
G01*
D10*
X87700000Y-73200000D02*
X89300000Y-73200000D01*
X87700000Y-71200000D02*
X89300000Y-71200000D01*
X87700000Y-73200000D02*
X87700000Y-71200000D01*
X89300000Y-73200000D02*
X89300000Y-71200000D01*
X83750000Y-66800000D02*
X83750000Y-67600000D01*
X84350000Y-67700000D02*
X84950000Y-67700000D01*
X85550000Y-67600000D02*
X85550000Y-66800000D01*
X84950000Y-66700000D02*
X84350000Y-66700000D01*
D12*
X86450000Y-67450000D02*
X86450000Y-66950000D01*
X82850000Y-66950000D02*
X82850000Y-67450000D01*
X80970000Y-66680000D02*
X80350000Y-66680000D01*
X80970000Y-67320000D02*
X80970000Y-66680000D01*
X80350000Y-67320000D02*
X80970000Y-67320000D01*
X79330000Y-66680000D02*
X79950000Y-66680000D01*
X79330000Y-67320000D02*
X79330000Y-66680000D01*
X79950000Y-67320000D02*
X79330000Y-67320000D01*
X79900000Y-68200000D02*
X79400000Y-68200000D01*
X80900000Y-68200000D02*
X80400000Y-68200000D01*
X91750000Y-63390000D02*
X91450000Y-63390000D01*
X89600000Y-63600000D02*
X89300000Y-63600000D01*
X88130000Y-68400000D02*
X88130000Y-68800000D01*
X88570000Y-68400000D02*
X88130000Y-68400000D01*
X88570000Y-68800000D02*
X88570000Y-68400000D01*
X88570000Y-69000000D02*
X88570000Y-69400000D01*
X88130000Y-69000000D02*
X88130000Y-69400000D01*
X88570000Y-69400000D02*
X88130000Y-69400000D01*
X90200000Y-63600000D02*
X89900000Y-63600000D01*
X90500000Y-68900000D02*
X90200000Y-68900000D01*
X78170000Y-70100000D02*
X78170000Y-69700000D01*
X77730000Y-70100000D02*
X78170000Y-70100000D01*
X77730000Y-69700000D02*
X77730000Y-70100000D01*
X77730000Y-69500000D02*
X77730000Y-69100000D01*
X78170000Y-69500000D02*
X78170000Y-69100000D01*
X77730000Y-69100000D02*
X78170000Y-69100000D01*
D15*
X82003000Y-69095000D02*
X80987000Y-69095000D01*
X82130000Y-72143000D02*
X81749000Y-72143000D01*
X80987000Y-72905000D02*
X80987000Y-72016000D01*
X85813000Y-69984000D02*
X85051000Y-69984000D01*
X85051000Y-72016000D02*
X85813000Y-72016000D01*
X81749000Y-72016000D02*
X80987000Y-72016000D01*
X81749000Y-69984000D02*
X80987000Y-69984000D01*
X85051000Y-72143000D02*
X85051000Y-69801120D01*
X81749000Y-69857000D02*
X81749000Y-72143000D01*
X85813000Y-69095000D02*
X84797000Y-69095000D01*
X85813000Y-72905000D02*
X84797000Y-72905000D01*
X82003000Y-72905000D02*
X80987000Y-72905000D01*
X80987000Y-69984000D02*
X80987000Y-69095000D01*
X85813000Y-69984000D02*
X85813000Y-69095000D01*
X85813000Y-72905000D02*
X85813000Y-72016000D01*
X85051000Y-69801120D02*
X84670000Y-69801120D01*
X82130000Y-69857000D02*
X81749000Y-69857000D01*
X85051000Y-72143000D02*
X84670000Y-72143000D01*
D13*
X86755322Y-59571000D02*
G75*
G03X86755322Y-59571000I-80322J0D01*
G01*
D14*
X78930000Y-66500000D02*
X86330000Y-66500000D01*
X86330000Y-66500000D02*
X86330000Y-59500000D01*
X86330000Y-59500000D02*
X78930000Y-59500000D01*
X78930000Y-59500000D02*
X78930000Y-66500000D01*
D13*
X87667200Y-67891000D02*
G75*
G03X87667200Y-67891000I-76200J0D01*
G01*
D14*
X88200000Y-67790000D02*
X88450000Y-67790000D01*
X88200000Y-67540000D02*
X88200000Y-67790000D01*
X88200000Y-64690000D02*
X88200000Y-64940000D01*
X88450000Y-64690000D02*
X88200000Y-64690000D01*
X91300000Y-67540000D02*
X91300000Y-67790000D01*
X91300000Y-67790000D02*
X91050000Y-67790000D01*
X91300000Y-64690000D02*
X91300000Y-64940000D01*
X91300000Y-64690000D02*
X91050000Y-64690000D01*
D13*
X83620722Y-57054479D02*
G75*
G03X83620722Y-57054479I-80322J0D01*
G01*
D14*
X83337200Y-57287200D02*
X83337200Y-57871400D01*
X84353200Y-58912800D02*
X84988200Y-58912800D01*
X84988200Y-58887400D02*
X84988200Y-58328600D01*
X83921400Y-57287200D02*
X83337200Y-57287200D01*
D12*
X81550000Y-58320000D02*
X81950000Y-58320000D01*
X81550000Y-57880000D02*
X81550000Y-58320000D01*
X81950000Y-57880000D02*
X81550000Y-57880000D01*
X82150000Y-57880000D02*
X82550000Y-57880000D01*
X82150000Y-58320000D02*
X82550000Y-58320000D01*
X82550000Y-57880000D02*
X82550000Y-58320000D01*
X88126943Y-61310533D02*
X87865686Y-61310533D01*
X87996315Y-62021733D02*
X87996315Y-61310533D01*
X87713286Y-62021733D02*
X87713286Y-61310533D01*
X87539114Y-61310533D01*
X87495572Y-61344400D01*
X87473800Y-61378267D01*
X87452029Y-61446000D01*
X87452029Y-61547600D01*
X87473800Y-61615333D01*
X87495572Y-61649200D01*
X87539114Y-61683067D01*
X87713286Y-61683067D01*
X87060143Y-61547600D02*
X87060143Y-62021733D01*
X87169000Y-61276667D02*
X87277857Y-61784667D01*
X86994829Y-61784667D01*
X81226943Y-58610533D02*
X80965686Y-58610533D01*
X81096315Y-59321733D02*
X81096315Y-58610533D01*
X80813286Y-59321733D02*
X80813286Y-58610533D01*
X80639114Y-58610533D01*
X80595572Y-58644400D01*
X80573800Y-58678267D01*
X80552029Y-58746000D01*
X80552029Y-58847600D01*
X80573800Y-58915333D01*
X80595572Y-58949200D01*
X80639114Y-58983067D01*
X80813286Y-58983067D01*
X80138372Y-58610533D02*
X80356086Y-58610533D01*
X80377857Y-58949200D01*
X80356086Y-58915333D01*
X80312543Y-58881467D01*
X80203686Y-58881467D01*
X80160143Y-58915333D01*
X80138372Y-58949200D01*
X80116600Y-59016933D01*
X80116600Y-59186267D01*
X80138372Y-59254000D01*
X80160143Y-59287867D01*
X80203686Y-59321733D01*
X80312543Y-59321733D01*
X80356086Y-59287867D01*
X80377857Y-59254000D01*
M02*
