G04 #@! TF.FileFunction,Paste,Top*
%FSLAX46Y46*%
G04 Gerber Fmt 4.6, Leading zero omitted, Abs format (unit mm)*
G04 Created by KiCad (PCBNEW 4.0.2+dfsg1-2~bpo8+1-stable) date jue 23 mar 2017 16:55:10 ART*
%MOMM*%
G01*
G04 APERTURE LIST*
%ADD10C,0.100000*%
%ADD11R,0.280000X0.300000*%
%ADD12R,0.300000X0.280000*%
%ADD13R,0.800000X0.300000*%
%ADD14R,1.451880X2.201880*%
%ADD15R,0.500000X0.500000*%
%ADD16R,0.680000X0.580000*%
%ADD17R,1.900000X1.170000*%
%ADD18R,1.900000X2.370000*%
%ADD19R,2.100000X1.470000*%
%ADD20R,1.380000X0.450000*%
%ADD21R,0.203480X1.503480*%
%ADD22R,0.703480X1.703480*%
%ADD23C,0.762000*%
%ADD24R,1.300000X0.950000*%
%ADD25C,0.300000*%
%ADD26R,0.750000X0.300000*%
%ADD27R,0.315000X0.280000*%
G04 APERTURE END LIST*
D10*
G36*
X79408750Y-59543224D02*
X80091250Y-58860724D01*
X80989276Y-59758750D01*
X80306776Y-60441250D01*
X79408750Y-59543224D01*
X79408750Y-59543224D01*
G37*
G36*
X78510724Y-60441250D02*
X79193224Y-59758750D01*
X80091250Y-60656776D01*
X79408750Y-61339276D01*
X78510724Y-60441250D01*
X78510724Y-60441250D01*
G37*
D11*
X85085000Y-66550000D03*
X84565000Y-66550000D03*
X85085000Y-66050000D03*
X84565000Y-66050000D03*
X81890000Y-66350000D03*
X82410000Y-66350000D03*
D12*
X79850000Y-68540000D03*
X79850000Y-69060000D03*
D11*
X80390000Y-70400000D03*
X80910000Y-70400000D03*
D12*
X80750000Y-61440000D03*
X80750000Y-61960000D03*
X81350000Y-61440000D03*
X81350000Y-61960000D03*
X78700000Y-62910000D03*
X78700000Y-62390000D03*
X86150000Y-64040000D03*
X86150000Y-64560000D03*
X86750000Y-67940000D03*
X86750000Y-68460000D03*
D13*
X82110000Y-67660000D03*
X82110000Y-68310000D03*
X82110000Y-68950000D03*
X82110000Y-69600000D03*
X85050000Y-68950000D03*
X85050000Y-68310000D03*
X85050000Y-67660000D03*
D14*
X83580000Y-68630000D03*
D13*
X85050000Y-69600000D03*
D15*
X77850000Y-69300000D03*
X78850000Y-69300000D03*
X78850000Y-70100000D03*
X77850000Y-70100000D03*
X79450000Y-71000000D03*
X79450000Y-72000000D03*
X80350000Y-71000000D03*
X80350000Y-72000000D03*
D16*
X86750000Y-67150000D03*
X86750000Y-65050000D03*
D17*
X91400000Y-66980000D03*
X91400000Y-65300000D03*
D18*
X91400000Y-63230000D03*
X91400000Y-69050000D03*
D19*
X89100000Y-63680000D03*
X89100000Y-68600000D03*
D20*
X88740000Y-67440000D03*
X88740000Y-66790000D03*
X88740000Y-66140000D03*
X88740000Y-65490000D03*
X88740000Y-64840000D03*
D10*
G36*
X77426777Y-64211091D02*
X77638909Y-64423223D01*
X77440919Y-64621213D01*
X77228787Y-64409081D01*
X77426777Y-64211091D01*
X77426777Y-64211091D01*
G37*
G36*
X77059081Y-64578787D02*
X77271213Y-64790919D01*
X77073223Y-64988909D01*
X76861091Y-64776777D01*
X77059081Y-64578787D01*
X77059081Y-64578787D01*
G37*
D12*
X81450000Y-70760000D03*
X81450000Y-70240000D03*
D10*
G36*
X77126777Y-63911091D02*
X77338909Y-64123223D01*
X77140919Y-64321213D01*
X76928787Y-64109081D01*
X77126777Y-63911091D01*
X77126777Y-63911091D01*
G37*
G36*
X76759081Y-64278787D02*
X76971213Y-64490919D01*
X76773223Y-64688909D01*
X76561091Y-64476777D01*
X76759081Y-64278787D01*
X76759081Y-64278787D01*
G37*
D21*
X85797840Y-58404220D03*
X85297840Y-58404220D03*
X84797840Y-58404220D03*
X84297840Y-58404220D03*
X83797840Y-58404220D03*
X83797840Y-62004220D03*
X84297840Y-62004220D03*
X84797840Y-62004220D03*
X85297840Y-62004220D03*
X85797840Y-62004220D03*
D22*
X82047840Y-60204220D03*
X87547840Y-60204220D03*
D10*
G36*
X77638909Y-68376777D02*
X77426777Y-68588909D01*
X77228787Y-68390919D01*
X77440919Y-68178787D01*
X77638909Y-68376777D01*
X77638909Y-68376777D01*
G37*
G36*
X77271213Y-68009081D02*
X77059081Y-68221213D01*
X76861091Y-68023223D01*
X77073223Y-67811091D01*
X77271213Y-68009081D01*
X77271213Y-68009081D01*
G37*
D23*
X87650000Y-69700000D03*
X83450000Y-66100000D03*
X77650000Y-62500000D03*
D24*
X83550000Y-71203000D03*
X83550000Y-73235000D03*
D25*
X78727676Y-66374572D03*
X79527676Y-66374572D03*
X78727676Y-65374572D03*
X78727676Y-67374572D03*
X79527676Y-65374572D03*
X77927676Y-66374572D03*
X79527676Y-67374572D03*
X77927676Y-65374572D03*
X77927676Y-67374572D03*
D26*
X84800000Y-65350000D03*
X84800000Y-64850000D03*
X84800000Y-64350000D03*
X84800000Y-63850000D03*
X81900000Y-63850000D03*
X81900000Y-64350000D03*
X81900000Y-64850000D03*
X81900000Y-65350000D03*
D27*
X82750000Y-64600000D03*
X82750000Y-65100000D03*
X82750000Y-64100000D03*
X83950000Y-64100000D03*
X83350000Y-64600000D03*
X83950000Y-65100000D03*
X83350000Y-64100000D03*
X83350000Y-65100000D03*
X83950000Y-64600000D03*
M02*
