M48
;DRILL file {KiCad 4.0.2+dfsg1-2~bpo8+1-stable} date jue 23 mar 2017 16:55:42 ART
;FORMAT={-:-/ absolute / metric / decimal}
FMAT,2
METRIC,TZ
T1C0.203
%
G90
G05
M71
T1
X77.05Y-66.6
X77.213Y-65.88
X77.25Y-69.3
X77.55Y-63.4
X77.95Y-64.3
X78.15Y-61.7
X78.359Y-63.696
X78.43Y-70.604
X78.513Y-61.3
X78.55Y-64.3
X78.65Y-71.2
X78.75Y-68.4
X79.55Y-62.2
X80.35Y-69.808
X80.45Y-65.9
X80.45Y-72.9
X80.75Y-59.1
X80.95Y-69.808
X81.25Y-64.2
X81.35Y-58.2
X81.356Y-60.9
X81.45Y-62.6
X81.75Y-66.9
X81.95Y-73.3
X81.983Y-71.307
X82.57Y-70.398
X82.893Y-66.743
X83.05Y-57.6
X84.315Y-59.423
X84.65Y-70.625
X84.65Y-67.
X84.815Y-59.423
X84.949Y-73.3
X85.35Y-57.3
X85.45Y-70.5
X85.964Y-68.263
X86.05Y-73.4
X86.05Y-74.537
X86.35Y-69.1
X86.65Y-62.6
X86.65Y-63.4
X86.75Y-61.7
X86.75Y-64.1
X86.75Y-66.2
X86.842Y-70.3
X86.85Y-59.9
X86.95Y-57.3
X87.023Y-71.458
X87.088Y-69.138
X87.15Y-65.9
X87.192Y-67.8
X87.35Y-64.5
X87.35Y-68.3
X87.35Y-73.5
X87.55Y-63.2
X87.55Y-71.
X88.24Y-61.
X88.25Y-59.8
X88.75Y-57.3
X88.772Y-61.743
X89.05Y-73.7
X89.133Y-60.008
X89.687Y-61.5
X89.85Y-73.2
X90.15Y-71.4
X90.528Y-71.043
X90.667Y-72.112
X90.713Y-70.527
X91.75Y-61.753
X91.95Y-70.9
X92.05Y-61.3
X92.35Y-70.527
X92.45Y-61.7
T0
M30
