G04 #@! TF.FileFunction,Copper,L1,Top,Signal*
%FSLAX46Y46*%
G04 Gerber Fmt 4.6, Leading zero omitted, Abs format (unit mm)*
G04 Created by KiCad (PCBNEW 4.0.2+dfsg1-2~bpo8+1-stable) date jue 23 mar 2017 16:55:10 ART*
%MOMM*%
G01*
G04 APERTURE LIST*
%ADD10C,0.100000*%
%ADD11R,0.280000X0.300000*%
%ADD12R,0.300000X0.280000*%
%ADD13R,0.800000X0.300000*%
%ADD14R,1.650000X2.400000*%
%ADD15R,0.500000X0.500000*%
%ADD16R,0.680000X0.580000*%
%ADD17R,1.900000X1.170000*%
%ADD18R,1.900000X2.370000*%
%ADD19R,2.100000X1.470000*%
%ADD20R,1.380000X0.450000*%
%ADD21C,0.600000*%
%ADD22R,0.300000X1.600000*%
%ADD23R,0.800000X1.800000*%
%ADD24C,1.651000*%
%ADD25C,0.762000*%
%ADD26R,1.300000X0.950000*%
%ADD27C,0.300000*%
%ADD28R,0.750000X0.300000*%
%ADD29R,0.450000X0.400000*%
%ADD30C,0.406400*%
%ADD31C,0.088900*%
%ADD32C,0.101600*%
%ADD33C,0.203200*%
%ADD34C,0.254000*%
%ADD35C,0.304800*%
G04 APERTURE END LIST*
D10*
G36*
X79408750Y-59543224D02*
X80091250Y-58860724D01*
X80989276Y-59758750D01*
X80306776Y-60441250D01*
X79408750Y-59543224D01*
X79408750Y-59543224D01*
G37*
G36*
X78510724Y-60441250D02*
X79193224Y-59758750D01*
X80091250Y-60656776D01*
X79408750Y-61339276D01*
X78510724Y-60441250D01*
X78510724Y-60441250D01*
G37*
D11*
X85085000Y-66550000D03*
X84565000Y-66550000D03*
X85085000Y-66050000D03*
X84565000Y-66050000D03*
X81890000Y-66350000D03*
X82410000Y-66350000D03*
D12*
X79850000Y-68540000D03*
X79850000Y-69060000D03*
D11*
X80390000Y-70400000D03*
X80910000Y-70400000D03*
D12*
X80750000Y-61440000D03*
X80750000Y-61960000D03*
X81350000Y-61440000D03*
X81350000Y-61960000D03*
X78700000Y-62910000D03*
X78700000Y-62390000D03*
X86150000Y-64040000D03*
X86150000Y-64560000D03*
X86750000Y-67940000D03*
X86750000Y-68460000D03*
D13*
X82110000Y-67660000D03*
X82110000Y-68310000D03*
X82110000Y-68950000D03*
X82110000Y-69600000D03*
X85050000Y-68950000D03*
X85050000Y-68310000D03*
X85050000Y-67660000D03*
D14*
X83580000Y-68630000D03*
D13*
X85050000Y-69600000D03*
D15*
X77850000Y-69300000D03*
X78850000Y-69300000D03*
X78850000Y-70100000D03*
X77850000Y-70100000D03*
X79450000Y-71000000D03*
X79450000Y-72000000D03*
X80350000Y-71000000D03*
X80350000Y-72000000D03*
D16*
X86750000Y-67150000D03*
X86750000Y-65050000D03*
D17*
X91400000Y-66980000D03*
X91400000Y-65300000D03*
D18*
X91400000Y-63230000D03*
X91400000Y-69050000D03*
D19*
X89100000Y-63680000D03*
X89100000Y-68600000D03*
D20*
X88740000Y-67440000D03*
X88740000Y-66790000D03*
X88740000Y-66140000D03*
X88740000Y-65490000D03*
X88740000Y-64840000D03*
D10*
G36*
X77426777Y-64211091D02*
X77638909Y-64423223D01*
X77440919Y-64621213D01*
X77228787Y-64409081D01*
X77426777Y-64211091D01*
X77426777Y-64211091D01*
G37*
G36*
X77059081Y-64578787D02*
X77271213Y-64790919D01*
X77073223Y-64988909D01*
X76861091Y-64776777D01*
X77059081Y-64578787D01*
X77059081Y-64578787D01*
G37*
D12*
X81450000Y-70760000D03*
X81450000Y-70240000D03*
D10*
G36*
X77126777Y-63911091D02*
X77338909Y-64123223D01*
X77140919Y-64321213D01*
X76928787Y-64109081D01*
X77126777Y-63911091D01*
X77126777Y-63911091D01*
G37*
G36*
X76759081Y-64278787D02*
X76971213Y-64490919D01*
X76773223Y-64688909D01*
X76561091Y-64476777D01*
X76759081Y-64278787D01*
X76759081Y-64278787D01*
G37*
D21*
X86847840Y-58704220D03*
X82747840Y-58704220D03*
D22*
X85797840Y-58404220D03*
X85297840Y-58404220D03*
X84797840Y-58404220D03*
X84297840Y-58404220D03*
X83797840Y-58404220D03*
X83797840Y-62004220D03*
X84297840Y-62004220D03*
X84797840Y-62004220D03*
X85297840Y-62004220D03*
X85797840Y-62004220D03*
D23*
X82047840Y-60204220D03*
X87547840Y-60204220D03*
D21*
X85450000Y-72500000D03*
X81350000Y-72500000D03*
D10*
G36*
X77638909Y-68376777D02*
X77426777Y-68588909D01*
X77228787Y-68390919D01*
X77440919Y-68178787D01*
X77638909Y-68376777D01*
X77638909Y-68376777D01*
G37*
G36*
X77271213Y-68009081D02*
X77059081Y-68221213D01*
X76861091Y-68023223D01*
X77073223Y-67811091D01*
X77271213Y-68009081D01*
X77271213Y-68009081D01*
G37*
D24*
X70850000Y-66100000D03*
X88450000Y-79100000D03*
X94850000Y-55100000D03*
D25*
X87650000Y-69700000D03*
X83450000Y-66100000D03*
X77650000Y-62500000D03*
D26*
X83550000Y-71203000D03*
X83550000Y-73235000D03*
D27*
X78727676Y-66374572D03*
X79527676Y-66374572D03*
X78727676Y-65374572D03*
X78727676Y-67374572D03*
X79527676Y-65374572D03*
X77927676Y-66374572D03*
X79527676Y-67374572D03*
X77927676Y-65374572D03*
X77927676Y-67374572D03*
D28*
X84800000Y-65350000D03*
X84800000Y-64850000D03*
X84800000Y-64350000D03*
X84800000Y-63850000D03*
X81900000Y-63850000D03*
X81900000Y-64350000D03*
X81900000Y-64850000D03*
X81900000Y-65350000D03*
D29*
X82750000Y-64600000D03*
X82750000Y-65100000D03*
X82750000Y-64100000D03*
X83950000Y-64100000D03*
X83350000Y-64600000D03*
X83950000Y-65100000D03*
X83350000Y-64100000D03*
X83350000Y-65100000D03*
X83950000Y-64600000D03*
D30*
X78650000Y-71200000D03*
X86950000Y-57300000D03*
X84650000Y-66999998D03*
X86842118Y-70300000D03*
X80450000Y-65900000D03*
X81750000Y-66900000D03*
X81355686Y-60900000D03*
X86850000Y-59900000D03*
X81250004Y-64200000D03*
X81450000Y-62600000D03*
X78513430Y-61300000D03*
X82570055Y-70398287D03*
X86750000Y-64100000D03*
X87150000Y-65900000D03*
X86750000Y-66200000D03*
X85450000Y-70500000D03*
X80950000Y-69807884D03*
X89686560Y-61500000D03*
X83050000Y-57600000D03*
X81950004Y-73300000D03*
X92350000Y-70527126D03*
X92050000Y-61300000D03*
X77050000Y-66600000D03*
X77213430Y-65880144D03*
X84948782Y-73300000D03*
X86350000Y-69100000D03*
X86650000Y-63400000D03*
X80350000Y-69807884D03*
X77250000Y-69300000D03*
X81349996Y-58200000D03*
X88771510Y-61743021D03*
X78150000Y-61700000D03*
X87192102Y-67800000D03*
X87350000Y-64500002D03*
X88750000Y-57300000D03*
X90713430Y-70527116D03*
X90667338Y-72112143D03*
X91950000Y-70900000D03*
X78550000Y-64300000D03*
X77949996Y-64300000D03*
X84649507Y-70624511D03*
X92450000Y-61700000D03*
X86650000Y-62599994D03*
X80750006Y-59100000D03*
X85350000Y-57300004D03*
X87087991Y-69137991D03*
X89132782Y-60007808D03*
X87550000Y-70999994D03*
X88250000Y-59800000D03*
X88239958Y-61000000D03*
X89850000Y-73200000D03*
X91750000Y-61752898D03*
X81982757Y-71306835D03*
X89050000Y-73700000D03*
X84814596Y-59423270D03*
X90150000Y-71400000D03*
X84314595Y-59423270D03*
X90528492Y-71043022D03*
X86750000Y-61700000D03*
X87550000Y-63200000D03*
X79550000Y-62200000D03*
X86050000Y-74536570D03*
X86050000Y-73400000D03*
X82893453Y-66743453D03*
X78750000Y-68400000D03*
X85963722Y-68263430D03*
X87350000Y-73499992D03*
X77549994Y-63400000D03*
X87023121Y-71457791D03*
X78359022Y-63696107D03*
X78430061Y-70604080D03*
X87350000Y-68300000D03*
X80450000Y-72900000D03*
D31*
X77850000Y-70100000D02*
X77850000Y-70600000D01*
X77850000Y-70600000D02*
X78450000Y-71200000D01*
X78450000Y-71200000D02*
X78650000Y-71200000D01*
X78650000Y-71487368D02*
X78650000Y-71200000D01*
X79450000Y-72000000D02*
X79111100Y-72000000D01*
X78650000Y-71538900D02*
X78650000Y-71487368D01*
X79111100Y-72000000D02*
X78650000Y-71538900D01*
X84565000Y-66914998D02*
X84650000Y-66999998D01*
X84565000Y-66550000D02*
X84565000Y-66914998D01*
X84565000Y-66050000D02*
X84565000Y-66550000D01*
X86750000Y-70207882D02*
X86842118Y-70300000D01*
X86750000Y-68460000D02*
X86750000Y-70207882D01*
X80450000Y-65900000D02*
X80450000Y-66900000D01*
X82250000Y-66900000D02*
X81750000Y-66900000D01*
D32*
X81400004Y-64350000D02*
X81250004Y-64200000D01*
X81900000Y-64350000D02*
X81400004Y-64350000D01*
D31*
X81350000Y-62500000D02*
X81450000Y-62600000D01*
X81350000Y-61960000D02*
X81350000Y-62500000D01*
D33*
X78550000Y-61300000D02*
X78513430Y-61300000D01*
X79300987Y-60549013D02*
X78550000Y-61300000D01*
X85050000Y-69600000D02*
X83650000Y-69600000D01*
X81900000Y-64350000D02*
X82700000Y-64350000D01*
X82700000Y-64350000D02*
X82750000Y-64400000D01*
X82750000Y-64100000D02*
X82750000Y-64400000D01*
X82750000Y-64400000D02*
X82750000Y-64600000D01*
D34*
X83580000Y-68630000D02*
X83580000Y-69900000D01*
X83580000Y-69900000D02*
X83580000Y-70084000D01*
D31*
X77043828Y-65710542D02*
X77043828Y-65206172D01*
X77043828Y-65206172D02*
X77266152Y-64983848D01*
X77927676Y-66374572D02*
X77424572Y-66374572D01*
X77424572Y-66374572D02*
X77250000Y-66200000D01*
X77250000Y-66200000D02*
X77250000Y-65916714D01*
X77250000Y-65916714D02*
X77213430Y-65880144D01*
D34*
X83265713Y-70398287D02*
X82857423Y-70398287D01*
X82857423Y-70398287D02*
X82570055Y-70398287D01*
X83580000Y-70084000D02*
X83265713Y-70398287D01*
X83550000Y-74225000D02*
X84325000Y-74225000D01*
X84325000Y-74225000D02*
X84948782Y-73601218D01*
X84948782Y-73601218D02*
X84948782Y-73300000D01*
X83550000Y-74225000D02*
X82575000Y-74225000D01*
X82575000Y-74225000D02*
X81950000Y-73600000D01*
X81950000Y-73600000D02*
X81950000Y-73300004D01*
X81950000Y-73300004D02*
X81950004Y-73300000D01*
X86750044Y-64100000D02*
X86750000Y-64100000D01*
X86800022Y-64149978D02*
X86750044Y-64100000D01*
D35*
X86750000Y-65050000D02*
X86750000Y-64100000D01*
X86750000Y-65050000D02*
X86750000Y-66200000D01*
D33*
X85050000Y-69600000D02*
X85550000Y-69600000D01*
X85550000Y-69600000D02*
X85750000Y-69800000D01*
X85750000Y-70300000D02*
X85550000Y-70500000D01*
X85750000Y-69800000D02*
X85750000Y-70300000D01*
X85550000Y-70500000D02*
X85450000Y-70500000D01*
D32*
X86150000Y-64888900D02*
X86150000Y-64560000D01*
X82410000Y-66350000D02*
X82410000Y-66740000D01*
X82410000Y-66740000D02*
X82250000Y-66900000D01*
D31*
X80910000Y-70400000D02*
X80910000Y-70660000D01*
X80910000Y-70660000D02*
X81010000Y-70760000D01*
X81010000Y-70760000D02*
X81450000Y-70760000D01*
X80910000Y-69847884D02*
X80950000Y-69807884D01*
X80910000Y-70400000D02*
X80910000Y-69847884D01*
X86150000Y-64888900D02*
X86311100Y-65050000D01*
X86311100Y-65050000D02*
X86750000Y-65050000D01*
D33*
X82750000Y-65100000D02*
X82750000Y-64600000D01*
X83350000Y-65100000D02*
X82750000Y-65100000D01*
X83350000Y-64600000D02*
X83350000Y-65100000D01*
X83350000Y-64100000D02*
X83350000Y-64600000D01*
X83350000Y-65100000D02*
X83950000Y-65100000D01*
X83950000Y-64600000D02*
X83950000Y-65100000D01*
X83950000Y-64100000D02*
X83950000Y-64600000D01*
X83350000Y-64100000D02*
X83950000Y-64100000D01*
X82750000Y-64100000D02*
X83350000Y-64100000D01*
X83050000Y-58009580D02*
X83050000Y-57887368D01*
X83444640Y-58404220D02*
X83050000Y-58009580D01*
X83050000Y-57887368D02*
X83050000Y-57600000D01*
X83797840Y-58404220D02*
X83444640Y-58404220D01*
D35*
X88740000Y-64840000D02*
X87745200Y-64840000D01*
X87745200Y-64840000D02*
X87535200Y-65050000D01*
X87535200Y-65050000D02*
X86750000Y-65050000D01*
D31*
X77253199Y-66396801D02*
X77050000Y-66600000D01*
X77927676Y-66374572D02*
X77275428Y-66374572D01*
X77275428Y-66374572D02*
X77253199Y-66396801D01*
X77050000Y-66887368D02*
X77050000Y-66600000D01*
X77050000Y-67700000D02*
X77050000Y-66887368D01*
X76950000Y-67800000D02*
X77050000Y-67700000D01*
X77043828Y-65710542D02*
X77213430Y-65880144D01*
D34*
X83550000Y-73282000D02*
X83550000Y-74225000D01*
D33*
X84930782Y-73282000D02*
X84948782Y-73300000D01*
D35*
X88740000Y-64840000D02*
X88730000Y-64850000D01*
D31*
X77327676Y-66374572D02*
X77227676Y-66374572D01*
X78727676Y-66374572D02*
X77927676Y-66374572D01*
X78727676Y-66374572D02*
X78711511Y-66374572D01*
X77715544Y-66374572D02*
X77327676Y-66374572D01*
X77927676Y-66374572D02*
X77715544Y-66374572D01*
X83550000Y-71203000D02*
X82547000Y-71203000D01*
X82350000Y-71800000D02*
X81150000Y-71800000D01*
X82547000Y-71203000D02*
X82450000Y-71300000D01*
X82450000Y-71300000D02*
X82450000Y-71700000D01*
X82450000Y-71700000D02*
X82350000Y-71800000D01*
X81150000Y-71800000D02*
X80988900Y-71638900D01*
X80988900Y-71638900D02*
X80988900Y-71138900D01*
X80988900Y-71138900D02*
X80850000Y-71000000D01*
X80850000Y-71000000D02*
X80350000Y-71000000D01*
D34*
X85600000Y-71250000D02*
X86350000Y-70500000D01*
D33*
X86200000Y-68950000D02*
X86350000Y-69100000D01*
X85050000Y-68950000D02*
X86200000Y-68950000D01*
D34*
X83550000Y-71250000D02*
X85600000Y-71250000D01*
X86350000Y-69387368D02*
X86350000Y-69100000D01*
X86350000Y-70500000D02*
X86350000Y-69387368D01*
D33*
X85796800Y-64040000D02*
X85796800Y-64153200D01*
X85796800Y-64153200D02*
X85600000Y-64350000D01*
X85600000Y-64350000D02*
X84800000Y-64350000D01*
X84800000Y-63850000D02*
X85606800Y-63850000D01*
X85606800Y-63850000D02*
X85796800Y-64040000D01*
X86150000Y-64040000D02*
X86150000Y-63700000D01*
X86450000Y-63400000D02*
X86650000Y-63400000D01*
X86150000Y-63700000D02*
X86450000Y-63400000D01*
X86150000Y-64040000D02*
X85796800Y-64040000D01*
D31*
X80390000Y-70400000D02*
X80390000Y-70960000D01*
X80390000Y-70960000D02*
X80350000Y-71000000D01*
X80390000Y-70400000D02*
X80390000Y-69847884D01*
X80390000Y-69847884D02*
X80350000Y-69807884D01*
X77850000Y-69300000D02*
X77250000Y-69300000D01*
X80350000Y-70440000D02*
X80390000Y-70400000D01*
X76950000Y-63200000D02*
X76950000Y-63932304D01*
X76950000Y-63932304D02*
X77133848Y-64116152D01*
X77650000Y-62500000D02*
X76950000Y-63200000D01*
X80750000Y-62200000D02*
X80750000Y-61960000D01*
X80650000Y-62300000D02*
X80750000Y-62200000D01*
X80250000Y-62300000D02*
X80650000Y-62300000D01*
X78700000Y-61850000D02*
X78850000Y-61700000D01*
X80150000Y-61800000D02*
X80150000Y-62200000D01*
X80050000Y-61700000D02*
X80150000Y-61800000D01*
X78550000Y-61700000D02*
X78150000Y-61700000D01*
X80150000Y-62200000D02*
X80250000Y-62300000D01*
X78700000Y-61850000D02*
X78550000Y-61700000D01*
X78850000Y-61700000D02*
X80050000Y-61700000D01*
X77633848Y-64616152D02*
X77633848Y-64680744D01*
X77633848Y-64680744D02*
X77727676Y-64774572D01*
X85797840Y-62004220D02*
X85797840Y-62947840D01*
X85797840Y-62947840D02*
X85950000Y-63100000D01*
X85950000Y-63100000D02*
X86450000Y-63100000D01*
X86450000Y-63100000D02*
X86650000Y-62900000D01*
X86650000Y-62900000D02*
X86650000Y-62599994D01*
X78346801Y-64503199D02*
X78550000Y-64300000D01*
X78175428Y-64674572D02*
X78346801Y-64503199D01*
X77927676Y-64674572D02*
X78175428Y-64674572D01*
X77927676Y-64674572D02*
X77949996Y-64652252D01*
X77949996Y-64587368D02*
X77949996Y-64300000D01*
X77949996Y-64652252D02*
X77949996Y-64587368D01*
X78700000Y-62390000D02*
X78700000Y-61850000D01*
X77727676Y-65374572D02*
X77727676Y-64774572D01*
X77927676Y-65374572D02*
X77727676Y-65374572D01*
X78127676Y-65374572D02*
X78127676Y-64774572D01*
X77927676Y-65374572D02*
X78127676Y-65374572D01*
X77927676Y-65374572D02*
X77927676Y-64674572D01*
D33*
X80750000Y-59100000D02*
X80750006Y-59100000D01*
X80199013Y-59650987D02*
X80750000Y-59100000D01*
D31*
X80199013Y-59650987D02*
X80750000Y-60201974D01*
X80750000Y-60201974D02*
X80750000Y-60900000D01*
X80750000Y-60900000D02*
X80750000Y-61440000D01*
X80750000Y-61440000D02*
X81350000Y-61440000D01*
X85350000Y-57300000D02*
X85350000Y-57300004D01*
X85295680Y-57354324D02*
X85350000Y-57300004D01*
X85295680Y-58403360D02*
X85295680Y-57354324D01*
X86650000Y-61100000D02*
X86787571Y-61237571D01*
X86787571Y-61237571D02*
X88054521Y-61237571D01*
X86350000Y-60400000D02*
X86650000Y-60700000D01*
X86650000Y-60700000D02*
X86650000Y-61100000D01*
X83797840Y-60652160D02*
X84050000Y-60400000D01*
X88054521Y-61237571D02*
X88239958Y-61052134D01*
X83797840Y-62004220D02*
X83797840Y-60652160D01*
X84050000Y-60400000D02*
X86350000Y-60400000D01*
X88239958Y-61052134D02*
X88239958Y-61000000D01*
X84797840Y-59406514D02*
X84814596Y-59423270D01*
X84797840Y-58404220D02*
X84797840Y-59406514D01*
X84297840Y-59406515D02*
X84314595Y-59423270D01*
X84297840Y-58404220D02*
X84297840Y-59406515D01*
X84300000Y-62000000D02*
X84300000Y-60850000D01*
X84300000Y-60850000D02*
X84550000Y-60600000D01*
X84550000Y-60600000D02*
X86150000Y-60600000D01*
X86150000Y-60600000D02*
X86450000Y-60900000D01*
X86450000Y-60900000D02*
X86450000Y-61400000D01*
X86450000Y-61400000D02*
X86546801Y-61496801D01*
X86546801Y-61496801D02*
X86750000Y-61700000D01*
X84797840Y-62004220D02*
X84797840Y-61052160D01*
X84797840Y-61052160D02*
X85050000Y-60800000D01*
X85050000Y-60800000D02*
X85975676Y-60800000D01*
X85975676Y-60800000D02*
X86187871Y-61012195D01*
X86187871Y-61937871D02*
X86350000Y-62100000D01*
X86187871Y-61012195D02*
X86187871Y-61937871D01*
X86350000Y-62100000D02*
X87350000Y-62100000D01*
X87350000Y-62100000D02*
X87550000Y-62300000D01*
X87550000Y-62300000D02*
X87550000Y-63200000D01*
X85297840Y-62004220D02*
X85297840Y-63052160D01*
X85297840Y-63052160D02*
X85050000Y-63300000D01*
X80050000Y-63300000D02*
X79750000Y-63000000D01*
X85050000Y-63300000D02*
X80050000Y-63300000D01*
X79750000Y-63000000D02*
X79750000Y-62300000D01*
X79750000Y-62300000D02*
X79650000Y-62200000D01*
X79650000Y-62200000D02*
X79550000Y-62200000D01*
X79850000Y-69060000D02*
X80790000Y-69060000D01*
X80790000Y-69060000D02*
X81050000Y-68800000D01*
X81050000Y-68800000D02*
X81050000Y-67800000D01*
X81050000Y-67800000D02*
X81220000Y-67630000D01*
X81220000Y-67630000D02*
X81780000Y-67630000D01*
D32*
X81900000Y-65350000D02*
X81400000Y-65350000D01*
X81400000Y-65350000D02*
X81300000Y-65450000D01*
X81300000Y-66250000D02*
X81400000Y-66350000D01*
X81300000Y-65450000D02*
X81300000Y-66250000D01*
X81400000Y-66350000D02*
X81890000Y-66350000D01*
D31*
X81550000Y-69600000D02*
X81450000Y-69700000D01*
X81450000Y-69700000D02*
X81450000Y-70240000D01*
X82110000Y-69600000D02*
X81550000Y-69600000D01*
X78927676Y-65374572D02*
X78927676Y-64774572D01*
X78727676Y-65374572D02*
X78927676Y-65374572D01*
X78727676Y-65374572D02*
X78727676Y-64874572D01*
X87745200Y-67440000D02*
X87745200Y-69270232D01*
X87745200Y-69270232D02*
X87650000Y-69365432D01*
X87650000Y-69365432D02*
X87650000Y-69700000D01*
D35*
X87745200Y-67440000D02*
X87455200Y-67150000D01*
X88740000Y-67440000D02*
X87745200Y-67440000D01*
X87455200Y-67150000D02*
X86750000Y-67150000D01*
D33*
X85850000Y-67100000D02*
X85850000Y-67500000D01*
X85850000Y-67500000D02*
X85690000Y-67660000D01*
X85690000Y-67660000D02*
X85050000Y-67660000D01*
X86750000Y-67940000D02*
X86750000Y-67150000D01*
X85850000Y-66950000D02*
X85850000Y-67100000D01*
X86750000Y-67150000D02*
X85900000Y-67150000D01*
X85900000Y-67150000D02*
X85850000Y-67100000D01*
X85850000Y-66475000D02*
X85850000Y-66575000D01*
X85850000Y-66575000D02*
X85850000Y-66750000D01*
D32*
X85085000Y-66550000D02*
X85825000Y-66550000D01*
X85825000Y-66550000D02*
X85850000Y-66575000D01*
D33*
X85850000Y-66300000D02*
X85850000Y-66050000D01*
X85850000Y-66050000D02*
X85850000Y-65925000D01*
D32*
X85085000Y-66050000D02*
X85326600Y-66050000D01*
X85326600Y-66050000D02*
X85850000Y-66050000D01*
D33*
X85850000Y-66300000D02*
X85850000Y-66475000D01*
X85850000Y-65925000D02*
X85850000Y-65300000D01*
D32*
X85800000Y-66300000D02*
X85850000Y-66300000D01*
D33*
X85850000Y-65300000D02*
X85850000Y-65025000D01*
X84800000Y-65350000D02*
X85800000Y-65350000D01*
X85800000Y-65350000D02*
X85850000Y-65300000D01*
X85850000Y-65025000D02*
X85675000Y-64850000D01*
X85675000Y-64850000D02*
X84800000Y-64850000D01*
X85850000Y-66750000D02*
X85850000Y-66950000D01*
D31*
X83450000Y-66100000D02*
X83450000Y-66186906D01*
X83450000Y-66186906D02*
X82893453Y-66743453D01*
D32*
X79527676Y-67374572D02*
X79527676Y-68022324D01*
X79527676Y-68022324D02*
X79450000Y-68100000D01*
X79450000Y-68100000D02*
X79450000Y-68200000D01*
X79527676Y-66374572D02*
X79527676Y-67374572D01*
X79527676Y-65374572D02*
X79527676Y-66374572D01*
D31*
X79450000Y-68300000D02*
X79450000Y-68500000D01*
X78850000Y-68300000D02*
X78750000Y-68400000D01*
X79450000Y-68200000D02*
X79450000Y-68300000D01*
X79450000Y-68300000D02*
X78850000Y-68300000D01*
X78927676Y-68074572D02*
X79324572Y-68074572D01*
X79324572Y-68074572D02*
X79450000Y-68200000D01*
X79450000Y-68500000D02*
X79490000Y-68540000D01*
X79490000Y-68540000D02*
X79850000Y-68540000D01*
D33*
X85050000Y-68310000D02*
X85917152Y-68310000D01*
X85917152Y-68310000D02*
X85963722Y-68263430D01*
X85070216Y-68289784D02*
X85050000Y-68310000D01*
D34*
X85947152Y-68280000D02*
X85963722Y-68263430D01*
D31*
X78927676Y-68074572D02*
X78725000Y-68074572D01*
X78725000Y-68074572D02*
X78527676Y-68074572D01*
D32*
X78727676Y-68077248D02*
X78725000Y-68074572D01*
D31*
X78727676Y-67974572D02*
X78727676Y-67374572D01*
X77927676Y-68074572D02*
X77927676Y-68322324D01*
X77927676Y-68322324D02*
X77850000Y-68400000D01*
X77550000Y-68400000D02*
X77433848Y-68283848D01*
X77850000Y-68400000D02*
X77550000Y-68400000D01*
X78927676Y-67374572D02*
X78927676Y-68074572D01*
X78727676Y-67374572D02*
X78927676Y-67374572D01*
X78527676Y-67374572D02*
X78527676Y-68050308D01*
X78727676Y-67374572D02*
X78527676Y-67374572D01*
X77927676Y-68074572D02*
X78127676Y-68074572D01*
X77727676Y-68074572D02*
X77927676Y-68074572D01*
X78527676Y-68074572D02*
X78127676Y-68074572D01*
X77927676Y-67374572D02*
X77927676Y-68074572D01*
X78127676Y-67374572D02*
X78127676Y-68074572D01*
X77927676Y-67374572D02*
X78127676Y-67374572D01*
X77727676Y-67374572D02*
X77727676Y-68074572D01*
X77927676Y-67374572D02*
X77727676Y-67374572D01*
X78650000Y-63300000D02*
X79550000Y-63300000D01*
X79550000Y-63300000D02*
X79850000Y-63600000D01*
X81200000Y-63850000D02*
X81900000Y-63850000D01*
X79850000Y-63600000D02*
X80950000Y-63600000D01*
X80950000Y-63600000D02*
X81200000Y-63850000D01*
X78650000Y-63300000D02*
X77649994Y-63300000D01*
X77649994Y-63300000D02*
X77549994Y-63400000D01*
X78700000Y-62910000D02*
X78700000Y-63250000D01*
X78700000Y-63250000D02*
X78650000Y-63300000D01*
X79250000Y-69700000D02*
X79700440Y-69700000D01*
X79700440Y-69700000D02*
X80114802Y-69285638D01*
X81250000Y-69000000D02*
X81250000Y-68400000D01*
X80114802Y-69285638D02*
X80964362Y-69285638D01*
X80964362Y-69285638D02*
X81250000Y-69000000D01*
X81250000Y-68400000D02*
X81340000Y-68310000D01*
X81340000Y-68310000D02*
X81540000Y-68310000D01*
X81540000Y-68310000D02*
X82110000Y-68310000D01*
X79250000Y-69361100D02*
X79250000Y-69700000D01*
X79250000Y-69700000D02*
X79250000Y-70000000D01*
X79150000Y-70100000D02*
X78850000Y-70100000D01*
X79250000Y-70000000D02*
X79150000Y-70100000D01*
X78850000Y-69300000D02*
X79188900Y-69300000D01*
X79188900Y-69300000D02*
X79250000Y-69361100D01*
X79450000Y-71000000D02*
X79850000Y-71000000D01*
X80350000Y-71600000D02*
X80350000Y-72000000D01*
X79850000Y-71000000D02*
X79950000Y-71100000D01*
X80250000Y-71500000D02*
X80350000Y-71600000D01*
X79950000Y-71100000D02*
X79950000Y-71400000D01*
X79950000Y-71400000D02*
X80050000Y-71500000D01*
X80050000Y-71500000D02*
X80250000Y-71500000D01*
X79450000Y-71000000D02*
X79450000Y-70201901D01*
X79450000Y-70201901D02*
X80188454Y-69463448D01*
X80188454Y-69463448D02*
X81186552Y-69463448D01*
X81186552Y-69463448D02*
X81450000Y-69200000D01*
X81500000Y-68950000D02*
X82110000Y-68950000D01*
X81450000Y-69200000D02*
X81450000Y-69000000D01*
X81450000Y-69000000D02*
X81500000Y-68950000D01*
D32*
G36*
X76942470Y-63906813D02*
X77133848Y-64098191D01*
X77318155Y-63913884D01*
X77318155Y-63851022D01*
X77317933Y-63850800D01*
X78037795Y-63850800D01*
X78041215Y-63859438D01*
X78078992Y-63918056D01*
X78127435Y-63968221D01*
X78184699Y-64008020D01*
X78248604Y-64035939D01*
X78316714Y-64050914D01*
X78386435Y-64052375D01*
X78455113Y-64040265D01*
X78520130Y-64015047D01*
X78579011Y-63977680D01*
X78629512Y-63929588D01*
X78669711Y-63872603D01*
X78679418Y-63850800D01*
X79139451Y-63850800D01*
X78304332Y-64823772D01*
X77747369Y-64823772D01*
X77612693Y-64700886D01*
X77625226Y-64688353D01*
X77625226Y-64625491D01*
X77433848Y-64434113D01*
X77419706Y-64448255D01*
X77401745Y-64430294D01*
X77415887Y-64416152D01*
X77451809Y-64416152D01*
X77643187Y-64607530D01*
X77706049Y-64607530D01*
X77777015Y-64536564D01*
X77796474Y-64507442D01*
X77809876Y-64475085D01*
X77816709Y-64440735D01*
X77816709Y-64405712D01*
X77809876Y-64371361D01*
X77796473Y-64339003D01*
X77777015Y-64309882D01*
X77698978Y-64231845D01*
X77636116Y-64231845D01*
X77451809Y-64416152D01*
X77415887Y-64416152D01*
X77133848Y-64134113D01*
X77119706Y-64148255D01*
X77101745Y-64130294D01*
X77115887Y-64116152D01*
X77151809Y-64116152D01*
X77433848Y-64398191D01*
X77618155Y-64213884D01*
X77618155Y-64151022D01*
X77540118Y-64072985D01*
X77510997Y-64053527D01*
X77500727Y-64049273D01*
X77496473Y-64039003D01*
X77477015Y-64009882D01*
X77398978Y-63931845D01*
X77336116Y-63931845D01*
X77151809Y-64116152D01*
X77115887Y-64116152D01*
X76924509Y-63924774D01*
X76861647Y-63924774D01*
X76814159Y-63972262D01*
X76681042Y-63850800D01*
X76942470Y-63850800D01*
X76942470Y-63906813D01*
X76942470Y-63906813D01*
G37*
X76942470Y-63906813D02*
X77133848Y-64098191D01*
X77318155Y-63913884D01*
X77318155Y-63851022D01*
X77317933Y-63850800D01*
X78037795Y-63850800D01*
X78041215Y-63859438D01*
X78078992Y-63918056D01*
X78127435Y-63968221D01*
X78184699Y-64008020D01*
X78248604Y-64035939D01*
X78316714Y-64050914D01*
X78386435Y-64052375D01*
X78455113Y-64040265D01*
X78520130Y-64015047D01*
X78579011Y-63977680D01*
X78629512Y-63929588D01*
X78669711Y-63872603D01*
X78679418Y-63850800D01*
X79139451Y-63850800D01*
X78304332Y-64823772D01*
X77747369Y-64823772D01*
X77612693Y-64700886D01*
X77625226Y-64688353D01*
X77625226Y-64625491D01*
X77433848Y-64434113D01*
X77419706Y-64448255D01*
X77401745Y-64430294D01*
X77415887Y-64416152D01*
X77451809Y-64416152D01*
X77643187Y-64607530D01*
X77706049Y-64607530D01*
X77777015Y-64536564D01*
X77796474Y-64507442D01*
X77809876Y-64475085D01*
X77816709Y-64440735D01*
X77816709Y-64405712D01*
X77809876Y-64371361D01*
X77796473Y-64339003D01*
X77777015Y-64309882D01*
X77698978Y-64231845D01*
X77636116Y-64231845D01*
X77451809Y-64416152D01*
X77415887Y-64416152D01*
X77133848Y-64134113D01*
X77119706Y-64148255D01*
X77101745Y-64130294D01*
X77115887Y-64116152D01*
X77151809Y-64116152D01*
X77433848Y-64398191D01*
X77618155Y-64213884D01*
X77618155Y-64151022D01*
X77540118Y-64072985D01*
X77510997Y-64053527D01*
X77500727Y-64049273D01*
X77496473Y-64039003D01*
X77477015Y-64009882D01*
X77398978Y-63931845D01*
X77336116Y-63931845D01*
X77151809Y-64116152D01*
X77115887Y-64116152D01*
X76924509Y-63924774D01*
X76861647Y-63924774D01*
X76814159Y-63972262D01*
X76681042Y-63850800D01*
X76942470Y-63850800D01*
X76942470Y-63906813D01*
G36*
X76798255Y-64469706D02*
X76784113Y-64483848D01*
X77066152Y-64765887D01*
X77080294Y-64751745D01*
X77098255Y-64769706D01*
X77084113Y-64783848D01*
X77275491Y-64975226D01*
X77338353Y-64975226D01*
X77354195Y-64959384D01*
X77476876Y-65094223D01*
X77476876Y-67652708D01*
X77295096Y-67824774D01*
X77275491Y-67824774D01*
X77084113Y-68016152D01*
X77088392Y-68020431D01*
X77069938Y-68037899D01*
X77066152Y-68034113D01*
X77052010Y-68048255D01*
X77034049Y-68030294D01*
X77048191Y-68016152D01*
X76863884Y-67831845D01*
X76801022Y-67831845D01*
X76747473Y-67885394D01*
X76714619Y-67751022D01*
X76881845Y-67751022D01*
X76881845Y-67813884D01*
X77066152Y-67998191D01*
X77257530Y-67806813D01*
X77257530Y-67743951D01*
X77173938Y-67660359D01*
X77108589Y-67633291D01*
X77037856Y-67633291D01*
X76972507Y-67660360D01*
X76881845Y-67751022D01*
X76714619Y-67751022D01*
X76600800Y-67285518D01*
X76600800Y-64986116D01*
X76881845Y-64986116D01*
X76881845Y-65048978D01*
X76972507Y-65139640D01*
X77037856Y-65166709D01*
X77108589Y-65166709D01*
X77173938Y-65139641D01*
X77257530Y-65056049D01*
X77257530Y-64993187D01*
X77066152Y-64801809D01*
X76881845Y-64986116D01*
X76600800Y-64986116D01*
X76600800Y-64767933D01*
X76672507Y-64839640D01*
X76699273Y-64850727D01*
X76710360Y-64877493D01*
X76801022Y-64968155D01*
X76863884Y-64968155D01*
X77048191Y-64783848D01*
X76766152Y-64501809D01*
X76752010Y-64515951D01*
X76734049Y-64497990D01*
X76748191Y-64483848D01*
X76734049Y-64469706D01*
X76752010Y-64451745D01*
X76766152Y-64465887D01*
X76780294Y-64451745D01*
X76798255Y-64469706D01*
X76798255Y-64469706D01*
G37*
X76798255Y-64469706D02*
X76784113Y-64483848D01*
X77066152Y-64765887D01*
X77080294Y-64751745D01*
X77098255Y-64769706D01*
X77084113Y-64783848D01*
X77275491Y-64975226D01*
X77338353Y-64975226D01*
X77354195Y-64959384D01*
X77476876Y-65094223D01*
X77476876Y-67652708D01*
X77295096Y-67824774D01*
X77275491Y-67824774D01*
X77084113Y-68016152D01*
X77088392Y-68020431D01*
X77069938Y-68037899D01*
X77066152Y-68034113D01*
X77052010Y-68048255D01*
X77034049Y-68030294D01*
X77048191Y-68016152D01*
X76863884Y-67831845D01*
X76801022Y-67831845D01*
X76747473Y-67885394D01*
X76714619Y-67751022D01*
X76881845Y-67751022D01*
X76881845Y-67813884D01*
X77066152Y-67998191D01*
X77257530Y-67806813D01*
X77257530Y-67743951D01*
X77173938Y-67660359D01*
X77108589Y-67633291D01*
X77037856Y-67633291D01*
X76972507Y-67660360D01*
X76881845Y-67751022D01*
X76714619Y-67751022D01*
X76600800Y-67285518D01*
X76600800Y-64986116D01*
X76881845Y-64986116D01*
X76881845Y-65048978D01*
X76972507Y-65139640D01*
X77037856Y-65166709D01*
X77108589Y-65166709D01*
X77173938Y-65139641D01*
X77257530Y-65056049D01*
X77257530Y-64993187D01*
X77066152Y-64801809D01*
X76881845Y-64986116D01*
X76600800Y-64986116D01*
X76600800Y-64767933D01*
X76672507Y-64839640D01*
X76699273Y-64850727D01*
X76710360Y-64877493D01*
X76801022Y-64968155D01*
X76863884Y-64968155D01*
X77048191Y-64783848D01*
X76766152Y-64501809D01*
X76752010Y-64515951D01*
X76734049Y-64497990D01*
X76748191Y-64483848D01*
X76734049Y-64469706D01*
X76752010Y-64451745D01*
X76766152Y-64465887D01*
X76780294Y-64451745D01*
X76798255Y-64469706D01*
G36*
X80594062Y-68623772D02*
X80177800Y-68623772D01*
X80177800Y-68597150D01*
X80133350Y-68552700D01*
X79862700Y-68552700D01*
X79862700Y-68572700D01*
X79837300Y-68572700D01*
X79837300Y-68552700D01*
X79566650Y-68552700D01*
X79522200Y-68597150D01*
X79522200Y-68623772D01*
X77618155Y-68623772D01*
X77618155Y-68586116D01*
X77433848Y-68401809D01*
X77242470Y-68593187D01*
X77242470Y-68623772D01*
X77050318Y-68623772D01*
X77130256Y-68543835D01*
X77161647Y-68575226D01*
X77224509Y-68575226D01*
X77415887Y-68383848D01*
X77451809Y-68383848D01*
X77636116Y-68568155D01*
X77698978Y-68568155D01*
X77777015Y-68490118D01*
X77796473Y-68460997D01*
X77809876Y-68428639D01*
X77816709Y-68394288D01*
X77816709Y-68382488D01*
X79522200Y-68382488D01*
X79522200Y-68482850D01*
X79566650Y-68527300D01*
X79837300Y-68527300D01*
X79837300Y-68266650D01*
X79862700Y-68266650D01*
X79862700Y-68527300D01*
X80133350Y-68527300D01*
X80177800Y-68482850D01*
X80177800Y-68382488D01*
X80170967Y-68348137D01*
X80157564Y-68315780D01*
X80138106Y-68286659D01*
X80113341Y-68261894D01*
X80084220Y-68242436D01*
X80051862Y-68229033D01*
X80017512Y-68222200D01*
X79907150Y-68222200D01*
X79862700Y-68266650D01*
X79837300Y-68266650D01*
X79792850Y-68222200D01*
X79682488Y-68222200D01*
X79648138Y-68229033D01*
X79615780Y-68242436D01*
X79586659Y-68261894D01*
X79561894Y-68286659D01*
X79542436Y-68315780D01*
X79529033Y-68348137D01*
X79522200Y-68382488D01*
X77816709Y-68382488D01*
X77816709Y-68359265D01*
X77809876Y-68324915D01*
X77796474Y-68292558D01*
X77777015Y-68263436D01*
X77706049Y-68192470D01*
X77643187Y-68192470D01*
X77451809Y-68383848D01*
X77415887Y-68383848D01*
X77401745Y-68369706D01*
X77419706Y-68351745D01*
X77433848Y-68365887D01*
X77625226Y-68174509D01*
X77625226Y-68111647D01*
X77593835Y-68080256D01*
X77748718Y-67925372D01*
X79808362Y-67925372D01*
X80594062Y-68623772D01*
X80594062Y-68623772D01*
G37*
X80594062Y-68623772D02*
X80177800Y-68623772D01*
X80177800Y-68597150D01*
X80133350Y-68552700D01*
X79862700Y-68552700D01*
X79862700Y-68572700D01*
X79837300Y-68572700D01*
X79837300Y-68552700D01*
X79566650Y-68552700D01*
X79522200Y-68597150D01*
X79522200Y-68623772D01*
X77618155Y-68623772D01*
X77618155Y-68586116D01*
X77433848Y-68401809D01*
X77242470Y-68593187D01*
X77242470Y-68623772D01*
X77050318Y-68623772D01*
X77130256Y-68543835D01*
X77161647Y-68575226D01*
X77224509Y-68575226D01*
X77415887Y-68383848D01*
X77451809Y-68383848D01*
X77636116Y-68568155D01*
X77698978Y-68568155D01*
X77777015Y-68490118D01*
X77796473Y-68460997D01*
X77809876Y-68428639D01*
X77816709Y-68394288D01*
X77816709Y-68382488D01*
X79522200Y-68382488D01*
X79522200Y-68482850D01*
X79566650Y-68527300D01*
X79837300Y-68527300D01*
X79837300Y-68266650D01*
X79862700Y-68266650D01*
X79862700Y-68527300D01*
X80133350Y-68527300D01*
X80177800Y-68482850D01*
X80177800Y-68382488D01*
X80170967Y-68348137D01*
X80157564Y-68315780D01*
X80138106Y-68286659D01*
X80113341Y-68261894D01*
X80084220Y-68242436D01*
X80051862Y-68229033D01*
X80017512Y-68222200D01*
X79907150Y-68222200D01*
X79862700Y-68266650D01*
X79837300Y-68266650D01*
X79792850Y-68222200D01*
X79682488Y-68222200D01*
X79648138Y-68229033D01*
X79615780Y-68242436D01*
X79586659Y-68261894D01*
X79561894Y-68286659D01*
X79542436Y-68315780D01*
X79529033Y-68348137D01*
X79522200Y-68382488D01*
X77816709Y-68382488D01*
X77816709Y-68359265D01*
X77809876Y-68324915D01*
X77796474Y-68292558D01*
X77777015Y-68263436D01*
X77706049Y-68192470D01*
X77643187Y-68192470D01*
X77451809Y-68383848D01*
X77415887Y-68383848D01*
X77401745Y-68369706D01*
X77419706Y-68351745D01*
X77433848Y-68365887D01*
X77625226Y-68174509D01*
X77625226Y-68111647D01*
X77593835Y-68080256D01*
X77748718Y-67925372D01*
X79808362Y-67925372D01*
X80594062Y-68623772D01*
G36*
X80799200Y-68486876D02*
X80000800Y-67777188D01*
X80000800Y-65550800D01*
X80799200Y-65550800D01*
X80799200Y-68486876D01*
X80799200Y-68486876D01*
G37*
X80799200Y-68486876D02*
X80000800Y-67777188D01*
X80000800Y-65550800D01*
X80799200Y-65550800D01*
X80799200Y-68486876D01*
G36*
X80799200Y-65249200D02*
X80000800Y-65249200D01*
X80000800Y-64900000D01*
X79998789Y-64885847D01*
X79992914Y-64872816D01*
X79983642Y-64861936D01*
X79971706Y-64854071D01*
X79958051Y-64849842D01*
X79950000Y-64849200D01*
X78657200Y-64849200D01*
X79474073Y-63850800D01*
X80799200Y-63850800D01*
X80799200Y-65249200D01*
X80799200Y-65249200D01*
G37*
X80799200Y-65249200D02*
X80000800Y-65249200D01*
X80000800Y-64900000D01*
X79998789Y-64885847D01*
X79992914Y-64872816D01*
X79983642Y-64861936D01*
X79971706Y-64854071D01*
X79958051Y-64849842D01*
X79950000Y-64849200D01*
X78657200Y-64849200D01*
X79474073Y-63850800D01*
X80799200Y-63850800D01*
X80799200Y-65249200D01*
M02*
