G04 #@! TF.FileFunction,Copper,L3,Inr,Plane*
%FSLAX46Y46*%
G04 Gerber Fmt 4.6, Leading zero omitted, Abs format (unit mm)*
G04 Created by KiCad (PCBNEW 4.0.2+dfsg1-2~bpo8+1-stable) date jue 23 mar 2017 16:55:10 ART*
%MOMM*%
G01*
G04 APERTURE LIST*
%ADD10C,0.100000*%
%ADD11C,0.600000*%
%ADD12C,0.406400*%
%ADD13C,0.203200*%
%ADD14C,0.088900*%
%ADD15C,0.254000*%
%ADD16C,0.101600*%
G04 APERTURE END LIST*
D10*
D11*
X86847840Y-58704220D03*
X82747840Y-58704220D03*
X85450000Y-72500000D03*
X81350000Y-72500000D03*
D12*
X78650000Y-71200000D03*
X86950000Y-57300000D03*
X84650000Y-66999998D03*
X86842118Y-70300000D03*
X80450000Y-65900000D03*
X81750000Y-66900000D03*
X81355686Y-60900000D03*
X86850000Y-59900000D03*
X81250004Y-64200000D03*
X81450000Y-62600000D03*
X78513430Y-61300000D03*
X82570055Y-70398287D03*
X86750000Y-64100000D03*
X87150000Y-65900000D03*
X86750000Y-66200000D03*
X85450000Y-70500000D03*
X80950000Y-69807884D03*
X89686560Y-61500000D03*
X83050000Y-57600000D03*
X81950004Y-73300000D03*
X92350000Y-70527126D03*
X92050000Y-61300000D03*
X77050000Y-66600000D03*
X77213430Y-65880144D03*
X84948782Y-73300000D03*
X86350000Y-69100000D03*
X86650000Y-63400000D03*
X80350000Y-69807884D03*
X77250000Y-69300000D03*
X81349996Y-58200000D03*
X88771510Y-61743021D03*
X78150000Y-61700000D03*
X87192102Y-67800000D03*
X87350000Y-64500002D03*
X88750000Y-57300000D03*
X90713430Y-70527116D03*
X90667338Y-72112143D03*
X91950000Y-70900000D03*
X78550000Y-64300000D03*
X77949996Y-64300000D03*
X84649507Y-70624511D03*
X92450000Y-61700000D03*
X86650000Y-62599994D03*
X80750006Y-59100000D03*
X85350000Y-57300004D03*
X87087991Y-69137991D03*
X89132782Y-60007808D03*
X87550000Y-70999994D03*
X88250000Y-59800000D03*
X88239958Y-61000000D03*
X89850000Y-73200000D03*
X91750000Y-61752898D03*
X81982757Y-71306835D03*
X89050000Y-73700000D03*
X84814596Y-59423270D03*
X90150000Y-71400000D03*
X84314595Y-59423270D03*
X90528492Y-71043022D03*
X86750000Y-61700000D03*
X87550000Y-63200000D03*
X79550000Y-62200000D03*
X86050000Y-74536570D03*
X86050000Y-73400000D03*
X82893453Y-66743453D03*
X78750000Y-68400000D03*
X85963722Y-68263430D03*
X87350000Y-73499992D03*
X77549994Y-63400000D03*
X87023121Y-71457791D03*
X78359022Y-63696107D03*
X78430061Y-70604080D03*
X87350000Y-68300000D03*
X80450000Y-72900000D03*
D13*
X85905556Y-69363440D02*
X86638919Y-70096801D01*
X85756429Y-69363440D02*
X85905556Y-69363440D01*
X86638919Y-70096801D02*
X86842118Y-70300000D01*
D14*
X80750000Y-65900000D02*
X80450000Y-65900000D01*
X81750000Y-66900000D02*
X80750000Y-65900000D01*
D13*
X81450000Y-60994314D02*
X81355686Y-60900000D01*
X81450000Y-62600000D02*
X81450000Y-60994314D01*
D14*
X85850000Y-60900000D02*
X81643054Y-60900000D01*
X81643054Y-60900000D02*
X81355686Y-60900000D01*
X86850000Y-59900000D02*
X85850000Y-60900000D01*
D15*
X87994853Y-63896801D02*
X86953199Y-63896801D01*
X89978737Y-61912917D02*
X87994853Y-63896801D01*
X86953199Y-63896801D02*
X86750000Y-64100000D01*
D16*
G36*
X85148832Y-56998365D02*
X85048712Y-57098310D01*
X84994461Y-57228960D01*
X84994338Y-57370427D01*
X85048361Y-57501172D01*
X85148306Y-57601292D01*
X85278956Y-57655543D01*
X85420423Y-57655666D01*
X85551168Y-57601643D01*
X85651288Y-57501698D01*
X85705539Y-57371048D01*
X85705662Y-57229581D01*
X85651639Y-57098836D01*
X85551694Y-56998716D01*
X85440153Y-56952400D01*
X88660066Y-56952400D01*
X88548832Y-56998361D01*
X88448712Y-57098306D01*
X88394461Y-57228956D01*
X88394338Y-57370423D01*
X88448361Y-57501168D01*
X88548306Y-57601288D01*
X88678956Y-57655539D01*
X88820423Y-57655662D01*
X88951168Y-57601639D01*
X89051288Y-57501694D01*
X89105539Y-57371044D01*
X89105633Y-57262581D01*
X92647600Y-60804548D01*
X92647600Y-61397012D01*
X92521044Y-61344461D01*
X92379577Y-61344338D01*
X92248832Y-61398361D01*
X92148712Y-61498306D01*
X92094461Y-61628956D01*
X92094438Y-61655311D01*
X92051639Y-61551730D01*
X91951694Y-61451610D01*
X91821044Y-61397359D01*
X91679577Y-61397236D01*
X91548832Y-61451259D01*
X91448712Y-61551204D01*
X91394461Y-61681854D01*
X91394338Y-61823321D01*
X91448361Y-61954066D01*
X91548306Y-62054186D01*
X91678956Y-62108437D01*
X91820423Y-62108560D01*
X91951168Y-62054537D01*
X92051288Y-61954592D01*
X92105539Y-61823942D01*
X92105562Y-61797587D01*
X92148361Y-61901168D01*
X92248306Y-62001288D01*
X92378956Y-62055539D01*
X92520423Y-62055662D01*
X92647600Y-62003113D01*
X92647600Y-70995452D01*
X88795452Y-74847600D01*
X86228440Y-74847600D01*
X86251168Y-74838209D01*
X86351288Y-74738264D01*
X86405539Y-74607614D01*
X86405662Y-74466147D01*
X86351639Y-74335402D01*
X86251694Y-74235282D01*
X86121044Y-74181031D01*
X85979577Y-74180908D01*
X85848832Y-74234931D01*
X85748712Y-74334876D01*
X85694461Y-74465526D01*
X85694338Y-74606993D01*
X85748361Y-74737738D01*
X85848306Y-74837858D01*
X85871767Y-74847600D01*
X85719337Y-74847600D01*
X82236926Y-74310957D01*
X80852339Y-73470423D01*
X85694338Y-73470423D01*
X85748361Y-73601168D01*
X85848306Y-73701288D01*
X85978956Y-73755539D01*
X86120423Y-73755662D01*
X86251168Y-73701639D01*
X86351288Y-73601694D01*
X86364276Y-73570415D01*
X86994338Y-73570415D01*
X87048361Y-73701160D01*
X87148306Y-73801280D01*
X87278956Y-73855531D01*
X87420423Y-73855654D01*
X87551168Y-73801631D01*
X87582430Y-73770423D01*
X88694338Y-73770423D01*
X88748361Y-73901168D01*
X88848306Y-74001288D01*
X88978956Y-74055539D01*
X89120423Y-74055662D01*
X89251168Y-74001639D01*
X89351288Y-73901694D01*
X89405539Y-73771044D01*
X89405662Y-73629577D01*
X89351639Y-73498832D01*
X89251694Y-73398712D01*
X89121044Y-73344461D01*
X88979577Y-73344338D01*
X88848832Y-73398361D01*
X88748712Y-73498306D01*
X88694461Y-73628956D01*
X88694338Y-73770423D01*
X87582430Y-73770423D01*
X87651288Y-73701686D01*
X87705539Y-73571036D01*
X87705662Y-73429569D01*
X87651639Y-73298824D01*
X87623288Y-73270423D01*
X89494338Y-73270423D01*
X89548361Y-73401168D01*
X89648306Y-73501288D01*
X89778956Y-73555539D01*
X89920423Y-73555662D01*
X90051168Y-73501639D01*
X90151288Y-73401694D01*
X90205539Y-73271044D01*
X90205662Y-73129577D01*
X90151639Y-72998832D01*
X90051694Y-72898712D01*
X89921044Y-72844461D01*
X89779577Y-72844338D01*
X89648832Y-72898361D01*
X89548712Y-72998306D01*
X89494461Y-73128956D01*
X89494338Y-73270423D01*
X87623288Y-73270423D01*
X87551694Y-73198704D01*
X87421044Y-73144453D01*
X87279577Y-73144330D01*
X87148832Y-73198353D01*
X87048712Y-73298298D01*
X86994461Y-73428948D01*
X86994338Y-73570415D01*
X86364276Y-73570415D01*
X86405539Y-73471044D01*
X86405662Y-73329577D01*
X86351639Y-73198832D01*
X86251694Y-73098712D01*
X86121044Y-73044461D01*
X85979577Y-73044338D01*
X85848832Y-73098361D01*
X85748712Y-73198306D01*
X85694461Y-73328956D01*
X85694338Y-73470423D01*
X80852339Y-73470423D01*
X80498538Y-73255643D01*
X80520423Y-73255662D01*
X80651168Y-73201639D01*
X80751288Y-73101694D01*
X80805539Y-72971044D01*
X80805662Y-72829577D01*
X80751639Y-72698832D01*
X80651694Y-72598712D01*
X80629734Y-72589593D01*
X80897522Y-72589593D01*
X80966250Y-72755929D01*
X81093401Y-72883302D01*
X81259617Y-72952321D01*
X81439593Y-72952478D01*
X81605929Y-72883750D01*
X81733302Y-72756599D01*
X81802321Y-72590383D01*
X81802321Y-72589593D01*
X84997522Y-72589593D01*
X85066250Y-72755929D01*
X85193401Y-72883302D01*
X85359617Y-72952321D01*
X85539593Y-72952478D01*
X85705929Y-72883750D01*
X85833302Y-72756599D01*
X85902321Y-72590383D01*
X85902478Y-72410407D01*
X85833750Y-72244071D01*
X85772353Y-72182566D01*
X90311676Y-72182566D01*
X90365699Y-72313311D01*
X90465644Y-72413431D01*
X90596294Y-72467682D01*
X90737761Y-72467805D01*
X90868506Y-72413782D01*
X90968626Y-72313837D01*
X91022877Y-72183187D01*
X91023000Y-72041720D01*
X90968977Y-71910975D01*
X90869032Y-71810855D01*
X90738382Y-71756604D01*
X90596915Y-71756481D01*
X90466170Y-71810504D01*
X90366050Y-71910449D01*
X90311799Y-72041099D01*
X90311676Y-72182566D01*
X85772353Y-72182566D01*
X85706599Y-72116698D01*
X85540383Y-72047679D01*
X85360407Y-72047522D01*
X85194071Y-72116250D01*
X85066698Y-72243401D01*
X84997679Y-72409617D01*
X84997522Y-72589593D01*
X81802321Y-72589593D01*
X81802478Y-72410407D01*
X81733750Y-72244071D01*
X81606599Y-72116698D01*
X81440383Y-72047679D01*
X81260407Y-72047522D01*
X81094071Y-72116250D01*
X80966698Y-72243401D01*
X80897679Y-72409617D01*
X80897522Y-72589593D01*
X80629734Y-72589593D01*
X80521044Y-72544461D01*
X80379577Y-72544338D01*
X80248832Y-72598361D01*
X80148712Y-72698306D01*
X80094461Y-72828956D01*
X80094338Y-72970423D01*
X80116314Y-73023608D01*
X79251354Y-72498522D01*
X78429524Y-71377258D01*
X81627095Y-71377258D01*
X81681118Y-71508003D01*
X81781063Y-71608123D01*
X81911713Y-71662374D01*
X82053180Y-71662497D01*
X82183925Y-71608474D01*
X82264325Y-71528214D01*
X86667459Y-71528214D01*
X86721482Y-71658959D01*
X86821427Y-71759079D01*
X86952077Y-71813330D01*
X87093544Y-71813453D01*
X87224289Y-71759430D01*
X87324409Y-71659485D01*
X87378660Y-71528835D01*
X87378710Y-71470423D01*
X89794338Y-71470423D01*
X89848361Y-71601168D01*
X89948306Y-71701288D01*
X90078956Y-71755539D01*
X90220423Y-71755662D01*
X90351168Y-71701639D01*
X90451288Y-71601694D01*
X90505539Y-71471044D01*
X90505602Y-71398603D01*
X90598915Y-71398684D01*
X90729660Y-71344661D01*
X90829780Y-71244716D01*
X90884031Y-71114066D01*
X90884154Y-70972599D01*
X90883255Y-70970423D01*
X91594338Y-70970423D01*
X91648361Y-71101168D01*
X91748306Y-71201288D01*
X91878956Y-71255539D01*
X92020423Y-71255662D01*
X92151168Y-71201639D01*
X92251288Y-71101694D01*
X92305539Y-70971044D01*
X92305662Y-70829577D01*
X92251639Y-70698832D01*
X92151694Y-70598712D01*
X92021044Y-70544461D01*
X91879577Y-70544338D01*
X91748832Y-70598361D01*
X91648712Y-70698306D01*
X91594461Y-70828956D01*
X91594338Y-70970423D01*
X90883255Y-70970423D01*
X90837826Y-70860477D01*
X90914598Y-70828755D01*
X91014718Y-70728810D01*
X91068969Y-70598160D01*
X91069092Y-70456693D01*
X91015069Y-70325948D01*
X90915124Y-70225828D01*
X90784474Y-70171577D01*
X90643007Y-70171454D01*
X90512262Y-70225477D01*
X90412142Y-70325422D01*
X90357891Y-70456072D01*
X90357768Y-70597539D01*
X90404096Y-70709661D01*
X90327324Y-70741383D01*
X90227204Y-70841328D01*
X90172953Y-70971978D01*
X90172890Y-71044419D01*
X90079577Y-71044338D01*
X89948832Y-71098361D01*
X89848712Y-71198306D01*
X89794461Y-71328956D01*
X89794338Y-71470423D01*
X87378710Y-71470423D01*
X87378783Y-71387368D01*
X87339616Y-71292577D01*
X87348306Y-71301282D01*
X87478956Y-71355533D01*
X87620423Y-71355656D01*
X87751168Y-71301633D01*
X87851288Y-71201688D01*
X87905539Y-71071038D01*
X87905662Y-70929571D01*
X87851639Y-70798826D01*
X87751694Y-70698706D01*
X87621044Y-70644455D01*
X87479577Y-70644332D01*
X87348832Y-70698355D01*
X87248712Y-70798300D01*
X87194461Y-70928950D01*
X87194338Y-71070417D01*
X87233505Y-71165208D01*
X87224815Y-71156503D01*
X87094165Y-71102252D01*
X86952698Y-71102129D01*
X86821953Y-71156152D01*
X86721833Y-71256097D01*
X86667582Y-71386747D01*
X86667459Y-71528214D01*
X82264325Y-71528214D01*
X82284045Y-71508529D01*
X82338296Y-71377879D01*
X82338419Y-71236412D01*
X82284396Y-71105667D01*
X82184451Y-71005547D01*
X82053801Y-70951296D01*
X81912334Y-70951173D01*
X81781589Y-71005196D01*
X81681469Y-71105141D01*
X81627218Y-71235791D01*
X81627095Y-71377258D01*
X78429524Y-71377258D01*
X77914440Y-70674503D01*
X78074399Y-70674503D01*
X78128422Y-70805248D01*
X78228367Y-70905368D01*
X78359017Y-70959619D01*
X78500484Y-70959742D01*
X78631229Y-70905719D01*
X78731349Y-70805774D01*
X78777374Y-70694934D01*
X84293845Y-70694934D01*
X84347868Y-70825679D01*
X84447813Y-70925799D01*
X84578463Y-70980050D01*
X84719930Y-70980173D01*
X84850675Y-70926150D01*
X84950795Y-70826205D01*
X85005046Y-70695555D01*
X85005169Y-70554088D01*
X84951146Y-70423343D01*
X84851201Y-70323223D01*
X84720551Y-70268972D01*
X84579084Y-70268849D01*
X84448339Y-70322872D01*
X84348219Y-70422817D01*
X84293968Y-70553467D01*
X84293845Y-70694934D01*
X78777374Y-70694934D01*
X78785600Y-70675124D01*
X78785723Y-70533657D01*
X78731700Y-70402912D01*
X78631755Y-70302792D01*
X78501105Y-70248541D01*
X78359638Y-70248418D01*
X78228893Y-70302441D01*
X78128773Y-70402386D01*
X78074522Y-70533036D01*
X78074399Y-70674503D01*
X77914440Y-70674503D01*
X77330869Y-69878307D01*
X79994338Y-69878307D01*
X80048361Y-70009052D01*
X80148306Y-70109172D01*
X80278956Y-70163423D01*
X80420423Y-70163546D01*
X80551168Y-70109523D01*
X80651288Y-70009578D01*
X80705539Y-69878928D01*
X80705662Y-69737461D01*
X80651639Y-69606716D01*
X80551694Y-69506596D01*
X80421044Y-69452345D01*
X80279577Y-69452222D01*
X80148832Y-69506245D01*
X80048712Y-69606190D01*
X79994461Y-69736840D01*
X79994338Y-69878307D01*
X77330869Y-69878307D01*
X77186636Y-69681524D01*
X77180283Y-69655540D01*
X77320423Y-69655662D01*
X77451168Y-69601639D01*
X77551288Y-69501694D01*
X77605539Y-69371044D01*
X77605662Y-69229577D01*
X77581220Y-69170423D01*
X85994338Y-69170423D01*
X86048361Y-69301168D01*
X86148306Y-69401288D01*
X86278956Y-69455539D01*
X86420423Y-69455662D01*
X86551168Y-69401639D01*
X86651288Y-69301694D01*
X86690021Y-69208414D01*
X86732329Y-69208414D01*
X86786352Y-69339159D01*
X86886297Y-69439279D01*
X87016947Y-69493530D01*
X87158414Y-69493653D01*
X87289159Y-69439630D01*
X87389279Y-69339685D01*
X87443530Y-69209035D01*
X87443653Y-69067568D01*
X87389630Y-68936823D01*
X87289685Y-68836703D01*
X87159035Y-68782452D01*
X87017568Y-68782329D01*
X86886823Y-68836352D01*
X86786703Y-68936297D01*
X86732452Y-69066947D01*
X86732329Y-69208414D01*
X86690021Y-69208414D01*
X86705539Y-69171044D01*
X86705662Y-69029577D01*
X86651639Y-68898832D01*
X86551694Y-68798712D01*
X86421044Y-68744461D01*
X86279577Y-68744338D01*
X86148832Y-68798361D01*
X86048712Y-68898306D01*
X85994461Y-69028956D01*
X85994338Y-69170423D01*
X77581220Y-69170423D01*
X77551639Y-69098832D01*
X77451694Y-68998712D01*
X77321044Y-68944461D01*
X77179577Y-68944338D01*
X77048832Y-68998361D01*
X77025334Y-69021818D01*
X76890516Y-68470423D01*
X78394338Y-68470423D01*
X78448361Y-68601168D01*
X78548306Y-68701288D01*
X78678956Y-68755539D01*
X78820423Y-68755662D01*
X78951168Y-68701639D01*
X79051288Y-68601694D01*
X79105539Y-68471044D01*
X79105658Y-68333853D01*
X85608060Y-68333853D01*
X85662083Y-68464598D01*
X85762028Y-68564718D01*
X85892678Y-68618969D01*
X86034145Y-68619092D01*
X86164890Y-68565069D01*
X86265010Y-68465124D01*
X86319261Y-68334474D01*
X86319384Y-68193007D01*
X86265361Y-68062262D01*
X86165416Y-67962142D01*
X86034766Y-67907891D01*
X85893299Y-67907768D01*
X85762554Y-67961791D01*
X85662434Y-68061736D01*
X85608183Y-68192386D01*
X85608060Y-68333853D01*
X79105658Y-68333853D01*
X79105662Y-68329577D01*
X79051639Y-68198832D01*
X78951694Y-68098712D01*
X78821044Y-68044461D01*
X78679577Y-68044338D01*
X78548832Y-68098361D01*
X78448712Y-68198306D01*
X78394461Y-68328956D01*
X78394338Y-68470423D01*
X76890516Y-68470423D01*
X76743814Y-67870423D01*
X86836440Y-67870423D01*
X86890463Y-68001168D01*
X86990408Y-68101288D01*
X87039081Y-68121499D01*
X86994461Y-68228956D01*
X86994338Y-68370423D01*
X87048361Y-68501168D01*
X87148306Y-68601288D01*
X87278956Y-68655539D01*
X87420423Y-68655662D01*
X87551168Y-68601639D01*
X87651288Y-68501694D01*
X87705539Y-68371044D01*
X87705662Y-68229577D01*
X87651639Y-68098832D01*
X87551694Y-67998712D01*
X87503021Y-67978501D01*
X87547641Y-67871044D01*
X87547764Y-67729577D01*
X87493741Y-67598832D01*
X87393796Y-67498712D01*
X87263146Y-67444461D01*
X87121679Y-67444338D01*
X86990934Y-67498361D01*
X86890814Y-67598306D01*
X86836563Y-67728956D01*
X86836440Y-67870423D01*
X76743814Y-67870423D01*
X76485482Y-66813876D01*
X82537791Y-66813876D01*
X82591814Y-66944621D01*
X82691759Y-67044741D01*
X82822409Y-67098992D01*
X82963876Y-67099115D01*
X83094621Y-67045092D01*
X83194741Y-66945147D01*
X83248992Y-66814497D01*
X83249115Y-66673030D01*
X83195092Y-66542285D01*
X83095147Y-66442165D01*
X82964497Y-66387914D01*
X82823030Y-66387791D01*
X82692285Y-66441814D01*
X82592165Y-66541759D01*
X82537914Y-66672409D01*
X82537791Y-66813876D01*
X76485482Y-66813876D01*
X76357102Y-66288820D01*
X76652729Y-64370423D01*
X77594334Y-64370423D01*
X77648357Y-64501168D01*
X77748302Y-64601288D01*
X77878952Y-64655539D01*
X78020419Y-64655662D01*
X78151164Y-64601639D01*
X78250083Y-64502893D01*
X78348306Y-64601288D01*
X78478956Y-64655539D01*
X78620423Y-64655662D01*
X78751168Y-64601639D01*
X78782436Y-64570425D01*
X86994338Y-64570425D01*
X87048361Y-64701170D01*
X87148306Y-64801290D01*
X87278956Y-64855541D01*
X87420423Y-64855664D01*
X87551168Y-64801641D01*
X87651288Y-64701696D01*
X87705539Y-64571046D01*
X87705662Y-64429579D01*
X87651639Y-64298834D01*
X87551694Y-64198714D01*
X87421044Y-64144463D01*
X87279577Y-64144340D01*
X87148832Y-64198363D01*
X87048712Y-64298308D01*
X86994461Y-64428958D01*
X86994338Y-64570425D01*
X78782436Y-64570425D01*
X78851288Y-64501694D01*
X78905539Y-64371044D01*
X78905662Y-64229577D01*
X78851639Y-64098832D01*
X78751694Y-63998712D01*
X78621044Y-63944461D01*
X78613575Y-63944455D01*
X78660310Y-63897801D01*
X78714561Y-63767151D01*
X78714684Y-63625684D01*
X78660661Y-63494939D01*
X78636188Y-63470423D01*
X86294338Y-63470423D01*
X86348361Y-63601168D01*
X86448306Y-63701288D01*
X86578956Y-63755539D01*
X86720423Y-63755662D01*
X86851168Y-63701639D01*
X86951288Y-63601694D01*
X87005539Y-63471044D01*
X87005662Y-63329577D01*
X86981220Y-63270423D01*
X87194338Y-63270423D01*
X87248361Y-63401168D01*
X87348306Y-63501288D01*
X87478956Y-63555539D01*
X87620423Y-63555662D01*
X87751168Y-63501639D01*
X87851288Y-63401694D01*
X87905539Y-63271044D01*
X87905662Y-63129577D01*
X87851639Y-62998832D01*
X87751694Y-62898712D01*
X87621044Y-62844461D01*
X87479577Y-62844338D01*
X87348832Y-62898361D01*
X87248712Y-62998306D01*
X87194461Y-63128956D01*
X87194338Y-63270423D01*
X86981220Y-63270423D01*
X86951639Y-63198832D01*
X86851694Y-63098712D01*
X86721044Y-63044461D01*
X86579577Y-63044338D01*
X86448832Y-63098361D01*
X86348712Y-63198306D01*
X86294461Y-63328956D01*
X86294338Y-63470423D01*
X78636188Y-63470423D01*
X78560716Y-63394819D01*
X78430066Y-63340568D01*
X78288599Y-63340445D01*
X78157854Y-63394468D01*
X78057734Y-63494413D01*
X78003483Y-63625063D01*
X78003360Y-63766530D01*
X78057383Y-63897275D01*
X78157328Y-63997395D01*
X78287978Y-64051646D01*
X78295447Y-64051652D01*
X78249913Y-64097107D01*
X78151690Y-63998712D01*
X78021040Y-63944461D01*
X77879573Y-63944338D01*
X77748828Y-63998361D01*
X77648708Y-64098306D01*
X77594457Y-64228956D01*
X77594334Y-64370423D01*
X76652729Y-64370423D01*
X76791420Y-63470423D01*
X77194332Y-63470423D01*
X77248355Y-63601168D01*
X77348300Y-63701288D01*
X77478950Y-63755539D01*
X77620417Y-63755662D01*
X77751162Y-63701639D01*
X77851282Y-63601694D01*
X77905533Y-63471044D01*
X77905656Y-63329577D01*
X77851633Y-63198832D01*
X77751688Y-63098712D01*
X77621038Y-63044461D01*
X77479571Y-63044338D01*
X77348826Y-63098361D01*
X77248706Y-63198306D01*
X77194455Y-63328956D01*
X77194332Y-63470423D01*
X76791420Y-63470423D01*
X76889043Y-62836927D01*
X76990125Y-62670417D01*
X86294338Y-62670417D01*
X86348361Y-62801162D01*
X86448306Y-62901282D01*
X86578956Y-62955533D01*
X86720423Y-62955656D01*
X86851168Y-62901633D01*
X86951288Y-62801688D01*
X87005539Y-62671038D01*
X87005662Y-62529571D01*
X86951639Y-62398826D01*
X86851694Y-62298706D01*
X86721044Y-62244455D01*
X86579577Y-62244332D01*
X86448832Y-62298355D01*
X86348712Y-62398300D01*
X86294461Y-62528950D01*
X86294338Y-62670417D01*
X76990125Y-62670417D01*
X77232947Y-62270423D01*
X79194338Y-62270423D01*
X79248361Y-62401168D01*
X79348306Y-62501288D01*
X79478956Y-62555539D01*
X79620423Y-62555662D01*
X79751168Y-62501639D01*
X79851288Y-62401694D01*
X79905539Y-62271044D01*
X79905662Y-62129577D01*
X79851639Y-61998832D01*
X79751694Y-61898712D01*
X79621044Y-61844461D01*
X79479577Y-61844338D01*
X79348832Y-61898361D01*
X79248712Y-61998306D01*
X79194461Y-62128956D01*
X79194338Y-62270423D01*
X77232947Y-62270423D01*
X77536479Y-61770423D01*
X77794338Y-61770423D01*
X77848361Y-61901168D01*
X77948306Y-62001288D01*
X78078956Y-62055539D01*
X78220423Y-62055662D01*
X78351168Y-62001639D01*
X78451288Y-61901694D01*
X78505539Y-61771044D01*
X78505539Y-61770423D01*
X86394338Y-61770423D01*
X86448361Y-61901168D01*
X86548306Y-62001288D01*
X86678956Y-62055539D01*
X86820423Y-62055662D01*
X86951168Y-62001639D01*
X87051288Y-61901694D01*
X87087932Y-61813444D01*
X88415848Y-61813444D01*
X88469871Y-61944189D01*
X88569816Y-62044309D01*
X88700466Y-62098560D01*
X88841933Y-62098683D01*
X88972678Y-62044660D01*
X89072798Y-61944715D01*
X89127049Y-61814065D01*
X89127172Y-61672598D01*
X89073149Y-61541853D01*
X88973204Y-61441733D01*
X88842554Y-61387482D01*
X88701087Y-61387359D01*
X88570342Y-61441382D01*
X88470222Y-61541327D01*
X88415971Y-61671977D01*
X88415848Y-61813444D01*
X87087932Y-61813444D01*
X87105539Y-61771044D01*
X87105662Y-61629577D01*
X87051639Y-61498832D01*
X86951694Y-61398712D01*
X86821044Y-61344461D01*
X86679577Y-61344338D01*
X86548832Y-61398361D01*
X86448712Y-61498306D01*
X86394461Y-61628956D01*
X86394338Y-61770423D01*
X78505539Y-61770423D01*
X78505662Y-61629577D01*
X78451639Y-61498832D01*
X78351694Y-61398712D01*
X78221044Y-61344461D01*
X78079577Y-61344338D01*
X77948832Y-61398361D01*
X77848712Y-61498306D01*
X77794461Y-61628956D01*
X77794338Y-61770423D01*
X77536479Y-61770423D01*
X77961424Y-61070423D01*
X87884296Y-61070423D01*
X87938319Y-61201168D01*
X88038264Y-61301288D01*
X88168914Y-61355539D01*
X88310381Y-61355662D01*
X88441126Y-61301639D01*
X88541246Y-61201694D01*
X88595497Y-61071044D01*
X88595620Y-60929577D01*
X88541597Y-60798832D01*
X88441652Y-60698712D01*
X88311002Y-60644461D01*
X88169535Y-60644338D01*
X88038790Y-60698361D01*
X87938670Y-60798306D01*
X87884419Y-60928956D01*
X87884296Y-61070423D01*
X77961424Y-61070423D01*
X78689901Y-59870423D01*
X87894338Y-59870423D01*
X87948361Y-60001168D01*
X88048306Y-60101288D01*
X88178956Y-60155539D01*
X88320423Y-60155662D01*
X88451168Y-60101639D01*
X88474616Y-60078231D01*
X88777120Y-60078231D01*
X88831143Y-60208976D01*
X88931088Y-60309096D01*
X89061738Y-60363347D01*
X89203205Y-60363470D01*
X89333950Y-60309447D01*
X89434070Y-60209502D01*
X89488321Y-60078852D01*
X89488444Y-59937385D01*
X89434421Y-59806640D01*
X89434310Y-59806528D01*
X89824591Y-59806528D01*
X89904714Y-60000440D01*
X90052944Y-60148929D01*
X90246715Y-60229390D01*
X90456528Y-60229573D01*
X90650440Y-60149450D01*
X90798929Y-60001220D01*
X90879390Y-59807449D01*
X90879573Y-59597636D01*
X90799450Y-59403724D01*
X90651220Y-59255235D01*
X90457449Y-59174774D01*
X90247636Y-59174591D01*
X90053724Y-59254714D01*
X89905235Y-59402944D01*
X89824774Y-59596715D01*
X89824591Y-59806528D01*
X89434310Y-59806528D01*
X89334476Y-59706520D01*
X89203826Y-59652269D01*
X89062359Y-59652146D01*
X88931614Y-59706169D01*
X88831494Y-59806114D01*
X88777243Y-59936764D01*
X88777120Y-60078231D01*
X88474616Y-60078231D01*
X88551288Y-60001694D01*
X88605539Y-59871044D01*
X88605662Y-59729577D01*
X88551639Y-59598832D01*
X88451694Y-59498712D01*
X88321044Y-59444461D01*
X88179577Y-59444338D01*
X88048832Y-59498361D01*
X87948712Y-59598306D01*
X87894461Y-59728956D01*
X87894338Y-59870423D01*
X78689901Y-59870423D01*
X78701478Y-59851354D01*
X79189452Y-59493693D01*
X83958933Y-59493693D01*
X84012956Y-59624438D01*
X84112901Y-59724558D01*
X84243551Y-59778809D01*
X84385018Y-59778932D01*
X84515763Y-59724909D01*
X84564593Y-59676164D01*
X84612902Y-59724558D01*
X84743552Y-59778809D01*
X84885019Y-59778932D01*
X85015764Y-59724909D01*
X85115884Y-59624964D01*
X85170135Y-59494314D01*
X85170258Y-59352847D01*
X85116235Y-59222102D01*
X85016290Y-59121982D01*
X84885640Y-59067731D01*
X84744173Y-59067608D01*
X84613428Y-59121631D01*
X84564598Y-59170376D01*
X84516289Y-59121982D01*
X84385639Y-59067731D01*
X84244172Y-59067608D01*
X84113427Y-59121631D01*
X84013307Y-59221576D01*
X83959056Y-59352226D01*
X83958933Y-59493693D01*
X79189452Y-59493693D01*
X79630506Y-59170423D01*
X80394344Y-59170423D01*
X80448367Y-59301168D01*
X80548312Y-59401288D01*
X80678962Y-59455539D01*
X80820429Y-59455662D01*
X80951174Y-59401639D01*
X81051294Y-59301694D01*
X81105545Y-59171044D01*
X81105668Y-59029577D01*
X81051645Y-58898832D01*
X80951700Y-58798712D01*
X80939902Y-58793813D01*
X82295362Y-58793813D01*
X82364090Y-58960149D01*
X82491241Y-59087522D01*
X82657457Y-59156541D01*
X82837433Y-59156698D01*
X83003769Y-59087970D01*
X83131142Y-58960819D01*
X83200161Y-58794603D01*
X83200161Y-58793813D01*
X86395362Y-58793813D01*
X86464090Y-58960149D01*
X86591241Y-59087522D01*
X86757457Y-59156541D01*
X86937433Y-59156698D01*
X87103769Y-59087970D01*
X87231142Y-58960819D01*
X87300161Y-58794603D01*
X87300318Y-58614627D01*
X87231590Y-58448291D01*
X87104439Y-58320918D01*
X86938223Y-58251899D01*
X86758247Y-58251742D01*
X86591911Y-58320470D01*
X86464538Y-58447621D01*
X86395519Y-58613837D01*
X86395362Y-58793813D01*
X83200161Y-58793813D01*
X83200318Y-58614627D01*
X83131590Y-58448291D01*
X83004439Y-58320918D01*
X82838223Y-58251899D01*
X82658247Y-58251742D01*
X82491911Y-58320470D01*
X82364538Y-58447621D01*
X82295519Y-58613837D01*
X82295362Y-58793813D01*
X80939902Y-58793813D01*
X80821050Y-58744461D01*
X80679583Y-58744338D01*
X80548838Y-58798361D01*
X80448718Y-58898306D01*
X80394467Y-59028956D01*
X80394344Y-59170423D01*
X79630506Y-59170423D01*
X80994421Y-58170742D01*
X80994334Y-58270423D01*
X81048357Y-58401168D01*
X81148302Y-58501288D01*
X81278952Y-58555539D01*
X81420419Y-58555662D01*
X81551164Y-58501639D01*
X81651284Y-58401694D01*
X81705535Y-58271044D01*
X81705658Y-58129577D01*
X81651635Y-57998832D01*
X81551690Y-57898712D01*
X81432877Y-57849376D01*
X81518476Y-57786636D01*
X84930410Y-56952400D01*
X85260075Y-56952400D01*
X85148832Y-56998365D01*
X85148832Y-56998365D01*
G37*
X85148832Y-56998365D02*
X85048712Y-57098310D01*
X84994461Y-57228960D01*
X84994338Y-57370427D01*
X85048361Y-57501172D01*
X85148306Y-57601292D01*
X85278956Y-57655543D01*
X85420423Y-57655666D01*
X85551168Y-57601643D01*
X85651288Y-57501698D01*
X85705539Y-57371048D01*
X85705662Y-57229581D01*
X85651639Y-57098836D01*
X85551694Y-56998716D01*
X85440153Y-56952400D01*
X88660066Y-56952400D01*
X88548832Y-56998361D01*
X88448712Y-57098306D01*
X88394461Y-57228956D01*
X88394338Y-57370423D01*
X88448361Y-57501168D01*
X88548306Y-57601288D01*
X88678956Y-57655539D01*
X88820423Y-57655662D01*
X88951168Y-57601639D01*
X89051288Y-57501694D01*
X89105539Y-57371044D01*
X89105633Y-57262581D01*
X92647600Y-60804548D01*
X92647600Y-61397012D01*
X92521044Y-61344461D01*
X92379577Y-61344338D01*
X92248832Y-61398361D01*
X92148712Y-61498306D01*
X92094461Y-61628956D01*
X92094438Y-61655311D01*
X92051639Y-61551730D01*
X91951694Y-61451610D01*
X91821044Y-61397359D01*
X91679577Y-61397236D01*
X91548832Y-61451259D01*
X91448712Y-61551204D01*
X91394461Y-61681854D01*
X91394338Y-61823321D01*
X91448361Y-61954066D01*
X91548306Y-62054186D01*
X91678956Y-62108437D01*
X91820423Y-62108560D01*
X91951168Y-62054537D01*
X92051288Y-61954592D01*
X92105539Y-61823942D01*
X92105562Y-61797587D01*
X92148361Y-61901168D01*
X92248306Y-62001288D01*
X92378956Y-62055539D01*
X92520423Y-62055662D01*
X92647600Y-62003113D01*
X92647600Y-70995452D01*
X88795452Y-74847600D01*
X86228440Y-74847600D01*
X86251168Y-74838209D01*
X86351288Y-74738264D01*
X86405539Y-74607614D01*
X86405662Y-74466147D01*
X86351639Y-74335402D01*
X86251694Y-74235282D01*
X86121044Y-74181031D01*
X85979577Y-74180908D01*
X85848832Y-74234931D01*
X85748712Y-74334876D01*
X85694461Y-74465526D01*
X85694338Y-74606993D01*
X85748361Y-74737738D01*
X85848306Y-74837858D01*
X85871767Y-74847600D01*
X85719337Y-74847600D01*
X82236926Y-74310957D01*
X80852339Y-73470423D01*
X85694338Y-73470423D01*
X85748361Y-73601168D01*
X85848306Y-73701288D01*
X85978956Y-73755539D01*
X86120423Y-73755662D01*
X86251168Y-73701639D01*
X86351288Y-73601694D01*
X86364276Y-73570415D01*
X86994338Y-73570415D01*
X87048361Y-73701160D01*
X87148306Y-73801280D01*
X87278956Y-73855531D01*
X87420423Y-73855654D01*
X87551168Y-73801631D01*
X87582430Y-73770423D01*
X88694338Y-73770423D01*
X88748361Y-73901168D01*
X88848306Y-74001288D01*
X88978956Y-74055539D01*
X89120423Y-74055662D01*
X89251168Y-74001639D01*
X89351288Y-73901694D01*
X89405539Y-73771044D01*
X89405662Y-73629577D01*
X89351639Y-73498832D01*
X89251694Y-73398712D01*
X89121044Y-73344461D01*
X88979577Y-73344338D01*
X88848832Y-73398361D01*
X88748712Y-73498306D01*
X88694461Y-73628956D01*
X88694338Y-73770423D01*
X87582430Y-73770423D01*
X87651288Y-73701686D01*
X87705539Y-73571036D01*
X87705662Y-73429569D01*
X87651639Y-73298824D01*
X87623288Y-73270423D01*
X89494338Y-73270423D01*
X89548361Y-73401168D01*
X89648306Y-73501288D01*
X89778956Y-73555539D01*
X89920423Y-73555662D01*
X90051168Y-73501639D01*
X90151288Y-73401694D01*
X90205539Y-73271044D01*
X90205662Y-73129577D01*
X90151639Y-72998832D01*
X90051694Y-72898712D01*
X89921044Y-72844461D01*
X89779577Y-72844338D01*
X89648832Y-72898361D01*
X89548712Y-72998306D01*
X89494461Y-73128956D01*
X89494338Y-73270423D01*
X87623288Y-73270423D01*
X87551694Y-73198704D01*
X87421044Y-73144453D01*
X87279577Y-73144330D01*
X87148832Y-73198353D01*
X87048712Y-73298298D01*
X86994461Y-73428948D01*
X86994338Y-73570415D01*
X86364276Y-73570415D01*
X86405539Y-73471044D01*
X86405662Y-73329577D01*
X86351639Y-73198832D01*
X86251694Y-73098712D01*
X86121044Y-73044461D01*
X85979577Y-73044338D01*
X85848832Y-73098361D01*
X85748712Y-73198306D01*
X85694461Y-73328956D01*
X85694338Y-73470423D01*
X80852339Y-73470423D01*
X80498538Y-73255643D01*
X80520423Y-73255662D01*
X80651168Y-73201639D01*
X80751288Y-73101694D01*
X80805539Y-72971044D01*
X80805662Y-72829577D01*
X80751639Y-72698832D01*
X80651694Y-72598712D01*
X80629734Y-72589593D01*
X80897522Y-72589593D01*
X80966250Y-72755929D01*
X81093401Y-72883302D01*
X81259617Y-72952321D01*
X81439593Y-72952478D01*
X81605929Y-72883750D01*
X81733302Y-72756599D01*
X81802321Y-72590383D01*
X81802321Y-72589593D01*
X84997522Y-72589593D01*
X85066250Y-72755929D01*
X85193401Y-72883302D01*
X85359617Y-72952321D01*
X85539593Y-72952478D01*
X85705929Y-72883750D01*
X85833302Y-72756599D01*
X85902321Y-72590383D01*
X85902478Y-72410407D01*
X85833750Y-72244071D01*
X85772353Y-72182566D01*
X90311676Y-72182566D01*
X90365699Y-72313311D01*
X90465644Y-72413431D01*
X90596294Y-72467682D01*
X90737761Y-72467805D01*
X90868506Y-72413782D01*
X90968626Y-72313837D01*
X91022877Y-72183187D01*
X91023000Y-72041720D01*
X90968977Y-71910975D01*
X90869032Y-71810855D01*
X90738382Y-71756604D01*
X90596915Y-71756481D01*
X90466170Y-71810504D01*
X90366050Y-71910449D01*
X90311799Y-72041099D01*
X90311676Y-72182566D01*
X85772353Y-72182566D01*
X85706599Y-72116698D01*
X85540383Y-72047679D01*
X85360407Y-72047522D01*
X85194071Y-72116250D01*
X85066698Y-72243401D01*
X84997679Y-72409617D01*
X84997522Y-72589593D01*
X81802321Y-72589593D01*
X81802478Y-72410407D01*
X81733750Y-72244071D01*
X81606599Y-72116698D01*
X81440383Y-72047679D01*
X81260407Y-72047522D01*
X81094071Y-72116250D01*
X80966698Y-72243401D01*
X80897679Y-72409617D01*
X80897522Y-72589593D01*
X80629734Y-72589593D01*
X80521044Y-72544461D01*
X80379577Y-72544338D01*
X80248832Y-72598361D01*
X80148712Y-72698306D01*
X80094461Y-72828956D01*
X80094338Y-72970423D01*
X80116314Y-73023608D01*
X79251354Y-72498522D01*
X78429524Y-71377258D01*
X81627095Y-71377258D01*
X81681118Y-71508003D01*
X81781063Y-71608123D01*
X81911713Y-71662374D01*
X82053180Y-71662497D01*
X82183925Y-71608474D01*
X82264325Y-71528214D01*
X86667459Y-71528214D01*
X86721482Y-71658959D01*
X86821427Y-71759079D01*
X86952077Y-71813330D01*
X87093544Y-71813453D01*
X87224289Y-71759430D01*
X87324409Y-71659485D01*
X87378660Y-71528835D01*
X87378710Y-71470423D01*
X89794338Y-71470423D01*
X89848361Y-71601168D01*
X89948306Y-71701288D01*
X90078956Y-71755539D01*
X90220423Y-71755662D01*
X90351168Y-71701639D01*
X90451288Y-71601694D01*
X90505539Y-71471044D01*
X90505602Y-71398603D01*
X90598915Y-71398684D01*
X90729660Y-71344661D01*
X90829780Y-71244716D01*
X90884031Y-71114066D01*
X90884154Y-70972599D01*
X90883255Y-70970423D01*
X91594338Y-70970423D01*
X91648361Y-71101168D01*
X91748306Y-71201288D01*
X91878956Y-71255539D01*
X92020423Y-71255662D01*
X92151168Y-71201639D01*
X92251288Y-71101694D01*
X92305539Y-70971044D01*
X92305662Y-70829577D01*
X92251639Y-70698832D01*
X92151694Y-70598712D01*
X92021044Y-70544461D01*
X91879577Y-70544338D01*
X91748832Y-70598361D01*
X91648712Y-70698306D01*
X91594461Y-70828956D01*
X91594338Y-70970423D01*
X90883255Y-70970423D01*
X90837826Y-70860477D01*
X90914598Y-70828755D01*
X91014718Y-70728810D01*
X91068969Y-70598160D01*
X91069092Y-70456693D01*
X91015069Y-70325948D01*
X90915124Y-70225828D01*
X90784474Y-70171577D01*
X90643007Y-70171454D01*
X90512262Y-70225477D01*
X90412142Y-70325422D01*
X90357891Y-70456072D01*
X90357768Y-70597539D01*
X90404096Y-70709661D01*
X90327324Y-70741383D01*
X90227204Y-70841328D01*
X90172953Y-70971978D01*
X90172890Y-71044419D01*
X90079577Y-71044338D01*
X89948832Y-71098361D01*
X89848712Y-71198306D01*
X89794461Y-71328956D01*
X89794338Y-71470423D01*
X87378710Y-71470423D01*
X87378783Y-71387368D01*
X87339616Y-71292577D01*
X87348306Y-71301282D01*
X87478956Y-71355533D01*
X87620423Y-71355656D01*
X87751168Y-71301633D01*
X87851288Y-71201688D01*
X87905539Y-71071038D01*
X87905662Y-70929571D01*
X87851639Y-70798826D01*
X87751694Y-70698706D01*
X87621044Y-70644455D01*
X87479577Y-70644332D01*
X87348832Y-70698355D01*
X87248712Y-70798300D01*
X87194461Y-70928950D01*
X87194338Y-71070417D01*
X87233505Y-71165208D01*
X87224815Y-71156503D01*
X87094165Y-71102252D01*
X86952698Y-71102129D01*
X86821953Y-71156152D01*
X86721833Y-71256097D01*
X86667582Y-71386747D01*
X86667459Y-71528214D01*
X82264325Y-71528214D01*
X82284045Y-71508529D01*
X82338296Y-71377879D01*
X82338419Y-71236412D01*
X82284396Y-71105667D01*
X82184451Y-71005547D01*
X82053801Y-70951296D01*
X81912334Y-70951173D01*
X81781589Y-71005196D01*
X81681469Y-71105141D01*
X81627218Y-71235791D01*
X81627095Y-71377258D01*
X78429524Y-71377258D01*
X77914440Y-70674503D01*
X78074399Y-70674503D01*
X78128422Y-70805248D01*
X78228367Y-70905368D01*
X78359017Y-70959619D01*
X78500484Y-70959742D01*
X78631229Y-70905719D01*
X78731349Y-70805774D01*
X78777374Y-70694934D01*
X84293845Y-70694934D01*
X84347868Y-70825679D01*
X84447813Y-70925799D01*
X84578463Y-70980050D01*
X84719930Y-70980173D01*
X84850675Y-70926150D01*
X84950795Y-70826205D01*
X85005046Y-70695555D01*
X85005169Y-70554088D01*
X84951146Y-70423343D01*
X84851201Y-70323223D01*
X84720551Y-70268972D01*
X84579084Y-70268849D01*
X84448339Y-70322872D01*
X84348219Y-70422817D01*
X84293968Y-70553467D01*
X84293845Y-70694934D01*
X78777374Y-70694934D01*
X78785600Y-70675124D01*
X78785723Y-70533657D01*
X78731700Y-70402912D01*
X78631755Y-70302792D01*
X78501105Y-70248541D01*
X78359638Y-70248418D01*
X78228893Y-70302441D01*
X78128773Y-70402386D01*
X78074522Y-70533036D01*
X78074399Y-70674503D01*
X77914440Y-70674503D01*
X77330869Y-69878307D01*
X79994338Y-69878307D01*
X80048361Y-70009052D01*
X80148306Y-70109172D01*
X80278956Y-70163423D01*
X80420423Y-70163546D01*
X80551168Y-70109523D01*
X80651288Y-70009578D01*
X80705539Y-69878928D01*
X80705662Y-69737461D01*
X80651639Y-69606716D01*
X80551694Y-69506596D01*
X80421044Y-69452345D01*
X80279577Y-69452222D01*
X80148832Y-69506245D01*
X80048712Y-69606190D01*
X79994461Y-69736840D01*
X79994338Y-69878307D01*
X77330869Y-69878307D01*
X77186636Y-69681524D01*
X77180283Y-69655540D01*
X77320423Y-69655662D01*
X77451168Y-69601639D01*
X77551288Y-69501694D01*
X77605539Y-69371044D01*
X77605662Y-69229577D01*
X77581220Y-69170423D01*
X85994338Y-69170423D01*
X86048361Y-69301168D01*
X86148306Y-69401288D01*
X86278956Y-69455539D01*
X86420423Y-69455662D01*
X86551168Y-69401639D01*
X86651288Y-69301694D01*
X86690021Y-69208414D01*
X86732329Y-69208414D01*
X86786352Y-69339159D01*
X86886297Y-69439279D01*
X87016947Y-69493530D01*
X87158414Y-69493653D01*
X87289159Y-69439630D01*
X87389279Y-69339685D01*
X87443530Y-69209035D01*
X87443653Y-69067568D01*
X87389630Y-68936823D01*
X87289685Y-68836703D01*
X87159035Y-68782452D01*
X87017568Y-68782329D01*
X86886823Y-68836352D01*
X86786703Y-68936297D01*
X86732452Y-69066947D01*
X86732329Y-69208414D01*
X86690021Y-69208414D01*
X86705539Y-69171044D01*
X86705662Y-69029577D01*
X86651639Y-68898832D01*
X86551694Y-68798712D01*
X86421044Y-68744461D01*
X86279577Y-68744338D01*
X86148832Y-68798361D01*
X86048712Y-68898306D01*
X85994461Y-69028956D01*
X85994338Y-69170423D01*
X77581220Y-69170423D01*
X77551639Y-69098832D01*
X77451694Y-68998712D01*
X77321044Y-68944461D01*
X77179577Y-68944338D01*
X77048832Y-68998361D01*
X77025334Y-69021818D01*
X76890516Y-68470423D01*
X78394338Y-68470423D01*
X78448361Y-68601168D01*
X78548306Y-68701288D01*
X78678956Y-68755539D01*
X78820423Y-68755662D01*
X78951168Y-68701639D01*
X79051288Y-68601694D01*
X79105539Y-68471044D01*
X79105658Y-68333853D01*
X85608060Y-68333853D01*
X85662083Y-68464598D01*
X85762028Y-68564718D01*
X85892678Y-68618969D01*
X86034145Y-68619092D01*
X86164890Y-68565069D01*
X86265010Y-68465124D01*
X86319261Y-68334474D01*
X86319384Y-68193007D01*
X86265361Y-68062262D01*
X86165416Y-67962142D01*
X86034766Y-67907891D01*
X85893299Y-67907768D01*
X85762554Y-67961791D01*
X85662434Y-68061736D01*
X85608183Y-68192386D01*
X85608060Y-68333853D01*
X79105658Y-68333853D01*
X79105662Y-68329577D01*
X79051639Y-68198832D01*
X78951694Y-68098712D01*
X78821044Y-68044461D01*
X78679577Y-68044338D01*
X78548832Y-68098361D01*
X78448712Y-68198306D01*
X78394461Y-68328956D01*
X78394338Y-68470423D01*
X76890516Y-68470423D01*
X76743814Y-67870423D01*
X86836440Y-67870423D01*
X86890463Y-68001168D01*
X86990408Y-68101288D01*
X87039081Y-68121499D01*
X86994461Y-68228956D01*
X86994338Y-68370423D01*
X87048361Y-68501168D01*
X87148306Y-68601288D01*
X87278956Y-68655539D01*
X87420423Y-68655662D01*
X87551168Y-68601639D01*
X87651288Y-68501694D01*
X87705539Y-68371044D01*
X87705662Y-68229577D01*
X87651639Y-68098832D01*
X87551694Y-67998712D01*
X87503021Y-67978501D01*
X87547641Y-67871044D01*
X87547764Y-67729577D01*
X87493741Y-67598832D01*
X87393796Y-67498712D01*
X87263146Y-67444461D01*
X87121679Y-67444338D01*
X86990934Y-67498361D01*
X86890814Y-67598306D01*
X86836563Y-67728956D01*
X86836440Y-67870423D01*
X76743814Y-67870423D01*
X76485482Y-66813876D01*
X82537791Y-66813876D01*
X82591814Y-66944621D01*
X82691759Y-67044741D01*
X82822409Y-67098992D01*
X82963876Y-67099115D01*
X83094621Y-67045092D01*
X83194741Y-66945147D01*
X83248992Y-66814497D01*
X83249115Y-66673030D01*
X83195092Y-66542285D01*
X83095147Y-66442165D01*
X82964497Y-66387914D01*
X82823030Y-66387791D01*
X82692285Y-66441814D01*
X82592165Y-66541759D01*
X82537914Y-66672409D01*
X82537791Y-66813876D01*
X76485482Y-66813876D01*
X76357102Y-66288820D01*
X76652729Y-64370423D01*
X77594334Y-64370423D01*
X77648357Y-64501168D01*
X77748302Y-64601288D01*
X77878952Y-64655539D01*
X78020419Y-64655662D01*
X78151164Y-64601639D01*
X78250083Y-64502893D01*
X78348306Y-64601288D01*
X78478956Y-64655539D01*
X78620423Y-64655662D01*
X78751168Y-64601639D01*
X78782436Y-64570425D01*
X86994338Y-64570425D01*
X87048361Y-64701170D01*
X87148306Y-64801290D01*
X87278956Y-64855541D01*
X87420423Y-64855664D01*
X87551168Y-64801641D01*
X87651288Y-64701696D01*
X87705539Y-64571046D01*
X87705662Y-64429579D01*
X87651639Y-64298834D01*
X87551694Y-64198714D01*
X87421044Y-64144463D01*
X87279577Y-64144340D01*
X87148832Y-64198363D01*
X87048712Y-64298308D01*
X86994461Y-64428958D01*
X86994338Y-64570425D01*
X78782436Y-64570425D01*
X78851288Y-64501694D01*
X78905539Y-64371044D01*
X78905662Y-64229577D01*
X78851639Y-64098832D01*
X78751694Y-63998712D01*
X78621044Y-63944461D01*
X78613575Y-63944455D01*
X78660310Y-63897801D01*
X78714561Y-63767151D01*
X78714684Y-63625684D01*
X78660661Y-63494939D01*
X78636188Y-63470423D01*
X86294338Y-63470423D01*
X86348361Y-63601168D01*
X86448306Y-63701288D01*
X86578956Y-63755539D01*
X86720423Y-63755662D01*
X86851168Y-63701639D01*
X86951288Y-63601694D01*
X87005539Y-63471044D01*
X87005662Y-63329577D01*
X86981220Y-63270423D01*
X87194338Y-63270423D01*
X87248361Y-63401168D01*
X87348306Y-63501288D01*
X87478956Y-63555539D01*
X87620423Y-63555662D01*
X87751168Y-63501639D01*
X87851288Y-63401694D01*
X87905539Y-63271044D01*
X87905662Y-63129577D01*
X87851639Y-62998832D01*
X87751694Y-62898712D01*
X87621044Y-62844461D01*
X87479577Y-62844338D01*
X87348832Y-62898361D01*
X87248712Y-62998306D01*
X87194461Y-63128956D01*
X87194338Y-63270423D01*
X86981220Y-63270423D01*
X86951639Y-63198832D01*
X86851694Y-63098712D01*
X86721044Y-63044461D01*
X86579577Y-63044338D01*
X86448832Y-63098361D01*
X86348712Y-63198306D01*
X86294461Y-63328956D01*
X86294338Y-63470423D01*
X78636188Y-63470423D01*
X78560716Y-63394819D01*
X78430066Y-63340568D01*
X78288599Y-63340445D01*
X78157854Y-63394468D01*
X78057734Y-63494413D01*
X78003483Y-63625063D01*
X78003360Y-63766530D01*
X78057383Y-63897275D01*
X78157328Y-63997395D01*
X78287978Y-64051646D01*
X78295447Y-64051652D01*
X78249913Y-64097107D01*
X78151690Y-63998712D01*
X78021040Y-63944461D01*
X77879573Y-63944338D01*
X77748828Y-63998361D01*
X77648708Y-64098306D01*
X77594457Y-64228956D01*
X77594334Y-64370423D01*
X76652729Y-64370423D01*
X76791420Y-63470423D01*
X77194332Y-63470423D01*
X77248355Y-63601168D01*
X77348300Y-63701288D01*
X77478950Y-63755539D01*
X77620417Y-63755662D01*
X77751162Y-63701639D01*
X77851282Y-63601694D01*
X77905533Y-63471044D01*
X77905656Y-63329577D01*
X77851633Y-63198832D01*
X77751688Y-63098712D01*
X77621038Y-63044461D01*
X77479571Y-63044338D01*
X77348826Y-63098361D01*
X77248706Y-63198306D01*
X77194455Y-63328956D01*
X77194332Y-63470423D01*
X76791420Y-63470423D01*
X76889043Y-62836927D01*
X76990125Y-62670417D01*
X86294338Y-62670417D01*
X86348361Y-62801162D01*
X86448306Y-62901282D01*
X86578956Y-62955533D01*
X86720423Y-62955656D01*
X86851168Y-62901633D01*
X86951288Y-62801688D01*
X87005539Y-62671038D01*
X87005662Y-62529571D01*
X86951639Y-62398826D01*
X86851694Y-62298706D01*
X86721044Y-62244455D01*
X86579577Y-62244332D01*
X86448832Y-62298355D01*
X86348712Y-62398300D01*
X86294461Y-62528950D01*
X86294338Y-62670417D01*
X76990125Y-62670417D01*
X77232947Y-62270423D01*
X79194338Y-62270423D01*
X79248361Y-62401168D01*
X79348306Y-62501288D01*
X79478956Y-62555539D01*
X79620423Y-62555662D01*
X79751168Y-62501639D01*
X79851288Y-62401694D01*
X79905539Y-62271044D01*
X79905662Y-62129577D01*
X79851639Y-61998832D01*
X79751694Y-61898712D01*
X79621044Y-61844461D01*
X79479577Y-61844338D01*
X79348832Y-61898361D01*
X79248712Y-61998306D01*
X79194461Y-62128956D01*
X79194338Y-62270423D01*
X77232947Y-62270423D01*
X77536479Y-61770423D01*
X77794338Y-61770423D01*
X77848361Y-61901168D01*
X77948306Y-62001288D01*
X78078956Y-62055539D01*
X78220423Y-62055662D01*
X78351168Y-62001639D01*
X78451288Y-61901694D01*
X78505539Y-61771044D01*
X78505539Y-61770423D01*
X86394338Y-61770423D01*
X86448361Y-61901168D01*
X86548306Y-62001288D01*
X86678956Y-62055539D01*
X86820423Y-62055662D01*
X86951168Y-62001639D01*
X87051288Y-61901694D01*
X87087932Y-61813444D01*
X88415848Y-61813444D01*
X88469871Y-61944189D01*
X88569816Y-62044309D01*
X88700466Y-62098560D01*
X88841933Y-62098683D01*
X88972678Y-62044660D01*
X89072798Y-61944715D01*
X89127049Y-61814065D01*
X89127172Y-61672598D01*
X89073149Y-61541853D01*
X88973204Y-61441733D01*
X88842554Y-61387482D01*
X88701087Y-61387359D01*
X88570342Y-61441382D01*
X88470222Y-61541327D01*
X88415971Y-61671977D01*
X88415848Y-61813444D01*
X87087932Y-61813444D01*
X87105539Y-61771044D01*
X87105662Y-61629577D01*
X87051639Y-61498832D01*
X86951694Y-61398712D01*
X86821044Y-61344461D01*
X86679577Y-61344338D01*
X86548832Y-61398361D01*
X86448712Y-61498306D01*
X86394461Y-61628956D01*
X86394338Y-61770423D01*
X78505539Y-61770423D01*
X78505662Y-61629577D01*
X78451639Y-61498832D01*
X78351694Y-61398712D01*
X78221044Y-61344461D01*
X78079577Y-61344338D01*
X77948832Y-61398361D01*
X77848712Y-61498306D01*
X77794461Y-61628956D01*
X77794338Y-61770423D01*
X77536479Y-61770423D01*
X77961424Y-61070423D01*
X87884296Y-61070423D01*
X87938319Y-61201168D01*
X88038264Y-61301288D01*
X88168914Y-61355539D01*
X88310381Y-61355662D01*
X88441126Y-61301639D01*
X88541246Y-61201694D01*
X88595497Y-61071044D01*
X88595620Y-60929577D01*
X88541597Y-60798832D01*
X88441652Y-60698712D01*
X88311002Y-60644461D01*
X88169535Y-60644338D01*
X88038790Y-60698361D01*
X87938670Y-60798306D01*
X87884419Y-60928956D01*
X87884296Y-61070423D01*
X77961424Y-61070423D01*
X78689901Y-59870423D01*
X87894338Y-59870423D01*
X87948361Y-60001168D01*
X88048306Y-60101288D01*
X88178956Y-60155539D01*
X88320423Y-60155662D01*
X88451168Y-60101639D01*
X88474616Y-60078231D01*
X88777120Y-60078231D01*
X88831143Y-60208976D01*
X88931088Y-60309096D01*
X89061738Y-60363347D01*
X89203205Y-60363470D01*
X89333950Y-60309447D01*
X89434070Y-60209502D01*
X89488321Y-60078852D01*
X89488444Y-59937385D01*
X89434421Y-59806640D01*
X89434310Y-59806528D01*
X89824591Y-59806528D01*
X89904714Y-60000440D01*
X90052944Y-60148929D01*
X90246715Y-60229390D01*
X90456528Y-60229573D01*
X90650440Y-60149450D01*
X90798929Y-60001220D01*
X90879390Y-59807449D01*
X90879573Y-59597636D01*
X90799450Y-59403724D01*
X90651220Y-59255235D01*
X90457449Y-59174774D01*
X90247636Y-59174591D01*
X90053724Y-59254714D01*
X89905235Y-59402944D01*
X89824774Y-59596715D01*
X89824591Y-59806528D01*
X89434310Y-59806528D01*
X89334476Y-59706520D01*
X89203826Y-59652269D01*
X89062359Y-59652146D01*
X88931614Y-59706169D01*
X88831494Y-59806114D01*
X88777243Y-59936764D01*
X88777120Y-60078231D01*
X88474616Y-60078231D01*
X88551288Y-60001694D01*
X88605539Y-59871044D01*
X88605662Y-59729577D01*
X88551639Y-59598832D01*
X88451694Y-59498712D01*
X88321044Y-59444461D01*
X88179577Y-59444338D01*
X88048832Y-59498361D01*
X87948712Y-59598306D01*
X87894461Y-59728956D01*
X87894338Y-59870423D01*
X78689901Y-59870423D01*
X78701478Y-59851354D01*
X79189452Y-59493693D01*
X83958933Y-59493693D01*
X84012956Y-59624438D01*
X84112901Y-59724558D01*
X84243551Y-59778809D01*
X84385018Y-59778932D01*
X84515763Y-59724909D01*
X84564593Y-59676164D01*
X84612902Y-59724558D01*
X84743552Y-59778809D01*
X84885019Y-59778932D01*
X85015764Y-59724909D01*
X85115884Y-59624964D01*
X85170135Y-59494314D01*
X85170258Y-59352847D01*
X85116235Y-59222102D01*
X85016290Y-59121982D01*
X84885640Y-59067731D01*
X84744173Y-59067608D01*
X84613428Y-59121631D01*
X84564598Y-59170376D01*
X84516289Y-59121982D01*
X84385639Y-59067731D01*
X84244172Y-59067608D01*
X84113427Y-59121631D01*
X84013307Y-59221576D01*
X83959056Y-59352226D01*
X83958933Y-59493693D01*
X79189452Y-59493693D01*
X79630506Y-59170423D01*
X80394344Y-59170423D01*
X80448367Y-59301168D01*
X80548312Y-59401288D01*
X80678962Y-59455539D01*
X80820429Y-59455662D01*
X80951174Y-59401639D01*
X81051294Y-59301694D01*
X81105545Y-59171044D01*
X81105668Y-59029577D01*
X81051645Y-58898832D01*
X80951700Y-58798712D01*
X80939902Y-58793813D01*
X82295362Y-58793813D01*
X82364090Y-58960149D01*
X82491241Y-59087522D01*
X82657457Y-59156541D01*
X82837433Y-59156698D01*
X83003769Y-59087970D01*
X83131142Y-58960819D01*
X83200161Y-58794603D01*
X83200161Y-58793813D01*
X86395362Y-58793813D01*
X86464090Y-58960149D01*
X86591241Y-59087522D01*
X86757457Y-59156541D01*
X86937433Y-59156698D01*
X87103769Y-59087970D01*
X87231142Y-58960819D01*
X87300161Y-58794603D01*
X87300318Y-58614627D01*
X87231590Y-58448291D01*
X87104439Y-58320918D01*
X86938223Y-58251899D01*
X86758247Y-58251742D01*
X86591911Y-58320470D01*
X86464538Y-58447621D01*
X86395519Y-58613837D01*
X86395362Y-58793813D01*
X83200161Y-58793813D01*
X83200318Y-58614627D01*
X83131590Y-58448291D01*
X83004439Y-58320918D01*
X82838223Y-58251899D01*
X82658247Y-58251742D01*
X82491911Y-58320470D01*
X82364538Y-58447621D01*
X82295519Y-58613837D01*
X82295362Y-58793813D01*
X80939902Y-58793813D01*
X80821050Y-58744461D01*
X80679583Y-58744338D01*
X80548838Y-58798361D01*
X80448718Y-58898306D01*
X80394467Y-59028956D01*
X80394344Y-59170423D01*
X79630506Y-59170423D01*
X80994421Y-58170742D01*
X80994334Y-58270423D01*
X81048357Y-58401168D01*
X81148302Y-58501288D01*
X81278952Y-58555539D01*
X81420419Y-58555662D01*
X81551164Y-58501639D01*
X81651284Y-58401694D01*
X81705535Y-58271044D01*
X81705658Y-58129577D01*
X81651635Y-57998832D01*
X81551690Y-57898712D01*
X81432877Y-57849376D01*
X81518476Y-57786636D01*
X84930410Y-56952400D01*
X85260075Y-56952400D01*
X85148832Y-56998365D01*
M02*
