G04 #@! TF.FileFunction,Copper,L6,Bot,Signal*
%FSLAX46Y46*%
G04 Gerber Fmt 4.6, Leading zero omitted, Abs format (unit mm)*
G04 Created by KiCad (PCBNEW 4.0.2+dfsg1-2~bpo8+1-stable) date jue 23 mar 2017 16:55:10 ART*
%MOMM*%
G01*
G04 APERTURE LIST*
%ADD10C,0.100000*%
%ADD11R,0.300000X0.280000*%
%ADD12R,0.450000X0.450000*%
%ADD13R,0.280000X0.300000*%
%ADD14C,0.260000*%
%ADD15R,0.500000X1.000000*%
%ADD16R,0.500000X0.500000*%
%ADD17C,0.600000*%
%ADD18R,0.300000X1.600000*%
%ADD19R,0.800000X1.800000*%
%ADD20R,0.650000X0.350000*%
%ADD21R,0.350000X0.650000*%
%ADD22R,0.350000X0.350000*%
%ADD23R,0.550000X0.250000*%
%ADD24R,0.250000X0.550000*%
%ADD25R,0.800000X0.850000*%
%ADD26C,1.651000*%
%ADD27C,0.762000*%
%ADD28C,0.406400*%
%ADD29C,0.254000*%
%ADD30C,0.088900*%
%ADD31C,0.101600*%
%ADD32C,0.203200*%
G04 APERTURE END LIST*
D10*
D11*
X89550000Y-69160000D03*
X89550000Y-68640000D03*
D12*
X77150000Y-68500000D03*
X78150000Y-68500000D03*
X78150000Y-67500000D03*
X77150000Y-67500000D03*
D11*
X77800000Y-66660000D03*
X77800000Y-66140000D03*
D10*
G36*
X92438047Y-60585966D02*
X91235966Y-61788047D01*
X90670281Y-61222362D01*
X91872362Y-60020281D01*
X92438047Y-60585966D01*
X92438047Y-60585966D01*
G37*
G36*
X90033883Y-58181802D02*
X88831802Y-59383883D01*
X88266117Y-58818198D01*
X89468198Y-57616117D01*
X90033883Y-58181802D01*
X90033883Y-58181802D01*
G37*
D11*
X88050000Y-57760000D03*
X88050000Y-57240000D03*
X87350000Y-57760000D03*
X87350000Y-57240000D03*
X87150000Y-64940000D03*
X87150000Y-65460000D03*
X86650000Y-64940000D03*
X86650000Y-65460000D03*
D13*
X88750000Y-70300000D03*
X88230000Y-70300000D03*
X88750000Y-70900000D03*
X88230000Y-70900000D03*
D11*
X90100000Y-72140000D03*
X90100000Y-72660000D03*
X78750000Y-69240000D03*
X78750000Y-69760000D03*
D14*
X87900000Y-71400000D03*
X87900000Y-72200000D03*
X88700000Y-72200000D03*
X88300000Y-71400000D03*
X87900000Y-72600000D03*
X88300000Y-72600000D03*
X89100000Y-72600000D03*
X88300000Y-71800000D03*
X88700000Y-73000000D03*
X87900000Y-71800000D03*
X88700000Y-71400000D03*
X88300000Y-73000000D03*
X88300000Y-72200000D03*
X87900000Y-73000000D03*
X88700000Y-72600000D03*
X88700000Y-71800000D03*
X89100000Y-71400000D03*
X89100000Y-73000000D03*
X89100000Y-72200000D03*
X89100000Y-71800000D03*
D15*
X85250000Y-67200000D03*
X84050000Y-67200000D03*
D16*
X85950000Y-67200000D03*
X86950000Y-67200000D03*
X83350000Y-67200000D03*
X82350000Y-67200000D03*
X79650000Y-67000000D03*
X80650000Y-67000000D03*
X79650000Y-68700000D03*
X79650000Y-67700000D03*
X80650000Y-68700000D03*
X80650000Y-67700000D03*
D11*
X91600000Y-63650000D03*
X91600000Y-63130000D03*
X89450000Y-63860000D03*
X89450000Y-63340000D03*
X88350000Y-69160000D03*
X88350000Y-68640000D03*
X90050000Y-63860000D03*
X90050000Y-63340000D03*
X90350000Y-69160000D03*
X90350000Y-68640000D03*
X77950000Y-69340000D03*
X77950000Y-69860000D03*
D17*
X86847840Y-58704220D03*
X82747840Y-58704220D03*
X85450000Y-72500000D03*
X81350000Y-72500000D03*
D18*
X84400000Y-72800000D03*
X83900000Y-72800000D03*
X83400000Y-72800000D03*
X82900000Y-72800000D03*
X82400000Y-72800000D03*
X82400000Y-69200000D03*
X82900000Y-69200000D03*
X83400000Y-69200000D03*
X83900000Y-69200000D03*
X84400000Y-69200000D03*
D19*
X80650000Y-71000000D03*
X86150000Y-71000000D03*
D20*
X82530000Y-63650000D03*
X82530000Y-63000000D03*
X82530000Y-62350000D03*
X82530000Y-61700000D03*
X82530000Y-61050000D03*
D21*
X82500000Y-60100000D03*
X83150000Y-60100000D03*
X83800000Y-60100000D03*
X84450000Y-60100000D03*
D20*
X85730000Y-64950000D03*
X85730000Y-64300000D03*
X85730000Y-63650000D03*
X85730000Y-63000000D03*
X85730000Y-62350000D03*
X85730000Y-61700000D03*
X85730000Y-61050000D03*
D21*
X85750000Y-60100000D03*
X85100000Y-60100000D03*
X79500000Y-65900000D03*
X84450000Y-64000000D03*
X85750000Y-65900000D03*
X85100000Y-65900000D03*
X84450000Y-65900000D03*
X83800000Y-65900000D03*
X83150000Y-65900000D03*
X82500000Y-65900000D03*
D20*
X82530000Y-64950000D03*
X82530000Y-64300000D03*
D21*
X84450000Y-63000000D03*
X84450000Y-62000000D03*
D22*
X84450000Y-64950000D03*
X83800000Y-61050000D03*
D21*
X83800000Y-62000000D03*
X83800000Y-63000000D03*
X83800000Y-64000000D03*
D22*
X83800000Y-64950000D03*
D21*
X79500000Y-60100000D03*
D23*
X88150000Y-67240000D03*
X88150000Y-66840000D03*
X88150000Y-66440000D03*
X88150000Y-66040000D03*
X88150000Y-65240000D03*
D24*
X88750000Y-64640000D03*
X89150000Y-64640000D03*
X89550000Y-64640000D03*
X89950000Y-64640000D03*
D25*
X89350000Y-65840000D03*
X89350000Y-66640000D03*
X90150000Y-66640000D03*
X90150000Y-65840000D03*
D24*
X90350000Y-64640000D03*
X90750000Y-64640000D03*
D23*
X91350000Y-65240000D03*
X91350000Y-65640000D03*
X91350000Y-66040000D03*
X91350000Y-66440000D03*
X91350000Y-66840000D03*
X91350000Y-67240000D03*
D24*
X90750000Y-67840000D03*
X90350000Y-67840000D03*
D23*
X88150000Y-65640000D03*
D24*
X89950000Y-67840000D03*
X89550000Y-67840000D03*
X89150000Y-67840000D03*
X88750000Y-67840000D03*
D12*
X84650000Y-58600000D03*
X84650000Y-57600000D03*
X83650000Y-57600000D03*
X83650000Y-58600000D03*
D13*
X82310000Y-58100000D03*
X81790000Y-58100000D03*
D26*
X94850000Y-55100000D03*
X88450000Y-79100000D03*
X70850000Y-66100000D03*
D27*
X87550000Y-60400000D03*
X81650000Y-59000000D03*
D28*
X78650000Y-71200000D03*
X86950000Y-57300000D03*
X84650000Y-66999998D03*
X86842118Y-70300000D03*
X80450000Y-65900000D03*
X81750000Y-66900000D03*
X81355686Y-60900000D03*
X86850000Y-59900000D03*
X81250004Y-64200000D03*
X81450000Y-62600000D03*
X78513430Y-61300000D03*
X82570055Y-70398287D03*
X86750000Y-64100000D03*
X87150000Y-65900000D03*
X86750000Y-66200000D03*
X85450000Y-70500000D03*
X80950000Y-69807884D03*
X89686560Y-61500000D03*
X83050000Y-57600000D03*
X81950004Y-73300000D03*
X92350000Y-70527126D03*
X92050000Y-61300000D03*
X77050000Y-66600000D03*
X77213430Y-65880144D03*
X84948782Y-73300000D03*
X86350000Y-69100000D03*
X86650000Y-63400000D03*
X80350000Y-69807884D03*
X77250000Y-69300000D03*
X81349996Y-58200000D03*
X88771510Y-61743021D03*
X78150000Y-61700000D03*
X87192102Y-67800000D03*
X87350000Y-64500002D03*
X88750000Y-57300000D03*
X90713430Y-70527116D03*
X90667338Y-72112143D03*
X91950000Y-70900000D03*
X78550000Y-64300000D03*
X77949996Y-64300000D03*
X84649507Y-70624511D03*
X92450000Y-61700000D03*
X86650000Y-62599994D03*
X80750006Y-59100000D03*
X85350000Y-57300004D03*
X87087991Y-69137991D03*
D29*
X88700000Y-71800000D03*
D28*
X89132782Y-60007808D03*
X87550000Y-70999994D03*
D29*
X88300000Y-72600000D03*
D28*
X88250000Y-59800000D03*
X88239958Y-61000000D03*
D29*
X88700000Y-73000000D03*
D28*
X89850000Y-73200000D03*
X91750000Y-61752898D03*
D29*
X89550000Y-70333290D03*
X88700000Y-72600000D03*
D28*
X81982757Y-71306835D03*
X89050000Y-73700000D03*
X84814596Y-59423270D03*
X90150000Y-71400000D03*
X84314595Y-59423270D03*
X90528492Y-71043022D03*
X86750000Y-61700000D03*
X87550000Y-63200000D03*
X79550000Y-62200000D03*
X86050000Y-74536570D03*
X86050000Y-73400000D03*
X82893453Y-66743453D03*
X78750000Y-68400000D03*
X85963722Y-68263430D03*
X87350000Y-73499992D03*
X77549994Y-63400000D03*
D29*
X85050000Y-61000000D03*
X88309109Y-71790891D03*
X84225000Y-60700000D03*
X88300000Y-72200000D03*
D28*
X87023121Y-71457791D03*
X78359022Y-63696107D03*
X78430061Y-70604080D03*
D29*
X89684102Y-72534102D03*
D28*
X87350000Y-68300000D03*
X80450000Y-72900000D03*
D29*
X88700000Y-72200000D03*
D30*
X86650000Y-60100000D02*
X86850000Y-59900000D01*
X85750000Y-60100000D02*
X86650000Y-60100000D01*
X87010000Y-57240000D02*
X86950000Y-57300000D01*
X87350000Y-57240000D02*
X87010000Y-57240000D01*
D31*
X87142118Y-70600000D02*
X87045317Y-70503199D01*
X87045317Y-70503199D02*
X86842118Y-70300000D01*
X88230000Y-70600000D02*
X87142118Y-70600000D01*
D30*
X81750000Y-67100000D02*
X81750000Y-66900000D01*
D31*
X81450000Y-62887368D02*
X81450000Y-62600000D01*
X81450000Y-63450000D02*
X81450000Y-62887368D01*
X81600000Y-63600000D02*
X81450000Y-63450000D01*
D32*
X90350000Y-64640000D02*
X90350000Y-64161800D01*
X90350000Y-64161800D02*
X90450000Y-64061800D01*
X90450000Y-64061800D02*
X90450000Y-63386800D01*
X90450000Y-63386800D02*
X90403200Y-63340000D01*
X90403200Y-63340000D02*
X90050000Y-63340000D01*
X91650000Y-68300000D02*
X91750000Y-68300000D01*
X91750000Y-68300000D02*
X92350000Y-68900000D01*
X91650000Y-68300000D02*
X91310000Y-68640000D01*
X91310000Y-68640000D02*
X90350000Y-68640000D01*
X91950000Y-68000000D02*
X91650000Y-68300000D01*
X92350000Y-70239758D02*
X92350000Y-70527126D01*
X92350000Y-68900000D02*
X92350000Y-70239758D01*
X91350000Y-67240000D02*
X91690000Y-67240000D01*
X91690000Y-67240000D02*
X91950000Y-67500000D01*
X91950000Y-67500000D02*
X91950000Y-68000000D01*
X89550000Y-62800000D02*
X89750000Y-62800000D01*
X89750000Y-62800000D02*
X89950000Y-62800000D01*
X89686560Y-61636560D02*
X89686560Y-62736560D01*
X89686560Y-62736560D02*
X89750000Y-62800000D01*
X89686560Y-61636560D02*
X89686560Y-61500000D01*
X89450000Y-63340000D02*
X89450000Y-62900000D01*
X89450000Y-62900000D02*
X89550000Y-62800000D01*
X89950000Y-62800000D02*
X90050000Y-62900000D01*
X90050000Y-62900000D02*
X90050000Y-63340000D01*
X90350000Y-67840000D02*
X90350000Y-68640000D01*
D31*
X86750022Y-64100022D02*
X86750000Y-64100000D01*
X86849984Y-64100022D02*
X86750022Y-64100022D01*
X86750000Y-64200000D02*
X86750000Y-64100000D01*
D30*
X87150000Y-65460000D02*
X87150000Y-65900000D01*
D31*
X85700000Y-65900000D02*
X85700000Y-66350000D01*
X85700000Y-66350000D02*
X85750000Y-66400000D01*
X85750000Y-66400000D02*
X86550000Y-66400000D01*
X86550000Y-66400000D02*
X86750000Y-66200000D01*
X86950000Y-66400000D02*
X86750000Y-66200000D01*
X86950000Y-67200000D02*
X86950000Y-66400000D01*
X91750000Y-62500000D02*
X91600000Y-62650000D01*
X91600000Y-62650000D02*
X91600000Y-63130000D01*
X91950000Y-62500000D02*
X91750000Y-62500000D01*
X92092901Y-62357099D02*
X91950000Y-62500000D01*
X92050000Y-61300000D02*
X92050000Y-61545404D01*
X92050000Y-61545404D02*
X92092901Y-61588305D01*
X92092901Y-61588305D02*
X92092901Y-62357099D01*
X87150000Y-65460000D02*
X86650000Y-65460000D01*
X80746801Y-69296801D02*
X80650000Y-69200000D01*
X80650000Y-69200000D02*
X80650000Y-68700000D01*
X80950000Y-69807884D02*
X80746801Y-69604685D01*
X80746801Y-69604685D02*
X80746801Y-69296801D01*
X79650000Y-68700000D02*
X80650000Y-68700000D01*
X82350000Y-67200000D02*
X81850000Y-67200000D01*
X81850000Y-67200000D02*
X81750000Y-67100000D01*
D32*
X81950004Y-73012632D02*
X81950004Y-73300000D01*
X81950004Y-72896796D02*
X81950004Y-73012632D01*
X82046800Y-72800000D02*
X81950004Y-72896796D01*
X82400000Y-72800000D02*
X82046800Y-72800000D01*
X91950000Y-61300000D02*
X92050000Y-61300000D01*
X91554164Y-60904164D02*
X91950000Y-61300000D01*
D31*
X88230000Y-70300000D02*
X88230000Y-70600000D01*
X88230000Y-70600000D02*
X88230000Y-70900000D01*
X88250000Y-71166153D02*
X88244553Y-71166153D01*
X88244553Y-71166153D02*
X88230000Y-71151600D01*
X88230000Y-71151600D02*
X88230000Y-70900000D01*
X88300000Y-71400000D02*
X88300000Y-71216153D01*
X88300000Y-71216153D02*
X88250000Y-71166153D01*
D32*
X81349996Y-58196804D02*
X81349996Y-58200000D01*
X81790000Y-58100000D02*
X81446800Y-58100000D01*
X81350000Y-58200000D02*
X81349996Y-58200000D01*
X81446800Y-58100000D02*
X81349996Y-58196804D01*
X81450000Y-58100000D02*
X81350000Y-58200000D01*
D31*
X78150000Y-67500000D02*
X78150000Y-64700000D01*
X78150000Y-64700000D02*
X78550000Y-64300000D01*
D32*
X89150000Y-64161800D02*
X88771510Y-63783310D01*
X89150000Y-64640000D02*
X89150000Y-64161800D01*
X88771510Y-63783310D02*
X88771510Y-62030389D01*
X88771510Y-62030389D02*
X88771510Y-61743021D01*
D30*
X87326100Y-67700000D02*
X87292102Y-67700000D01*
X87292102Y-67700000D02*
X87192102Y-67800000D01*
X88150000Y-67240000D02*
X87786100Y-67240000D01*
X87786100Y-67240000D02*
X87326100Y-67700000D01*
D32*
X89150000Y-64640000D02*
X89550000Y-64640000D01*
D31*
X89450000Y-63860000D02*
X89450000Y-64101600D01*
X89450000Y-64101600D02*
X89550000Y-64201600D01*
X89550000Y-64201600D02*
X89550000Y-64640000D01*
X90550000Y-69160000D02*
X90350000Y-69160000D01*
X90350000Y-69160000D02*
X90010000Y-69160000D01*
X90050000Y-69160000D02*
X90010000Y-69160000D01*
X89950000Y-68300000D02*
X90050000Y-68400000D01*
X90050000Y-68400000D02*
X90050000Y-69160000D01*
X89655079Y-68300000D02*
X89950000Y-68300000D01*
X89550000Y-68194921D02*
X89655079Y-68300000D01*
X89550000Y-67840000D02*
X89550000Y-68194921D01*
X89550000Y-69160000D02*
X89801600Y-69160000D01*
X89801600Y-69160000D02*
X90010000Y-69160000D01*
D30*
X88750000Y-70300000D02*
X88750000Y-70000000D01*
X88750000Y-70000000D02*
X88350000Y-69600000D01*
X88350000Y-69600000D02*
X88350000Y-69160000D01*
D31*
X91350000Y-65200000D02*
X92150000Y-65200000D01*
X92150000Y-65200000D02*
X92450000Y-64900000D01*
X92450000Y-64900000D02*
X92450000Y-63900000D01*
D32*
X87150000Y-64500000D02*
X87349998Y-64500000D01*
X87350000Y-64519110D02*
X87350000Y-64500002D01*
X87349998Y-64500000D02*
X87350000Y-64500002D01*
D31*
X91950000Y-69500000D02*
X91950000Y-70900000D01*
X91610000Y-69160000D02*
X91950000Y-69500000D01*
X90550000Y-69160000D02*
X91610000Y-69160000D01*
X88750000Y-70600000D02*
X90242504Y-70600000D01*
X90242504Y-70600000D02*
X90315388Y-70527116D01*
X90315388Y-70527116D02*
X90426062Y-70527116D01*
X90426062Y-70527116D02*
X90713430Y-70527116D01*
D32*
X86650000Y-64500000D02*
X87150000Y-64500000D01*
D31*
X87150000Y-64940000D02*
X87150000Y-64698400D01*
X87150000Y-64698400D02*
X87150000Y-64500000D01*
D32*
X86450000Y-64500000D02*
X86650000Y-64500000D01*
D31*
X86650000Y-64940000D02*
X86650000Y-64698400D01*
X86650000Y-64698400D02*
X86650000Y-64500000D01*
D32*
X86350000Y-64600000D02*
X86450000Y-64500000D01*
X86350000Y-64783200D02*
X86350000Y-64600000D01*
X85680000Y-64950000D02*
X86183200Y-64950000D01*
X86183200Y-64950000D02*
X86350000Y-64783200D01*
D30*
X88050000Y-57240000D02*
X88690000Y-57240000D01*
X88690000Y-57240000D02*
X88750000Y-57300000D01*
D31*
X90379970Y-72112143D02*
X90667338Y-72112143D01*
X90122857Y-72112143D02*
X90379970Y-72112143D01*
X90100000Y-72135000D02*
X90122857Y-72112143D01*
X92200000Y-63650000D02*
X92450000Y-63900000D01*
X91600000Y-63650000D02*
X92200000Y-63650000D01*
D32*
X84446308Y-70421312D02*
X84649507Y-70624511D01*
X84400000Y-69200000D02*
X84400000Y-70375004D01*
X84400000Y-70375004D02*
X84446308Y-70421312D01*
D31*
X92450000Y-63900000D02*
X92450000Y-61700000D01*
X88750000Y-70600000D02*
X88750000Y-70900000D01*
X88750000Y-70300000D02*
X88750000Y-70600000D01*
X88700000Y-71400000D02*
X88700000Y-71216153D01*
X88700000Y-71216153D02*
X88750000Y-71166153D01*
X88750000Y-71166153D02*
X88750000Y-70900000D01*
D30*
X83900000Y-69200000D02*
X83900000Y-71150000D01*
X83900000Y-71150000D02*
X84050000Y-71300000D01*
X84050000Y-71300000D02*
X84850000Y-71300000D01*
X84850000Y-71300000D02*
X85050000Y-71100000D01*
X85050000Y-71100000D02*
X85050000Y-69900000D01*
X85050000Y-69900000D02*
X85250000Y-69700000D01*
X85250000Y-69700000D02*
X86525982Y-69700000D01*
X86525982Y-69700000D02*
X86884792Y-69341190D01*
X86884792Y-69341190D02*
X87087991Y-69137991D01*
X88050000Y-57760000D02*
X88410000Y-57760000D01*
X88410000Y-57760000D02*
X88650000Y-58000000D01*
X87350000Y-57760000D02*
X88050000Y-57760000D01*
D32*
X89150000Y-59990590D02*
X89132782Y-60007808D01*
X89150000Y-58500000D02*
X89150000Y-59990590D01*
D30*
X88650000Y-58000000D02*
X89150000Y-58500000D01*
X88239958Y-61000000D02*
X88239958Y-59810042D01*
X88046801Y-59596801D02*
X88250000Y-59800000D01*
X85572189Y-59477811D02*
X87927811Y-59477811D01*
X88239958Y-59810042D02*
X88250000Y-59800000D01*
X85100000Y-60100000D02*
X85100000Y-59950000D01*
X85100000Y-59950000D02*
X85572189Y-59477811D01*
X87927811Y-59477811D02*
X88046801Y-59596801D01*
X89100000Y-72600000D02*
X89250000Y-72600000D01*
X89363351Y-73113351D02*
X89450000Y-73200000D01*
X89250000Y-72600000D02*
X89363351Y-72713351D01*
X89363351Y-72713351D02*
X89363351Y-73113351D01*
X89450000Y-73200000D02*
X89850000Y-73200000D01*
D31*
X90100000Y-72950000D02*
X90053199Y-72996801D01*
X90053199Y-72996801D02*
X89850000Y-73200000D01*
X90100000Y-72665000D02*
X90100000Y-72950000D01*
X90750000Y-64600000D02*
X90750000Y-62700012D01*
X90750000Y-62700012D02*
X91523013Y-61926999D01*
X91523013Y-61926999D02*
X91650012Y-61800000D01*
D30*
X91650012Y-61800000D02*
X91702898Y-61800000D01*
X91702898Y-61800000D02*
X91750000Y-61752898D01*
X88350000Y-68640000D02*
X88111100Y-68640000D01*
X88111100Y-68640000D02*
X88051100Y-68700000D01*
X85050000Y-68000000D02*
X83050000Y-68000000D01*
X88051100Y-68700000D02*
X85350000Y-68700000D01*
X85350000Y-68700000D02*
X85150000Y-68500000D01*
X85150000Y-68500000D02*
X85150000Y-68100000D01*
X85150000Y-68100000D02*
X85050000Y-68000000D01*
X83050000Y-68000000D02*
X82902160Y-68147840D01*
X82902160Y-68147840D02*
X82902160Y-69204220D01*
X89550000Y-70333290D02*
X89550000Y-70000000D01*
X89550000Y-70000000D02*
X89450000Y-69900000D01*
X89450000Y-69900000D02*
X88950000Y-69900000D01*
X88950000Y-69900000D02*
X88850000Y-69800000D01*
X88850000Y-69800000D02*
X88850000Y-68800000D01*
X88690000Y-68640000D02*
X88350000Y-68640000D01*
X88850000Y-68800000D02*
X88690000Y-68640000D01*
X88350000Y-68640000D02*
X88350000Y-68411100D01*
X88653900Y-68300000D02*
X88750000Y-68203900D01*
X88350000Y-68411100D02*
X88461100Y-68300000D01*
X88461100Y-68300000D02*
X88653900Y-68300000D01*
X88750000Y-68203900D02*
X88750000Y-67840000D01*
X89050000Y-73700000D02*
X89848098Y-73700000D01*
X89848098Y-73700000D02*
X91313448Y-72234650D01*
X91313448Y-72234650D02*
X91313448Y-70263448D01*
X91313448Y-70263448D02*
X91050000Y-70000000D01*
X89310000Y-68640000D02*
X89550000Y-68640000D01*
X91050000Y-70000000D02*
X89950000Y-70000000D01*
X89650000Y-69700000D02*
X89250000Y-69700000D01*
X89950000Y-70000000D02*
X89650000Y-69700000D01*
X89250000Y-69700000D02*
X89150000Y-69600000D01*
X89150000Y-68800000D02*
X89310000Y-68640000D01*
X89150000Y-69600000D02*
X89150000Y-68800000D01*
X89100000Y-73000000D02*
X89050000Y-73050000D01*
X89050000Y-73050000D02*
X89050000Y-73700000D01*
X89246100Y-68300000D02*
X89394639Y-68300000D01*
X89394639Y-68300000D02*
X89550000Y-68455361D01*
X89550000Y-68455361D02*
X89550000Y-68640000D01*
X89246100Y-68300000D02*
X89250000Y-68300000D01*
X89150000Y-67840000D02*
X89150000Y-68203900D01*
X89150000Y-68203900D02*
X89246100Y-68300000D01*
X83400000Y-69200000D02*
X83400000Y-71150000D01*
X83400000Y-71150000D02*
X83243165Y-71306835D01*
X82270125Y-71306835D02*
X81982757Y-71306835D01*
X83243165Y-71306835D02*
X82270125Y-71306835D01*
X90250000Y-71300000D02*
X90150000Y-71400000D01*
X89100000Y-71400000D02*
X90150000Y-71400000D01*
X89100000Y-71800000D02*
X90237368Y-71800000D01*
X90528492Y-71330390D02*
X90528492Y-71043022D01*
X90528492Y-71508876D02*
X90528492Y-71330390D01*
X90237368Y-71800000D02*
X90528492Y-71508876D01*
X77850000Y-68900000D02*
X77950000Y-69000000D01*
X77950000Y-69000000D02*
X77950000Y-69340000D01*
X77236100Y-68900000D02*
X77850000Y-68900000D01*
X77150000Y-68500000D02*
X77150000Y-68813900D01*
X77150000Y-68813900D02*
X77236100Y-68900000D01*
X78650000Y-68900000D02*
X78750000Y-69000000D01*
X78750000Y-69000000D02*
X78750000Y-69240000D01*
X78236100Y-68900000D02*
X78650000Y-68900000D01*
X78150000Y-68500000D02*
X78150000Y-68813900D01*
X78150000Y-68813900D02*
X78236100Y-68900000D01*
X77150000Y-67500000D02*
X77150000Y-67100000D01*
X77150000Y-67100000D02*
X77250000Y-67000000D01*
X77250000Y-67000000D02*
X77688900Y-67000000D01*
X77688900Y-67000000D02*
X77800000Y-66888900D01*
X77800000Y-66888900D02*
X77800000Y-66660000D01*
D31*
X90050000Y-63860000D02*
X90050000Y-64101600D01*
X90050000Y-64101600D02*
X89950000Y-64201600D01*
X89950000Y-64201600D02*
X89950000Y-64640000D01*
D30*
X85680000Y-63000000D02*
X87050000Y-63000000D01*
X87050000Y-63000000D02*
X87153199Y-62896801D01*
X87153199Y-61803199D02*
X87050000Y-61700000D01*
X87153199Y-62896801D02*
X87153199Y-61803199D01*
X87050000Y-61700000D02*
X86750000Y-61700000D01*
X85680000Y-63650000D02*
X86068900Y-63650000D01*
X86068900Y-63650000D02*
X86182348Y-63763448D01*
X86182348Y-63763448D02*
X87386552Y-63763448D01*
X87386552Y-63763448D02*
X87550000Y-63600000D01*
X87550000Y-63600000D02*
X87550000Y-63200000D01*
X83750000Y-64950000D02*
X83511100Y-64950000D01*
X83511100Y-64950000D02*
X83186100Y-64625000D01*
X83186100Y-64625000D02*
X79775000Y-64625000D01*
X79775000Y-64625000D02*
X79550000Y-64400000D01*
X79550000Y-64400000D02*
X79550000Y-62200000D01*
X87900000Y-71800000D02*
X86850000Y-71800000D01*
X86850000Y-71800000D02*
X86350000Y-72300000D01*
X86350000Y-72300000D02*
X86350000Y-72800000D01*
X84400000Y-73650000D02*
X84400000Y-72800000D01*
X86350000Y-72800000D02*
X86150000Y-73000000D01*
X84550000Y-73800000D02*
X84400000Y-73650000D01*
X86150000Y-73000000D02*
X85750000Y-73000000D01*
X85550000Y-73200000D02*
X85550000Y-73700000D01*
X85450000Y-73800000D02*
X84550000Y-73800000D01*
X85750000Y-73000000D02*
X85550000Y-73200000D01*
X85550000Y-73700000D02*
X85450000Y-73800000D01*
X87900000Y-72600000D02*
X87150000Y-72600000D01*
X87150000Y-72600000D02*
X86950000Y-72800000D01*
X86950000Y-72800000D02*
X86950000Y-73800000D01*
X84050000Y-74000000D02*
X83897840Y-73847840D01*
X86950000Y-73800000D02*
X86750000Y-74000000D01*
X86750000Y-74000000D02*
X84050000Y-74000000D01*
X83897840Y-73847840D02*
X83897840Y-72800860D01*
X83400000Y-72800000D02*
X83400000Y-73950000D01*
X83650000Y-74200000D02*
X88050000Y-74200000D01*
X83400000Y-73950000D02*
X83650000Y-74200000D01*
X88050000Y-74200000D02*
X88300000Y-73950000D01*
X88300000Y-73950000D02*
X88300000Y-73183847D01*
X88300000Y-73183847D02*
X88300000Y-73000000D01*
X86050000Y-73400000D02*
X86450000Y-73400000D01*
X86450000Y-73400000D02*
X86650000Y-73200000D01*
X86650000Y-73200000D02*
X86650000Y-72500000D01*
X86650000Y-72500000D02*
X86950000Y-72200000D01*
X86950000Y-72200000D02*
X87050000Y-72200000D01*
X87050000Y-72200000D02*
X87900000Y-72200000D01*
X82900000Y-72800000D02*
X82900000Y-74050000D01*
X82900000Y-74050000D02*
X83386570Y-74536570D01*
X83386570Y-74536570D02*
X85762632Y-74536570D01*
X85762632Y-74536570D02*
X86050000Y-74536570D01*
X86250000Y-73400000D02*
X86050000Y-73400000D01*
D31*
X85950000Y-67200000D02*
X85250000Y-67200000D01*
D30*
X85050000Y-65900000D02*
X85050000Y-66288900D01*
X85050000Y-66288900D02*
X85150000Y-66388900D01*
X85238900Y-66388900D02*
X85350000Y-66500000D01*
X85150000Y-66388900D02*
X85238900Y-66388900D01*
X85350000Y-66500000D02*
X85350000Y-67100000D01*
X85350000Y-67100000D02*
X85250000Y-67200000D01*
X82530000Y-64950000D02*
X80400000Y-64950000D01*
X79950000Y-65400000D02*
X79950000Y-66200000D01*
X80400000Y-64950000D02*
X79950000Y-65400000D01*
X79950000Y-66200000D02*
X79650000Y-66500000D01*
X79650000Y-66500000D02*
X79650000Y-67000000D01*
D31*
X79650000Y-67000000D02*
X79650000Y-67700000D01*
X83350000Y-67200000D02*
X84050000Y-67200000D01*
D30*
X84150000Y-66400000D02*
X84050000Y-66500000D01*
X84050000Y-66500000D02*
X84050000Y-67200000D01*
X84288900Y-66400000D02*
X84150000Y-66400000D01*
X84400000Y-65900000D02*
X84400000Y-66288900D01*
X84400000Y-66288900D02*
X84288900Y-66400000D01*
D31*
X82450000Y-65900000D02*
X81150000Y-65900000D01*
X81150000Y-65900000D02*
X80650000Y-66400000D01*
X80650000Y-67000000D02*
X80650000Y-67700000D01*
X80650000Y-66400000D02*
X80650000Y-67000000D01*
D30*
X87900000Y-73000000D02*
X87900000Y-73350000D01*
X87900000Y-73350000D02*
X87750008Y-73499992D01*
X87750008Y-73499992D02*
X87350000Y-73499992D01*
X86850000Y-60800000D02*
X86600000Y-61050000D01*
X86600000Y-61050000D02*
X85730000Y-61050000D01*
X86850000Y-60561185D02*
X86850000Y-60800000D01*
X87550000Y-60400000D02*
X87011185Y-60400000D01*
X87011185Y-60400000D02*
X86850000Y-60561185D01*
X85229605Y-61000000D02*
X85050000Y-61000000D01*
X85680000Y-61050000D02*
X85630000Y-61000000D01*
X85630000Y-61000000D02*
X85229605Y-61000000D01*
X84263900Y-60700000D02*
X84225000Y-60700000D01*
X82825000Y-60515032D02*
X83009968Y-60700000D01*
X84045395Y-60700000D02*
X84225000Y-60700000D01*
X84450000Y-60513900D02*
X84263900Y-60700000D01*
X84450000Y-60100000D02*
X84450000Y-60513900D01*
X82188815Y-59000000D02*
X82825000Y-59636185D01*
X82825000Y-59636185D02*
X82825000Y-60515032D01*
X81650000Y-59000000D02*
X82188815Y-59000000D01*
X83009968Y-60700000D02*
X84045395Y-60700000D01*
X83800000Y-60100000D02*
X83800000Y-59350000D01*
X83800000Y-59350000D02*
X84150000Y-59000000D01*
X84150000Y-59000000D02*
X84550000Y-59000000D01*
X84550000Y-59000000D02*
X84650000Y-58900000D01*
X84650000Y-58900000D02*
X84650000Y-58600000D01*
X85730000Y-61700000D02*
X86143900Y-61700000D01*
X88750000Y-59501902D02*
X88548098Y-59300000D01*
X85650000Y-59300000D02*
X85450000Y-59100000D01*
X84650000Y-57913900D02*
X84650000Y-57600000D01*
X86143900Y-61700000D02*
X86480451Y-61363449D01*
X86480451Y-61363449D02*
X88486551Y-61363449D01*
X88486551Y-61363449D02*
X88750000Y-61100000D01*
X85450000Y-58200000D02*
X85250000Y-58000000D01*
X88750000Y-61100000D02*
X88750000Y-59501902D01*
X88548098Y-59300000D02*
X85650000Y-59300000D01*
X85450000Y-59100000D02*
X85450000Y-58200000D01*
X85250000Y-58000000D02*
X84736100Y-58000000D01*
X84736100Y-58000000D02*
X84650000Y-57913900D01*
D32*
X82310000Y-58100000D02*
X83578200Y-58100000D01*
X83578200Y-58100000D02*
X83650000Y-58028200D01*
X83650000Y-58028200D02*
X83650000Y-57600000D01*
D30*
X83150000Y-60100000D02*
X83150000Y-59500000D01*
X83150000Y-59500000D02*
X83650000Y-59000000D01*
X83650000Y-59000000D02*
X83650000Y-58600000D01*
X86950002Y-71400000D02*
X87007793Y-71457791D01*
X87007793Y-71457791D02*
X87023121Y-71457791D01*
X77800000Y-66140000D02*
X77800000Y-64748096D01*
X77753893Y-63696107D02*
X78071654Y-63696107D01*
X77800000Y-64748096D02*
X77513449Y-64461545D01*
X77513449Y-64461545D02*
X77513449Y-63936551D01*
X77513449Y-63936551D02*
X77753893Y-63696107D01*
X78071654Y-63696107D02*
X78359022Y-63696107D01*
X87900000Y-71400000D02*
X86950002Y-71400000D01*
X87049994Y-71400000D02*
X86950002Y-71400000D01*
X78226862Y-70400881D02*
X78430061Y-70604080D01*
X77950000Y-69860000D02*
X77950000Y-70124019D01*
X77950000Y-70124019D02*
X78226862Y-70400881D01*
X89100000Y-72200000D02*
X89550000Y-72200000D01*
X89550000Y-72200000D02*
X89684102Y-72334102D01*
X89684102Y-72334102D02*
X89684102Y-72534102D01*
X80450000Y-72900000D02*
X80162632Y-72900000D01*
X80162632Y-72900000D02*
X79850000Y-72587368D01*
X79850000Y-70500000D02*
X79650000Y-70300000D01*
X79850000Y-72587368D02*
X79850000Y-70500000D01*
X79650000Y-70300000D02*
X78850000Y-70300000D01*
X78850000Y-70300000D02*
X78750000Y-70200000D01*
X78750000Y-70200000D02*
X78750000Y-69760000D01*
D31*
G36*
X82532389Y-59621962D02*
X82512700Y-59641650D01*
X82512700Y-60087300D01*
X82532700Y-60087300D01*
X82532700Y-60112700D01*
X82512700Y-60112700D01*
X82512700Y-60558350D01*
X82557150Y-60602800D01*
X82649784Y-60602800D01*
X82651567Y-60606152D01*
X82659908Y-60622244D01*
X82660551Y-60623050D01*
X82661039Y-60623967D01*
X82672542Y-60638070D01*
X82683876Y-60652269D01*
X82685298Y-60653711D01*
X82685321Y-60653739D01*
X82685347Y-60653760D01*
X82685806Y-60654226D01*
X82728780Y-60697200D01*
X82587150Y-60697200D01*
X82542700Y-60741650D01*
X82542700Y-61037300D01*
X82988350Y-61037300D01*
X83032800Y-60992850D01*
X83032800Y-60896850D01*
X83299200Y-60896850D01*
X83299200Y-61500000D01*
X83301211Y-61514153D01*
X83307086Y-61527184D01*
X83316358Y-61538064D01*
X83328294Y-61545929D01*
X83341949Y-61550158D01*
X83350000Y-61550800D01*
X83497753Y-61550800D01*
X83486894Y-61561659D01*
X83467436Y-61590780D01*
X83454033Y-61623137D01*
X83447200Y-61657488D01*
X83447200Y-61942850D01*
X83491650Y-61987300D01*
X83787300Y-61987300D01*
X83787300Y-61967300D01*
X83812700Y-61967300D01*
X83812700Y-61987300D01*
X84108350Y-61987300D01*
X84125000Y-61970650D01*
X84141650Y-61987300D01*
X84437300Y-61987300D01*
X84437300Y-61967300D01*
X84462700Y-61967300D01*
X84462700Y-61987300D01*
X84758350Y-61987300D01*
X84802800Y-61942850D01*
X84802800Y-61657488D01*
X84795967Y-61623137D01*
X84782564Y-61590780D01*
X84763106Y-61561659D01*
X84752247Y-61550800D01*
X85099200Y-61550800D01*
X85099200Y-64000000D01*
X85101211Y-64014153D01*
X85107086Y-64027184D01*
X85116358Y-64038064D01*
X85128294Y-64045929D01*
X85141949Y-64050158D01*
X85150000Y-64050800D01*
X85243285Y-64050800D01*
X85234033Y-64073137D01*
X85227200Y-64107488D01*
X85227200Y-64242850D01*
X85271650Y-64287300D01*
X85717300Y-64287300D01*
X85717300Y-64267300D01*
X85742700Y-64267300D01*
X85742700Y-64287300D01*
X85762700Y-64287300D01*
X85762700Y-64312700D01*
X85742700Y-64312700D01*
X85742700Y-64332700D01*
X85717300Y-64332700D01*
X85717300Y-64312700D01*
X85271650Y-64312700D01*
X85227200Y-64357150D01*
X85227200Y-64449200D01*
X84752247Y-64449200D01*
X84763106Y-64438341D01*
X84782564Y-64409220D01*
X84795967Y-64376863D01*
X84802800Y-64342512D01*
X84802800Y-64057150D01*
X84758350Y-64012700D01*
X84462700Y-64012700D01*
X84462700Y-64032700D01*
X84437300Y-64032700D01*
X84437300Y-64012700D01*
X84141650Y-64012700D01*
X84125000Y-64029350D01*
X84108350Y-64012700D01*
X83812700Y-64012700D01*
X83812700Y-64032700D01*
X83787300Y-64032700D01*
X83787300Y-64012700D01*
X83491650Y-64012700D01*
X83447200Y-64057150D01*
X83447200Y-64342512D01*
X83454033Y-64376863D01*
X83467436Y-64409220D01*
X83486894Y-64438341D01*
X83497753Y-64449200D01*
X83272982Y-64449200D01*
X83263647Y-64444068D01*
X83262660Y-64443755D01*
X83261748Y-64443266D01*
X83244317Y-64437936D01*
X83227027Y-64432452D01*
X83226004Y-64432337D01*
X83225009Y-64432033D01*
X83206868Y-64430190D01*
X83188848Y-64428169D01*
X83186827Y-64428155D01*
X83186787Y-64428151D01*
X83186750Y-64428154D01*
X83186100Y-64428150D01*
X83032800Y-64428150D01*
X83032800Y-64357150D01*
X82988350Y-64312700D01*
X82542700Y-64312700D01*
X82542700Y-64332700D01*
X82517300Y-64332700D01*
X82517300Y-64312700D01*
X82071650Y-64312700D01*
X82027200Y-64357150D01*
X82027200Y-64428150D01*
X80900800Y-64428150D01*
X80900800Y-63707150D01*
X82027200Y-63707150D01*
X82027200Y-63842512D01*
X82034033Y-63876863D01*
X82047436Y-63909220D01*
X82066894Y-63938341D01*
X82091659Y-63963106D01*
X82109460Y-63975000D01*
X82091659Y-63986894D01*
X82066894Y-64011659D01*
X82047436Y-64040780D01*
X82034033Y-64073137D01*
X82027200Y-64107488D01*
X82027200Y-64242850D01*
X82071650Y-64287300D01*
X82517300Y-64287300D01*
X82517300Y-63991650D01*
X82500650Y-63975000D01*
X82517300Y-63958350D01*
X82517300Y-63662700D01*
X82542700Y-63662700D01*
X82542700Y-63958350D01*
X82559350Y-63975000D01*
X82542700Y-63991650D01*
X82542700Y-64287300D01*
X82988350Y-64287300D01*
X83032800Y-64242850D01*
X83032800Y-64107488D01*
X83025967Y-64073137D01*
X83012564Y-64040780D01*
X82993106Y-64011659D01*
X82968341Y-63986894D01*
X82950540Y-63975000D01*
X82968341Y-63963106D01*
X82993106Y-63938341D01*
X83012564Y-63909220D01*
X83025967Y-63876863D01*
X83032800Y-63842512D01*
X83032800Y-63707150D01*
X82988350Y-63662700D01*
X82542700Y-63662700D01*
X82517300Y-63662700D01*
X82071650Y-63662700D01*
X82027200Y-63707150D01*
X80900800Y-63707150D01*
X80900800Y-63057150D01*
X82027200Y-63057150D01*
X82027200Y-63192512D01*
X82034033Y-63226863D01*
X82047436Y-63259220D01*
X82066894Y-63288341D01*
X82091659Y-63313106D01*
X82109460Y-63325000D01*
X82091659Y-63336894D01*
X82066894Y-63361659D01*
X82047436Y-63390780D01*
X82034033Y-63423137D01*
X82027200Y-63457488D01*
X82027200Y-63592850D01*
X82071650Y-63637300D01*
X82517300Y-63637300D01*
X82517300Y-63341650D01*
X82500650Y-63325000D01*
X82517300Y-63308350D01*
X82517300Y-63012700D01*
X82542700Y-63012700D01*
X82542700Y-63308350D01*
X82559350Y-63325000D01*
X82542700Y-63341650D01*
X82542700Y-63637300D01*
X82988350Y-63637300D01*
X83032800Y-63592850D01*
X83032800Y-63457488D01*
X83025967Y-63423137D01*
X83012564Y-63390780D01*
X82993106Y-63361659D01*
X82968341Y-63336894D01*
X82950540Y-63325000D01*
X82968341Y-63313106D01*
X82993106Y-63288341D01*
X83012564Y-63259220D01*
X83025967Y-63226863D01*
X83032800Y-63192512D01*
X83032800Y-63057150D01*
X83447200Y-63057150D01*
X83447200Y-63342512D01*
X83454033Y-63376863D01*
X83467436Y-63409220D01*
X83486894Y-63438341D01*
X83511659Y-63463106D01*
X83540780Y-63482564D01*
X83573138Y-63495967D01*
X83593412Y-63500000D01*
X83573138Y-63504033D01*
X83540780Y-63517436D01*
X83511659Y-63536894D01*
X83486894Y-63561659D01*
X83467436Y-63590780D01*
X83454033Y-63623137D01*
X83447200Y-63657488D01*
X83447200Y-63942850D01*
X83491650Y-63987300D01*
X83787300Y-63987300D01*
X83787300Y-63541650D01*
X83745650Y-63500000D01*
X83787300Y-63458350D01*
X83787300Y-63012700D01*
X83812700Y-63012700D01*
X83812700Y-63458350D01*
X83854350Y-63500000D01*
X83812700Y-63541650D01*
X83812700Y-63987300D01*
X84108350Y-63987300D01*
X84125000Y-63970650D01*
X84141650Y-63987300D01*
X84437300Y-63987300D01*
X84437300Y-63541650D01*
X84395650Y-63500000D01*
X84437300Y-63458350D01*
X84437300Y-63012700D01*
X84462700Y-63012700D01*
X84462700Y-63458350D01*
X84504350Y-63500000D01*
X84462700Y-63541650D01*
X84462700Y-63987300D01*
X84758350Y-63987300D01*
X84802800Y-63942850D01*
X84802800Y-63657488D01*
X84795967Y-63623137D01*
X84782564Y-63590780D01*
X84763106Y-63561659D01*
X84738341Y-63536894D01*
X84709220Y-63517436D01*
X84676862Y-63504033D01*
X84656588Y-63500000D01*
X84676862Y-63495967D01*
X84709220Y-63482564D01*
X84738341Y-63463106D01*
X84763106Y-63438341D01*
X84782564Y-63409220D01*
X84795967Y-63376863D01*
X84802800Y-63342512D01*
X84802800Y-63057150D01*
X84758350Y-63012700D01*
X84462700Y-63012700D01*
X84437300Y-63012700D01*
X84141650Y-63012700D01*
X84125000Y-63029350D01*
X84108350Y-63012700D01*
X83812700Y-63012700D01*
X83787300Y-63012700D01*
X83491650Y-63012700D01*
X83447200Y-63057150D01*
X83032800Y-63057150D01*
X82988350Y-63012700D01*
X82542700Y-63012700D01*
X82517300Y-63012700D01*
X82071650Y-63012700D01*
X82027200Y-63057150D01*
X80900800Y-63057150D01*
X80900800Y-62407150D01*
X82027200Y-62407150D01*
X82027200Y-62542512D01*
X82034033Y-62576863D01*
X82047436Y-62609220D01*
X82066894Y-62638341D01*
X82091659Y-62663106D01*
X82109460Y-62675000D01*
X82091659Y-62686894D01*
X82066894Y-62711659D01*
X82047436Y-62740780D01*
X82034033Y-62773137D01*
X82027200Y-62807488D01*
X82027200Y-62942850D01*
X82071650Y-62987300D01*
X82517300Y-62987300D01*
X82517300Y-62691650D01*
X82500650Y-62675000D01*
X82517300Y-62658350D01*
X82517300Y-62362700D01*
X82542700Y-62362700D01*
X82542700Y-62658350D01*
X82559350Y-62675000D01*
X82542700Y-62691650D01*
X82542700Y-62987300D01*
X82988350Y-62987300D01*
X83032800Y-62942850D01*
X83032800Y-62807488D01*
X83025967Y-62773137D01*
X83012564Y-62740780D01*
X82993106Y-62711659D01*
X82968341Y-62686894D01*
X82950540Y-62675000D01*
X82968341Y-62663106D01*
X82993106Y-62638341D01*
X83012564Y-62609220D01*
X83025967Y-62576863D01*
X83032800Y-62542512D01*
X83032800Y-62407150D01*
X82988350Y-62362700D01*
X82542700Y-62362700D01*
X82517300Y-62362700D01*
X82071650Y-62362700D01*
X82027200Y-62407150D01*
X80900800Y-62407150D01*
X80900800Y-61107150D01*
X82027200Y-61107150D01*
X82027200Y-61242512D01*
X82034033Y-61276863D01*
X82047436Y-61309220D01*
X82066894Y-61338341D01*
X82091659Y-61363106D01*
X82120780Y-61382564D01*
X82136027Y-61388879D01*
X82103586Y-61410256D01*
X82075634Y-61443052D01*
X82057926Y-61482337D01*
X82051863Y-61525000D01*
X82051863Y-61875000D01*
X82053798Y-61899269D01*
X82066546Y-61940432D01*
X82090256Y-61976414D01*
X82123052Y-62004366D01*
X82137074Y-62010687D01*
X82120780Y-62017436D01*
X82091659Y-62036894D01*
X82066894Y-62061659D01*
X82047436Y-62090780D01*
X82034033Y-62123137D01*
X82027200Y-62157488D01*
X82027200Y-62292850D01*
X82071650Y-62337300D01*
X82517300Y-62337300D01*
X82517300Y-62317300D01*
X82542700Y-62317300D01*
X82542700Y-62337300D01*
X82988350Y-62337300D01*
X83032800Y-62292850D01*
X83032800Y-62157488D01*
X83025967Y-62123137D01*
X83012564Y-62090780D01*
X82993106Y-62061659D01*
X82988597Y-62057150D01*
X83447200Y-62057150D01*
X83447200Y-62342512D01*
X83454033Y-62376863D01*
X83467436Y-62409220D01*
X83486894Y-62438341D01*
X83511659Y-62463106D01*
X83540780Y-62482564D01*
X83573138Y-62495967D01*
X83593412Y-62500000D01*
X83573138Y-62504033D01*
X83540780Y-62517436D01*
X83511659Y-62536894D01*
X83486894Y-62561659D01*
X83467436Y-62590780D01*
X83454033Y-62623137D01*
X83447200Y-62657488D01*
X83447200Y-62942850D01*
X83491650Y-62987300D01*
X83787300Y-62987300D01*
X83787300Y-62541650D01*
X83745650Y-62500000D01*
X83787300Y-62458350D01*
X83787300Y-62012700D01*
X83812700Y-62012700D01*
X83812700Y-62458350D01*
X83854350Y-62500000D01*
X83812700Y-62541650D01*
X83812700Y-62987300D01*
X84108350Y-62987300D01*
X84125000Y-62970650D01*
X84141650Y-62987300D01*
X84437300Y-62987300D01*
X84437300Y-62541650D01*
X84395650Y-62500000D01*
X84437300Y-62458350D01*
X84437300Y-62012700D01*
X84462700Y-62012700D01*
X84462700Y-62458350D01*
X84504350Y-62500000D01*
X84462700Y-62541650D01*
X84462700Y-62987300D01*
X84758350Y-62987300D01*
X84802800Y-62942850D01*
X84802800Y-62657488D01*
X84795967Y-62623137D01*
X84782564Y-62590780D01*
X84763106Y-62561659D01*
X84738341Y-62536894D01*
X84709220Y-62517436D01*
X84676862Y-62504033D01*
X84656588Y-62500000D01*
X84676862Y-62495967D01*
X84709220Y-62482564D01*
X84738341Y-62463106D01*
X84763106Y-62438341D01*
X84782564Y-62409220D01*
X84795967Y-62376863D01*
X84802800Y-62342512D01*
X84802800Y-62057150D01*
X84758350Y-62012700D01*
X84462700Y-62012700D01*
X84437300Y-62012700D01*
X84141650Y-62012700D01*
X84125000Y-62029350D01*
X84108350Y-62012700D01*
X83812700Y-62012700D01*
X83787300Y-62012700D01*
X83491650Y-62012700D01*
X83447200Y-62057150D01*
X82988597Y-62057150D01*
X82968341Y-62036894D01*
X82939220Y-62017436D01*
X82923973Y-62011121D01*
X82956414Y-61989744D01*
X82984366Y-61956948D01*
X83002074Y-61917663D01*
X83008137Y-61875000D01*
X83008137Y-61525000D01*
X83006202Y-61500731D01*
X82993454Y-61459568D01*
X82969744Y-61423586D01*
X82936948Y-61395634D01*
X82922926Y-61389313D01*
X82939220Y-61382564D01*
X82968341Y-61363106D01*
X82993106Y-61338341D01*
X83012564Y-61309220D01*
X83025967Y-61276863D01*
X83032800Y-61242512D01*
X83032800Y-61107150D01*
X82988350Y-61062700D01*
X82542700Y-61062700D01*
X82542700Y-61082700D01*
X82517300Y-61082700D01*
X82517300Y-61062700D01*
X82071650Y-61062700D01*
X82027200Y-61107150D01*
X80900800Y-61107150D01*
X80900800Y-60857488D01*
X82027200Y-60857488D01*
X82027200Y-60992850D01*
X82071650Y-61037300D01*
X82517300Y-61037300D01*
X82517300Y-60741650D01*
X82472850Y-60697200D01*
X82187488Y-60697200D01*
X82153138Y-60704033D01*
X82120780Y-60717436D01*
X82091659Y-60736894D01*
X82066894Y-60761659D01*
X82047436Y-60790780D01*
X82034033Y-60823137D01*
X82027200Y-60857488D01*
X80900800Y-60857488D01*
X80900800Y-60157150D01*
X82147200Y-60157150D01*
X82147200Y-60442512D01*
X82154033Y-60476863D01*
X82167436Y-60509220D01*
X82186894Y-60538341D01*
X82211659Y-60563106D01*
X82240780Y-60582564D01*
X82273138Y-60595967D01*
X82307488Y-60602800D01*
X82442850Y-60602800D01*
X82487300Y-60558350D01*
X82487300Y-60112700D01*
X82191650Y-60112700D01*
X82147200Y-60157150D01*
X80900800Y-60157150D01*
X80900800Y-59757488D01*
X82147200Y-59757488D01*
X82147200Y-60042850D01*
X82191650Y-60087300D01*
X82487300Y-60087300D01*
X82487300Y-59641650D01*
X82442850Y-59597200D01*
X82307488Y-59597200D01*
X82273138Y-59604033D01*
X82240780Y-59617436D01*
X82211659Y-59636894D01*
X82186894Y-59661659D01*
X82167436Y-59690780D01*
X82154033Y-59723137D01*
X82147200Y-59757488D01*
X80900800Y-59757488D01*
X80900800Y-59550800D01*
X82461227Y-59550800D01*
X82532389Y-59621962D01*
X82532389Y-59621962D01*
G37*
X82532389Y-59621962D02*
X82512700Y-59641650D01*
X82512700Y-60087300D01*
X82532700Y-60087300D01*
X82532700Y-60112700D01*
X82512700Y-60112700D01*
X82512700Y-60558350D01*
X82557150Y-60602800D01*
X82649784Y-60602800D01*
X82651567Y-60606152D01*
X82659908Y-60622244D01*
X82660551Y-60623050D01*
X82661039Y-60623967D01*
X82672542Y-60638070D01*
X82683876Y-60652269D01*
X82685298Y-60653711D01*
X82685321Y-60653739D01*
X82685347Y-60653760D01*
X82685806Y-60654226D01*
X82728780Y-60697200D01*
X82587150Y-60697200D01*
X82542700Y-60741650D01*
X82542700Y-61037300D01*
X82988350Y-61037300D01*
X83032800Y-60992850D01*
X83032800Y-60896850D01*
X83299200Y-60896850D01*
X83299200Y-61500000D01*
X83301211Y-61514153D01*
X83307086Y-61527184D01*
X83316358Y-61538064D01*
X83328294Y-61545929D01*
X83341949Y-61550158D01*
X83350000Y-61550800D01*
X83497753Y-61550800D01*
X83486894Y-61561659D01*
X83467436Y-61590780D01*
X83454033Y-61623137D01*
X83447200Y-61657488D01*
X83447200Y-61942850D01*
X83491650Y-61987300D01*
X83787300Y-61987300D01*
X83787300Y-61967300D01*
X83812700Y-61967300D01*
X83812700Y-61987300D01*
X84108350Y-61987300D01*
X84125000Y-61970650D01*
X84141650Y-61987300D01*
X84437300Y-61987300D01*
X84437300Y-61967300D01*
X84462700Y-61967300D01*
X84462700Y-61987300D01*
X84758350Y-61987300D01*
X84802800Y-61942850D01*
X84802800Y-61657488D01*
X84795967Y-61623137D01*
X84782564Y-61590780D01*
X84763106Y-61561659D01*
X84752247Y-61550800D01*
X85099200Y-61550800D01*
X85099200Y-64000000D01*
X85101211Y-64014153D01*
X85107086Y-64027184D01*
X85116358Y-64038064D01*
X85128294Y-64045929D01*
X85141949Y-64050158D01*
X85150000Y-64050800D01*
X85243285Y-64050800D01*
X85234033Y-64073137D01*
X85227200Y-64107488D01*
X85227200Y-64242850D01*
X85271650Y-64287300D01*
X85717300Y-64287300D01*
X85717300Y-64267300D01*
X85742700Y-64267300D01*
X85742700Y-64287300D01*
X85762700Y-64287300D01*
X85762700Y-64312700D01*
X85742700Y-64312700D01*
X85742700Y-64332700D01*
X85717300Y-64332700D01*
X85717300Y-64312700D01*
X85271650Y-64312700D01*
X85227200Y-64357150D01*
X85227200Y-64449200D01*
X84752247Y-64449200D01*
X84763106Y-64438341D01*
X84782564Y-64409220D01*
X84795967Y-64376863D01*
X84802800Y-64342512D01*
X84802800Y-64057150D01*
X84758350Y-64012700D01*
X84462700Y-64012700D01*
X84462700Y-64032700D01*
X84437300Y-64032700D01*
X84437300Y-64012700D01*
X84141650Y-64012700D01*
X84125000Y-64029350D01*
X84108350Y-64012700D01*
X83812700Y-64012700D01*
X83812700Y-64032700D01*
X83787300Y-64032700D01*
X83787300Y-64012700D01*
X83491650Y-64012700D01*
X83447200Y-64057150D01*
X83447200Y-64342512D01*
X83454033Y-64376863D01*
X83467436Y-64409220D01*
X83486894Y-64438341D01*
X83497753Y-64449200D01*
X83272982Y-64449200D01*
X83263647Y-64444068D01*
X83262660Y-64443755D01*
X83261748Y-64443266D01*
X83244317Y-64437936D01*
X83227027Y-64432452D01*
X83226004Y-64432337D01*
X83225009Y-64432033D01*
X83206868Y-64430190D01*
X83188848Y-64428169D01*
X83186827Y-64428155D01*
X83186787Y-64428151D01*
X83186750Y-64428154D01*
X83186100Y-64428150D01*
X83032800Y-64428150D01*
X83032800Y-64357150D01*
X82988350Y-64312700D01*
X82542700Y-64312700D01*
X82542700Y-64332700D01*
X82517300Y-64332700D01*
X82517300Y-64312700D01*
X82071650Y-64312700D01*
X82027200Y-64357150D01*
X82027200Y-64428150D01*
X80900800Y-64428150D01*
X80900800Y-63707150D01*
X82027200Y-63707150D01*
X82027200Y-63842512D01*
X82034033Y-63876863D01*
X82047436Y-63909220D01*
X82066894Y-63938341D01*
X82091659Y-63963106D01*
X82109460Y-63975000D01*
X82091659Y-63986894D01*
X82066894Y-64011659D01*
X82047436Y-64040780D01*
X82034033Y-64073137D01*
X82027200Y-64107488D01*
X82027200Y-64242850D01*
X82071650Y-64287300D01*
X82517300Y-64287300D01*
X82517300Y-63991650D01*
X82500650Y-63975000D01*
X82517300Y-63958350D01*
X82517300Y-63662700D01*
X82542700Y-63662700D01*
X82542700Y-63958350D01*
X82559350Y-63975000D01*
X82542700Y-63991650D01*
X82542700Y-64287300D01*
X82988350Y-64287300D01*
X83032800Y-64242850D01*
X83032800Y-64107488D01*
X83025967Y-64073137D01*
X83012564Y-64040780D01*
X82993106Y-64011659D01*
X82968341Y-63986894D01*
X82950540Y-63975000D01*
X82968341Y-63963106D01*
X82993106Y-63938341D01*
X83012564Y-63909220D01*
X83025967Y-63876863D01*
X83032800Y-63842512D01*
X83032800Y-63707150D01*
X82988350Y-63662700D01*
X82542700Y-63662700D01*
X82517300Y-63662700D01*
X82071650Y-63662700D01*
X82027200Y-63707150D01*
X80900800Y-63707150D01*
X80900800Y-63057150D01*
X82027200Y-63057150D01*
X82027200Y-63192512D01*
X82034033Y-63226863D01*
X82047436Y-63259220D01*
X82066894Y-63288341D01*
X82091659Y-63313106D01*
X82109460Y-63325000D01*
X82091659Y-63336894D01*
X82066894Y-63361659D01*
X82047436Y-63390780D01*
X82034033Y-63423137D01*
X82027200Y-63457488D01*
X82027200Y-63592850D01*
X82071650Y-63637300D01*
X82517300Y-63637300D01*
X82517300Y-63341650D01*
X82500650Y-63325000D01*
X82517300Y-63308350D01*
X82517300Y-63012700D01*
X82542700Y-63012700D01*
X82542700Y-63308350D01*
X82559350Y-63325000D01*
X82542700Y-63341650D01*
X82542700Y-63637300D01*
X82988350Y-63637300D01*
X83032800Y-63592850D01*
X83032800Y-63457488D01*
X83025967Y-63423137D01*
X83012564Y-63390780D01*
X82993106Y-63361659D01*
X82968341Y-63336894D01*
X82950540Y-63325000D01*
X82968341Y-63313106D01*
X82993106Y-63288341D01*
X83012564Y-63259220D01*
X83025967Y-63226863D01*
X83032800Y-63192512D01*
X83032800Y-63057150D01*
X83447200Y-63057150D01*
X83447200Y-63342512D01*
X83454033Y-63376863D01*
X83467436Y-63409220D01*
X83486894Y-63438341D01*
X83511659Y-63463106D01*
X83540780Y-63482564D01*
X83573138Y-63495967D01*
X83593412Y-63500000D01*
X83573138Y-63504033D01*
X83540780Y-63517436D01*
X83511659Y-63536894D01*
X83486894Y-63561659D01*
X83467436Y-63590780D01*
X83454033Y-63623137D01*
X83447200Y-63657488D01*
X83447200Y-63942850D01*
X83491650Y-63987300D01*
X83787300Y-63987300D01*
X83787300Y-63541650D01*
X83745650Y-63500000D01*
X83787300Y-63458350D01*
X83787300Y-63012700D01*
X83812700Y-63012700D01*
X83812700Y-63458350D01*
X83854350Y-63500000D01*
X83812700Y-63541650D01*
X83812700Y-63987300D01*
X84108350Y-63987300D01*
X84125000Y-63970650D01*
X84141650Y-63987300D01*
X84437300Y-63987300D01*
X84437300Y-63541650D01*
X84395650Y-63500000D01*
X84437300Y-63458350D01*
X84437300Y-63012700D01*
X84462700Y-63012700D01*
X84462700Y-63458350D01*
X84504350Y-63500000D01*
X84462700Y-63541650D01*
X84462700Y-63987300D01*
X84758350Y-63987300D01*
X84802800Y-63942850D01*
X84802800Y-63657488D01*
X84795967Y-63623137D01*
X84782564Y-63590780D01*
X84763106Y-63561659D01*
X84738341Y-63536894D01*
X84709220Y-63517436D01*
X84676862Y-63504033D01*
X84656588Y-63500000D01*
X84676862Y-63495967D01*
X84709220Y-63482564D01*
X84738341Y-63463106D01*
X84763106Y-63438341D01*
X84782564Y-63409220D01*
X84795967Y-63376863D01*
X84802800Y-63342512D01*
X84802800Y-63057150D01*
X84758350Y-63012700D01*
X84462700Y-63012700D01*
X84437300Y-63012700D01*
X84141650Y-63012700D01*
X84125000Y-63029350D01*
X84108350Y-63012700D01*
X83812700Y-63012700D01*
X83787300Y-63012700D01*
X83491650Y-63012700D01*
X83447200Y-63057150D01*
X83032800Y-63057150D01*
X82988350Y-63012700D01*
X82542700Y-63012700D01*
X82517300Y-63012700D01*
X82071650Y-63012700D01*
X82027200Y-63057150D01*
X80900800Y-63057150D01*
X80900800Y-62407150D01*
X82027200Y-62407150D01*
X82027200Y-62542512D01*
X82034033Y-62576863D01*
X82047436Y-62609220D01*
X82066894Y-62638341D01*
X82091659Y-62663106D01*
X82109460Y-62675000D01*
X82091659Y-62686894D01*
X82066894Y-62711659D01*
X82047436Y-62740780D01*
X82034033Y-62773137D01*
X82027200Y-62807488D01*
X82027200Y-62942850D01*
X82071650Y-62987300D01*
X82517300Y-62987300D01*
X82517300Y-62691650D01*
X82500650Y-62675000D01*
X82517300Y-62658350D01*
X82517300Y-62362700D01*
X82542700Y-62362700D01*
X82542700Y-62658350D01*
X82559350Y-62675000D01*
X82542700Y-62691650D01*
X82542700Y-62987300D01*
X82988350Y-62987300D01*
X83032800Y-62942850D01*
X83032800Y-62807488D01*
X83025967Y-62773137D01*
X83012564Y-62740780D01*
X82993106Y-62711659D01*
X82968341Y-62686894D01*
X82950540Y-62675000D01*
X82968341Y-62663106D01*
X82993106Y-62638341D01*
X83012564Y-62609220D01*
X83025967Y-62576863D01*
X83032800Y-62542512D01*
X83032800Y-62407150D01*
X82988350Y-62362700D01*
X82542700Y-62362700D01*
X82517300Y-62362700D01*
X82071650Y-62362700D01*
X82027200Y-62407150D01*
X80900800Y-62407150D01*
X80900800Y-61107150D01*
X82027200Y-61107150D01*
X82027200Y-61242512D01*
X82034033Y-61276863D01*
X82047436Y-61309220D01*
X82066894Y-61338341D01*
X82091659Y-61363106D01*
X82120780Y-61382564D01*
X82136027Y-61388879D01*
X82103586Y-61410256D01*
X82075634Y-61443052D01*
X82057926Y-61482337D01*
X82051863Y-61525000D01*
X82051863Y-61875000D01*
X82053798Y-61899269D01*
X82066546Y-61940432D01*
X82090256Y-61976414D01*
X82123052Y-62004366D01*
X82137074Y-62010687D01*
X82120780Y-62017436D01*
X82091659Y-62036894D01*
X82066894Y-62061659D01*
X82047436Y-62090780D01*
X82034033Y-62123137D01*
X82027200Y-62157488D01*
X82027200Y-62292850D01*
X82071650Y-62337300D01*
X82517300Y-62337300D01*
X82517300Y-62317300D01*
X82542700Y-62317300D01*
X82542700Y-62337300D01*
X82988350Y-62337300D01*
X83032800Y-62292850D01*
X83032800Y-62157488D01*
X83025967Y-62123137D01*
X83012564Y-62090780D01*
X82993106Y-62061659D01*
X82988597Y-62057150D01*
X83447200Y-62057150D01*
X83447200Y-62342512D01*
X83454033Y-62376863D01*
X83467436Y-62409220D01*
X83486894Y-62438341D01*
X83511659Y-62463106D01*
X83540780Y-62482564D01*
X83573138Y-62495967D01*
X83593412Y-62500000D01*
X83573138Y-62504033D01*
X83540780Y-62517436D01*
X83511659Y-62536894D01*
X83486894Y-62561659D01*
X83467436Y-62590780D01*
X83454033Y-62623137D01*
X83447200Y-62657488D01*
X83447200Y-62942850D01*
X83491650Y-62987300D01*
X83787300Y-62987300D01*
X83787300Y-62541650D01*
X83745650Y-62500000D01*
X83787300Y-62458350D01*
X83787300Y-62012700D01*
X83812700Y-62012700D01*
X83812700Y-62458350D01*
X83854350Y-62500000D01*
X83812700Y-62541650D01*
X83812700Y-62987300D01*
X84108350Y-62987300D01*
X84125000Y-62970650D01*
X84141650Y-62987300D01*
X84437300Y-62987300D01*
X84437300Y-62541650D01*
X84395650Y-62500000D01*
X84437300Y-62458350D01*
X84437300Y-62012700D01*
X84462700Y-62012700D01*
X84462700Y-62458350D01*
X84504350Y-62500000D01*
X84462700Y-62541650D01*
X84462700Y-62987300D01*
X84758350Y-62987300D01*
X84802800Y-62942850D01*
X84802800Y-62657488D01*
X84795967Y-62623137D01*
X84782564Y-62590780D01*
X84763106Y-62561659D01*
X84738341Y-62536894D01*
X84709220Y-62517436D01*
X84676862Y-62504033D01*
X84656588Y-62500000D01*
X84676862Y-62495967D01*
X84709220Y-62482564D01*
X84738341Y-62463106D01*
X84763106Y-62438341D01*
X84782564Y-62409220D01*
X84795967Y-62376863D01*
X84802800Y-62342512D01*
X84802800Y-62057150D01*
X84758350Y-62012700D01*
X84462700Y-62012700D01*
X84437300Y-62012700D01*
X84141650Y-62012700D01*
X84125000Y-62029350D01*
X84108350Y-62012700D01*
X83812700Y-62012700D01*
X83787300Y-62012700D01*
X83491650Y-62012700D01*
X83447200Y-62057150D01*
X82988597Y-62057150D01*
X82968341Y-62036894D01*
X82939220Y-62017436D01*
X82923973Y-62011121D01*
X82956414Y-61989744D01*
X82984366Y-61956948D01*
X83002074Y-61917663D01*
X83008137Y-61875000D01*
X83008137Y-61525000D01*
X83006202Y-61500731D01*
X82993454Y-61459568D01*
X82969744Y-61423586D01*
X82936948Y-61395634D01*
X82922926Y-61389313D01*
X82939220Y-61382564D01*
X82968341Y-61363106D01*
X82993106Y-61338341D01*
X83012564Y-61309220D01*
X83025967Y-61276863D01*
X83032800Y-61242512D01*
X83032800Y-61107150D01*
X82988350Y-61062700D01*
X82542700Y-61062700D01*
X82542700Y-61082700D01*
X82517300Y-61082700D01*
X82517300Y-61062700D01*
X82071650Y-61062700D01*
X82027200Y-61107150D01*
X80900800Y-61107150D01*
X80900800Y-60857488D01*
X82027200Y-60857488D01*
X82027200Y-60992850D01*
X82071650Y-61037300D01*
X82517300Y-61037300D01*
X82517300Y-60741650D01*
X82472850Y-60697200D01*
X82187488Y-60697200D01*
X82153138Y-60704033D01*
X82120780Y-60717436D01*
X82091659Y-60736894D01*
X82066894Y-60761659D01*
X82047436Y-60790780D01*
X82034033Y-60823137D01*
X82027200Y-60857488D01*
X80900800Y-60857488D01*
X80900800Y-60157150D01*
X82147200Y-60157150D01*
X82147200Y-60442512D01*
X82154033Y-60476863D01*
X82167436Y-60509220D01*
X82186894Y-60538341D01*
X82211659Y-60563106D01*
X82240780Y-60582564D01*
X82273138Y-60595967D01*
X82307488Y-60602800D01*
X82442850Y-60602800D01*
X82487300Y-60558350D01*
X82487300Y-60112700D01*
X82191650Y-60112700D01*
X82147200Y-60157150D01*
X80900800Y-60157150D01*
X80900800Y-59757488D01*
X82147200Y-59757488D01*
X82147200Y-60042850D01*
X82191650Y-60087300D01*
X82487300Y-60087300D01*
X82487300Y-59641650D01*
X82442850Y-59597200D01*
X82307488Y-59597200D01*
X82273138Y-59604033D01*
X82240780Y-59617436D01*
X82211659Y-59636894D01*
X82186894Y-59661659D01*
X82167436Y-59690780D01*
X82154033Y-59723137D01*
X82147200Y-59757488D01*
X80900800Y-59757488D01*
X80900800Y-59550800D01*
X82461227Y-59550800D01*
X82532389Y-59621962D01*
M02*
